<?xml version="1.0" encoding="UTF-8" standalone="no"?>
<!-- Created with Inkscape (http://www.inkscape.org/) -->

<svg
   version="1.1"
   id="svg2"
   width="2000"
   height="2800"
   viewBox="0 0 2000 2800"
   sodipodi:docname="rabbit.svg"
   inkscape:version="1.3.2 (091e20e, 2023-11-25)"
   xmlns:inkscape="http://www.inkscape.org/namespaces/inkscape"
   xmlns:sodipodi="http://sodipodi.sourceforge.net/DTD/sodipodi-0.dtd"
   xmlns="http://www.w3.org/2000/svg"
   xmlns:svg="http://www.w3.org/2000/svg">
  <defs
     id="defs6" />
  <sodipodi:namedview
     id="namedview4"
     pagecolor="#ffffff"
     bordercolor="#000000"
     borderopacity="0.25"
     inkscape:showpageshadow="2"
     inkscape:pageopacity="0.0"
     inkscape:pagecheckerboard="0"
     inkscape:deskcolor="#d1d1d1"
     inkscape:zoom="0.13223473"
     inkscape:cx="555.82979"
     inkscape:cy="1213.7508"
     inkscape:window-width="1440"
     inkscape:window-height="900"
     inkscape:window-x="0"
     inkscape:window-y="0"
     inkscape:window-maximized="0"
     inkscape:current-layer="g8" />
  <g
     id="g8"
     inkscape:groupmode="layer"
     inkscape:label="ink_ext_XXXXXX"
     transform="matrix(1.3333333,0,0,-1.3333333,0,2800)">
    <g
       id="g10"
       transform="matrix(0.15922808,0,0,0.16114718,-917.97597,-646.67608)">
      <path
         d="m 8722.58,9387.1 c 287.75,0 521.02,-233.3 521.02,-521 0,-287.8 -233.27,-521 -521.02,-521 -287.75,0 -521.02,233.2 -521.02,521 0,287.7 233.27,521 521.02,521"
         style="fill:#44324d;fill-opacity:1;fill-rule:nonzero;stroke:none"
         id="path14" />
      <path
         d="m 12276.6,9386.9 c 287.5,0 520.7,-233.1 520.7,-520.7 0,-287.5 -233.2,-520.6 -520.7,-520.6 -287.6,0 -520.7,233.1 -520.7,520.6 0,287.6 233.1,520.7 520.7,520.7"
         style="fill:#44324d;fill-opacity:1;fill-rule:nonzero;stroke:none"
         id="path16" />
      <path
         d="m 10441,8492.1 c -0.2,-39.8 -4.8,-93.1 -13.8,-159.9 -10.6,-79.4 -41.8,-144.2 -93.7,-194.6 -42.8,-41.2 -90.7,-61.4 -143.7,-60.3 -48.5,0.9 -93.3,18 -134.5,51.5 -54.8,44.7 -83.09,106.4 -84.79,185.2 -0.11,5.6 2.21,10.7 6.28,13.9 39.41,31.3 64.21,19 74.11,-37.1 6.7,-37.3 22.8,-68.4 48.3,-93.1 25.4,-24.4 55.6,-36.8 90.8,-37 57,-0.3 98.6,30.2 125,91.8 29.4,68.6 44.2,145.8 44.4,231.6 0,5.4 -3.1,10.2 -8,12.2 -59.9,24.9 -96.5,62.3 -109.9,112.1 -11.4,42.8 -4.5,83 20.7,120.6 27,40.7 67.9,61.1 122.6,61.1 67.9,0 135.7,0 203.6,0 51.3,0 89,-6.5 113.1,-19.3 57.5,-30.9 84,-75.9 79.4,-135 -2.7,-33.7 -13.8,-62.5 -33.1,-86.4 -21,-26 -49.1,-42.7 -84.3,-50 -6.2,-1.3 -10.7,-6.6 -11,-12.9 -3.1,-77.2 8.1,-147.9 33.4,-212.2 18.8,-47.2 42.3,-80.1 70.5,-98.7 43.5,-28.4 90.3,-19.6 140.5,26.1 20.4,18.8 40.2,60.6 59.2,125.6 1.5,5.4 5,9.8 9.6,12.3 22.6,11.9 40.1,10 52.3,-5.7 7.8,-10 10.6,-24.1 8.5,-42.3 -7.2,-59.7 -30.6,-109.4 -70.4,-149 -35.8,-35.8 -76.1,-57.1 -121,-64.2 -50.6,-7.9 -97.9,5.7 -141.7,40.7 -52.2,41.7 -86.2,98.2 -102.1,169.6 -15.3,68.8 -23.3,136.4 -24.1,202.7 0,5.6 -4.5,10.2 -10,10.2 v 0 l -107.9,-0.7 c -4.5,0 -8.2,-3.9 -8.3,-8.8"
         style="fill:#42344b;fill-opacity:1;fill-rule:nonzero;stroke:none"
         id="path18" />
      <path
         d="m 9863.32,6597.3 c 102.78,-43 200.78,-94.9 293.88,-155.7 17.1,-11.2 14.2,-31.1 -8.8,-59.9 -5,-6.3 -13.6,-8.8 -21.3,-6.1 l -255.3,91.6 7.3,37.7 c 0.98,4.6 -0.05,10.2 -2.89,15.8 -12.1,23.8 -16.39,49.4 -12.89,76.6"
         style="fill:#f4977b;fill-opacity:1;fill-rule:nonzero;stroke:none"
         id="path20" />
      <path
         d="m 12883.3,14890.5 c -78.4,-276.8 -151.6,-507.3 -219.5,-691.6 -172,-466.3 -361.9,-925.2 -569.7,-1376.7 -33.5,-72.6 -80.3,-175.4 -140.4,-308.3 -89.1,-197.2 -183,-392.1 -281.7,-584.6 -4.9,-9.4 -9,-11 -12.3,-4.8 -1.2,2.3 -1.8,5.3 -1.7,9 1,24.9 0.6,49.8 -1,74.8 -36.4,583.2 -53.8,1166.9 -52.2,1751.1 1.1,405.3 21.4,809.5 60.7,1212.7 29.1,297.9 85.7,590.4 169.8,877.5 38.8,132.5 95.9,256.3 171.5,371.4 62.8,96 142.9,166.3 240.3,210.8 97.8,44.7 198.4,57.3 301.7,37.7 117.1,-22.2 215.9,-82.8 296.3,-182 38.3,-47.1 70.4,-104.8 96.3,-173 50.1,-131.4 73.6,-267.7 70.6,-408.9 -5.7,-260.4 -48.6,-532.1 -128.7,-815.1"
         style="fill:#ff9e7d;fill-opacity:1;fill-rule:nonzero;stroke:none"
         id="path22" />
      <path
         d="m 7993.29,16332.1 c 94.53,59.4 203.41,80.9 326.66,64.6 96.22,-12.6 181.92,-47.1 257.11,-103.4 56.99,-42.6 116.01,-110.1 177.07,-202.5 83.44,-126.1 149.13,-261.8 197.07,-407.2 132.18,-400.9 225.97,-824.2 281.37,-1270.2 45.68,-367.3 77.79,-688.5 96.34,-963.5 30.53,-455.8 52.86,-911.3 66.99,-1366.6 0.23,-7.9 -1.87,-8.5 -6.28,-2.1 -241.62,356.3 -472.84,719.1 -693.67,1088.5 -284.14,475.2 -526.44,956.2 -726.91,1443 -32.45,79 -65.13,168.8 -98.03,269.3 -39.46,120.6 -67.56,211.8 -84.29,273.8 -55.29,205.2 -81.07,411.1 -77.34,617.6 2.04,114.7 28.21,221.7 78.53,321.1 53.7,106.2 122.17,185.4 205.38,237.6"
         style="fill:#ff9e7d;fill-opacity:1;fill-rule:nonzero;stroke:none"
         id="path24" />
      <path
         d="m 11100.2,6457.2 c -3.2,4.1 -8.5,6 -13.5,4.6 -86,-22.6 -169.3,-51.3 -250,-86 -9.8,-4.2 -21.1,-0.5 -26.5,8.5 -14.8,24.1 -18.1,41.7 -9.8,52.9 0.1,0.2 12.1,7.8 36.1,22.7 113.2,70.5 224.4,128.9 333.8,175.2 32.9,13.9 70.7,21.2 113.4,21.9 47.4,0.9 83.1,-19.8 107.1,-62.2 20.9,-36.8 35.5,-68.4 43.9,-94.8 55.3,-174.4 74.2,-360.8 56.8,-559.2 -4.6,-53.4 -16.6,-100.8 -36,-142.1 -16.7,-35.8 -39.4,-58.2 -68,-67.2 -30.4,-9.6 -65.3,-8 -104.8,4.7 -28.7,9.2 -46.2,15.8 -52.6,19.7 -140.3,86.3 -275.6,179.8 -405.8,280.7 -11.5,8.9 -24.4,16.9 -38.5,23.8 -5.7,2.8 -8.1,9.7 -5.3,15.4 0.1,0.2 0.2,0.4 0.4,0.7 17.8,30.8 33.3,61.1 46.4,90.9 17.6,39.3 20.2,78.5 8,117.5 -1.7,5.8 1.5,11.8 7.1,13.6 81,25.4 156.6,54.3 226.8,86.6 0.4,0.3 8,3.1 22.5,8.7 29.8,11.4 32.6,32.6 8.5,63.4"
         style="fill:#ff9e7d;fill-opacity:1;fill-rule:nonzero;stroke:none"
         id="path26" />
      <path
         d="m 9863.32,6597.3 c -3.5,-27.2 0.79,-52.8 12.89,-76.6 2.84,-5.6 3.87,-11.2 2.89,-15.8 l -7.3,-37.7 c -42.28,-27.7 -41.72,-52.2 1.7,-73.6 80.16,-39.3 161.6,-73 244.2,-100.9 6.2,-2.1 9.9,-8.3 8.8,-14.6 -12.2,-75.5 8.7,-140.4 62.6,-194.7 4.8,-4.7 4.9,-12.4 0.2,-17.2 -0.5,-0.4 -1,-0.9 -1.5,-1.3 -129.7,-94.9 -256.58,-185.5 -380.62,-271.5 -37.08,-25.7 -79.37,-45.5 -126.86,-59.4 -47.15,-13.8 -86.16,-13.6 -117.02,0.4 -38.9,17.5 -66.09,51 -81.58,100.4 -15.04,47.8 -24.14,85.9 -27.31,114.3 -21.93,195.3 -2.94,386.1 56.99,572.6 8.14,25.4 24.03,54.7 47.66,88 27.13,38.1 69.19,52.5 126.18,43.1 61.85,-10.1 121.21,-28.6 178.08,-55.5"
         style="fill:#ff9e7d;fill-opacity:1;fill-rule:nonzero;stroke:none"
         id="path28" />
      <path
         d="m 10256.3,6122.3 c -20.2,10.5 -34,26.6 -41.4,48.3 -18.2,54.5 -17.4,106.6 2.4,156.4 15.7,39.4 42.1,72 79.2,97.7 36.5,25.2 77.3,40.5 122.3,46.1 63.3,7.8 126.2,2.4 188.7,-16.3 38.9,-11.6 69.9,-30.1 92.8,-55.3 26,-28.4 44.3,-61.1 54.8,-98.2 12.9,-45.2 10.5,-86.3 -7.1,-123.1 -19.7,-41.3 -54.1,-70.1 -103.2,-86.3 -134.5,-44.6 -264,-34.4 -388.5,30.7"
         style="fill:#ff9e7d;fill-opacity:1;fill-rule:nonzero;stroke:none"
         id="path30" />
      <path
         d="m 11236.1,4184.4 c 58.4,-53.5 116.7,-85.7 174.8,-96.5 217.2,-40.5 396.2,5 537,136.3 84,78.5 144.1,172.9 180.3,283.1 47.4,144.1 39.7,290.8 -22.9,440.3 -48.2,114.8 -123.7,200.7 -226.6,257.8 -97.3,54 -197.9,74.6 -301.6,61.6 -110.6,-13.8 -206.8,-66.5 -288.4,-157.9 -63.2,-70.9 -109.7,-151.7 -139.3,-242.2 -47.1,-144.4 -62.1,-292.3 -44.8,-443.7 10.2,-88.4 54,-168 131.5,-238.8 z m -2179.4,42.4 c 150.26,-134.3 320.71,-181.9 511.35,-142.8 62.07,12.8 114.53,33.2 157.39,61.2 50.31,32.9 90.06,74.9 119.23,125.9 33.24,58.2 50.59,136.7 52.06,235.5 1.81,126.7 -16.73,249.6 -55.62,368.9 -28.95,88.5 -73.95,166.4 -135.01,233.6 -64.33,70.6 -137.26,118.3 -218.78,143.1 -73.84,22.3 -149.14,25.3 -225.91,9.2 -70.22,-15 -136.42,-46 -198.61,-93.2 -83.44,-63.2 -144.39,-142.9 -182.83,-239.3 -35.95,-89.7 -48.9,-185.7 -38.84,-287.9 15.72,-161.8 87.57,-299.9 215.57,-414.2 z m 1516.5,1791.9 c 0.4,8.6 -6.3,15.9 -14.9,16.3 v 0 l -118.6,4.9 c -8.6,0.4 -15.9,-6.3 -16.2,-14.9 l -0.1,-1.7 c -0.4,-8.6 6.3,-15.9 14.9,-16.2 v 0 l 118.6,-5 c 8.6,-0.4 15.9,6.3 16.3,14.9 z m 923.7,-228.2 c 15.5,3.1 22.8,10.8 21.7,23.3 -0.5,6.8 -0.1,12.3 1.4,16.2 22.7,61.4 33,119.5 30.9,174.4 -2.6,64 -2.6,112 0,144.1 1.7,22 -2.3,52.8 -11.9,92.6 -0.9,4 -4.6,6.5 -8.2,5.8 -0.6,-0.2 -1.1,-0.4 -1.6,-0.7 -6.7,-3.8 -9.4,-9.6 -8,-17.3 2,-11.5 3,-17.9 3,-19.3 -1.1,-68.1 -1.9,-136.1 -2.5,-204.2 -0.6,-63.3 -12.1,-124.7 -34.6,-184 -3.5,-9.5 -4,-17.7 -1.5,-24.6 1.7,-4.6 6.5,-7.3 11.3,-6.3 z m -1240.6,331.8 c 124.5,-65.1 254,-75.3 388.5,-30.7 49.1,16.2 83.5,45 103.2,86.3 17.6,36.8 20,77.9 7.1,123.1 -10.5,37.1 -28.8,69.8 -54.8,98.2 -22.9,25.2 -53.9,43.7 -92.8,55.3 -62.5,18.7 -125.4,24.1 -188.7,16.3 -45,-5.6 -85.8,-20.9 -122.3,-46.1 -37.1,-25.7 -63.5,-58.3 -79.2,-97.7 -19.8,-49.8 -20.6,-101.9 -2.4,-156.4 7.4,-21.7 21.2,-37.8 41.4,-48.3 z m -384.5,344.9 255.3,-91.6 c 7.7,-2.7 16.3,-0.2 21.3,6.1 23,28.8 25.9,48.7 8.8,59.9 -93.1,60.8 -191.1,112.7 -293.88,155.7 -56.87,26.9 -116.23,45.4 -178.08,55.5 -56.99,9.4 -99.05,-5 -126.18,-43.1 -23.63,-33.3 -39.52,-62.6 -47.66,-88 -59.93,-186.5 -78.92,-377.3 -56.99,-572.6 3.17,-28.4 12.27,-66.5 27.31,-114.3 15.49,-49.4 42.68,-82.9 81.58,-100.4 30.86,-14 69.87,-14.2 117.02,-0.4 47.49,13.9 89.78,33.7 126.86,59.4 124.04,86 250.92,176.6 380.62,271.5 5.4,3.9 6.6,11.5 2.7,16.9 -0.4,0.6 -0.9,1.1 -1.4,1.6 -53.9,54.3 -74.8,119.2 -62.6,194.7 1.1,6.3 -2.6,12.5 -8.8,14.6 -82.6,27.9 -164.04,61.6 -244.2,100.9 -43.42,21.4 -43.98,45.9 -1.7,73.6 z m 1228.4,-10 c 24.1,-30.8 21.3,-52 -8.5,-63.4 -14.5,-5.6 -22.1,-8.4 -22.5,-8.7 -70.2,-32.3 -145.8,-61.2 -226.8,-86.6 -5.6,-1.8 -8.8,-7.8 -7.1,-13.6 12.2,-39 9.6,-78.2 -8,-117.5 -13.1,-29.8 -28.6,-60.1 -46.4,-90.9 -3.2,-5.6 -1.3,-12.6 4.2,-15.8 0.2,-0.1 0.5,-0.2 0.7,-0.3 14.1,-6.9 27,-14.9 38.5,-23.8 130.2,-100.9 265.5,-194.4 405.8,-280.7 6.4,-3.9 23.9,-10.5 52.6,-19.7 39.5,-12.7 74.4,-14.3 104.8,-4.7 28.6,9 51.3,31.4 68,67.2 19.4,41.3 31.4,88.7 36,142.1 17.4,198.4 -1.5,384.8 -56.8,559.2 -8.4,26.4 -23,58 -43.9,94.8 -24,42.4 -59.7,63.1 -107.1,62.2 -42.7,-0.7 -80.5,-8 -113.4,-21.9 -109.4,-46.3 -220.6,-104.7 -333.8,-175.2 -24,-14.9 -36,-22.5 -36.1,-22.7 -8.3,-11.2 -5,-28.8 9.8,-52.9 5.4,-9 16.7,-12.7 26.5,-8.5 80.7,34.7 164,63.4 250,86 5,1.4 10.3,-0.5 13.5,-4.6 z M 8026.7,4608.7 c 122.12,-108.3 261.19,-180 417.22,-215.2 36.3,-8.1 103.52,-19.2 201.66,-33.2 65.92,-9.4 133.7,-17.2 203.35,-23.3 6,-0.5 7.41,1.8 4.24,7 -63.99,105.5 -96.16,220.8 -96.5,346 -0.45,162.1 42.29,301.7 128.22,418.9 85.25,116.1 192.33,191.3 321.23,225.6 133.98,35.5 258.02,26.6 372.1,-26.5 77.45,-36.2 145.01,-88.1 202.68,-155.9 49.52,-58.2 91.02,-130.7 124.48,-217.6 73.72,-190.9 92.72,-395.3 56.99,-613.1 -0.94,-6.1 3.26,-11.8 9.37,-12.7 0.49,-0.1 0.99,-0.2 1.48,-0.2 316.38,-4.4 627.28,-5.9 932.78,-4.5 1.2,0 18.3,1.3 51.4,3.9 22.9,1.8 47.6,-0.3 74.3,-6.2 3.8,-0.8 7.5,1.6 8.3,5.3 0.2,1 0.2,2.1 0,3.1 -45,218 -30,423.9 45,617.8 40.9,105.7 91.8,190.5 152.8,254.3 73.1,76.5 161.7,127.8 265.6,154 91,22.8 182,22.6 273,-0.7 93.8,-24.1 176.5,-68.6 248.3,-133.5 124.4,-112.7 194.4,-257.6 210.2,-434.7 13.3,-150.8 -14.8,-291.3 -84.3,-421.5 -3.2,-5.9 -1.4,-8.8 5.4,-8.4 110.7,7 219,20 325,39.1 125.7,22.5 229.2,54.4 310.5,95.5 186.9,94.6 328.2,241.2 423.8,440 80.3,166.6 120.2,342.8 119.6,528.5 -0.6,194.9 -33,384.2 -97.3,567.8 -95.4,272 -234,525.6 -415.9,760.8 -5.4,7.1 -14.7,10.2 -23.4,7.8 -423.5,-119.5 -847.8,-203.2 -1273,-251 -5.4,-0.6 -9.3,-5.5 -8.7,-10.9 0.1,-0.5 0.2,-1.1 0.3,-1.6 40.3,-140.2 59.7,-282.8 58.2,-427.8 -0.8,-71.9 -3,-126.1 -6.8,-162.6 -6,-58.4 -19.2,-111.5 -39.7,-159.3 -27.3,-63.9 -72.2,-102.1 -134.5,-114.8 -38.7,-7.9 -85.5,-3.1 -140.2,14.6 -50.6,16.3 -94,37 -130.3,62.1 -139,96.6 -277.7,194.3 -416,293 -4.5,3.1 -10.1,4 -15.3,2.2 -139.3,-48.1 -275.8,-48.9 -409.7,-2.3 -5,1.8 -10.6,1 -14.9,-2.1 -138.4,-96.3 -276.38,-193.3 -413.88,-290.8 -33.01,-23.3 -73.38,-43.7 -121.09,-61.1 -47.49,-17.4 -91.42,-24.3 -131.78,-20.7 -112.16,10 -180.52,74.7 -205.05,194.2 -46.24,224.6 -36.69,449.3 28.66,674.2 2.14,7.6 -2.27,15.6 -9.84,17.7 -0.67,0.2 -1.34,0.3 -2.03,0.4 -402.75,49.5 -805.16,131.6 -1207.22,246.3 -7.12,2.1 -14.88,-0.5 -19.34,-6.6 -142.8,-194.7 -260.56,-399.1 -353.28,-613.1 -84.35,-195 -134.21,-398.4 -149.59,-610.4 -15.72,-215.7 20.41,-421.6 108.38,-617.7 55.51,-123.7 133.87,-230.4 235.06,-320.1 z m -163.49,3398.7 c 6.56,-10.3 6.9,-23.5 1.02,-39.5 -1.83,-5.1 -5.85,-9.2 -11.03,-11.2 -16.05,-6.5 -41.38,-12.8 -75.98,-18.9 -161.8,-28.3 -324.39,-87.6 -487.77,-177.9 -67.39,-37.2 -134.89,-74.4 -202.51,-111.6 -7.86,-4.3 -10.71,-14.2 -6.35,-22.1 0.08,-0.1 0.16,-0.3 0.25,-0.4 125.27,-211.3 294.93,-380.3 508.97,-507 132.63,-78.5 251.97,-135.9 358.03,-172.1 478.28,-163.3 976.28,-276.2 1494.02,-338.9 8.4,-1 16.6,2.9 21.03,10 69.43,109.3 166.83,143.5 292.23,102.8 167,-54.1 323.28,-129.8 468.98,-227.1 4,-2.7 9.3,-3 13.7,-0.7 155.8,82.3 314,86.1 474.7,11.2 13.6,-6.3 29.5,-5.1 41.9,3.1 112.5,73.9 228.3,134.8 347.4,182.5 83.2,33.2 147.6,48.4 193.1,45.4 76.6,-4.8 136.8,-44.9 180.8,-120.1 2.6,-4.5 7.6,-7.1 12.7,-6.6 508.1,45.9 1003.4,150.9 1486.1,314.8 128.2,43.4 251.9,97.2 370.9,161.3 235.7,126.8 429.1,306.1 580.4,538.2 3.2,4.9 1.9,11.6 -3.1,14.9 -195,126.5 -404.1,220.6 -627.1,282.2 -0.9,0.2 -25.2,5.1 -72.8,14.8 -24.7,4.8 -48.3,12.8 -71.1,23.9 -4.9,2.4 -8.3,7 -8.8,12.2 -4.1,40.2 16.5,56.3 61.6,48.3 182.9,-32.7 356.3,-92.8 520,-180.4 81.2,-43.6 162,-89.8 242.5,-138.6 4,-2.4 9.2,-1.1 11.6,2.9 0.1,0.1 0.1,0.1 0.1,0.1 71.4,126.6 124.6,258.3 159.6,395.4 1.2,4.6 -1.4,9.4 -5.9,11 -305.9,108.6 -620.3,174.3 -943.4,197.3 -11.6,0.8 -20.8,10.1 -21.7,21.7 -2.7,34 8.2,50.3 32.8,49 327.9,-18.7 646.1,-83.6 954.7,-194.9 3.9,-1.4 8.3,0.6 9.7,4.6 0.1,0.3 0.2,0.6 0.3,0.8 34.2,139.2 57,280.3 68.3,423.2 0.4,4.8 -3,9 -7.8,9.8 -307.6,52 -617.5,72 -929.4,59.9 -15.3,-0.7 -27.2,2.3 -35.8,9 -16,12.2 -18.9,26.5 -8.5,42.9 11.1,17.3 27,26.2 47.7,26.8 325.1,8.1 632.8,-12.1 923.3,-60.7 7.7,-1.3 14.9,3.9 16.3,11.6 0.1,0.7 0.1,1.3 0.1,1.9 15.1,566.3 -80.3,1111.9 -286.1,1636.9 -175.9,449 -425.9,851.8 -749.9,1208.4 -175.6,193.3 -371.1,363.9 -586.5,511.7 -81.2,55.6 -167.6,105.6 -259.2,150.1 -10.1,4.9 -14.5,17 -9.7,27.1 55,116.7 111.8,234.9 170.5,354.7 242.4,494.7 456.6,1001.4 642.5,1519.9 67.5,188.3 133,395.6 196.5,622.1 62.5,222.9 108.8,439.2 138.9,648.9 18.6,129.4 25.8,259.3 21.7,389.9 -6.3,203.7 -54.2,393.5 -143.6,569.4 -53.6,105.7 -118.5,197.7 -194.7,275.9 -142.3,146.2 -314,241 -515.3,284.3 -110.8,23.8 -223.1,28 -336.8,12.5 -265,-36 -488.4,-159.5 -670.1,-370.4 -113,-131 -200.3,-277.4 -262,-439.1 -51.5,-134.6 -92.7,-272.4 -123.8,-413.3 -42.6,-193.1 -74.2,-388 -94.9,-584.8 -37.2,-355.2 -57.6,-711.5 -61.3,-1068.6 -5,-479.4 2,-965.8 21,-1459.5 0.4,-9.7 -7.2,-17.9 -17,-18.3 -1.3,0 -2.7,0.1 -4,0.4 -401,79.3 -811.3,75.9 -1231.02,-10.2 -5.6,-1.1 -11.05,2.5 -12.18,8.1 -0.11,0.6 -0.18,1.1 -0.2,1.7 -15.37,557 -52.69,1113.1 -111.93,1668.4 -29.97,281.6 -71.92,561.5 -125.85,839.7 -31.88,164.5 -77,348.2 -135.34,551.2 -61.06,212.1 -136.64,407.7 -226.76,586.8 -66.26,131.6 -147.89,245.2 -244.9,340.7 -211.33,208 -461.26,314.3 -749.81,318.9 -119.4,2 -230.66,-14.3 -333.78,-49 -116.01,-38.9 -220.54,-97.8 -313.59,-176.6 -216.42,-183.4 -348.48,-419 -396.19,-706.9 -23.75,-143.5 -27.7,-283.4 -11.88,-419.9 25.44,-218.9 73.78,-438.6 145.01,-659.1 85.71,-265.4 187.41,-524.5 305.12,-777.4 220.25,-472.9 466.46,-931.8 738.61,-1376.7 93.85,-153.4 188.26,-306.2 283.24,-458.4 4.49,-7.3 2.26,-16.8 -4.98,-21.3 -0.26,-0.1 -0.52,-0.3 -0.79,-0.4 -274.98,-148.5 -523.11,-333 -744.38,-553.4 -315.69,-314.7 -570.48,-672.8 -764.4,-1074.3 -283.57,-587.4 -420.55,-1214.1 -410.94,-1880.2 0.14,-9.9 8.37,-17.9 18.39,-17.7 0.89,0 1.77,0.1 2.64,0.2 310.48,51.8 621.42,69.2 932.81,52.1 5.68,-0.3 10.97,-2.6 14.92,-6.3 29.85,-28.6 30.02,-48.6 0.51,-60 -11.08,-4.3 -27.3,-6.2 -48.67,-5.6 -293.53,7.7 -592.87,-12.2 -898.04,-59.6 -9.41,-1.4 -16.1,-9.9 -15.27,-19.5 13.01,-142.5 34.43,-278.1 64.28,-406.5 1.03,-4.7 5.65,-7.6 10.31,-6.6 0.36,0.1 0.71,0.2 1.05,0.3 311.39,108.1 627.14,170.4 947.23,186.9 27.25,1.4 41.38,-12.4 42.4,-41.2 0.67,-17.1 -12.6,-31.5 -29.68,-32.2 -319.53,-13.9 -631.99,-77.9 -937.39,-192 -6.43,-2.4 -9.92,-9.4 -7.97,-15.9 37.77,-132.8 91.87,-263.2 162.31,-391.1 2.24,-4.3 7.48,-5.9 11.7,-3.6 0.29,0.1 0.58,0.3 0.85,0.5 235.97,162.4 497.22,269 783.73,319.9 15.19,2.7 30.52,-3.9 38.84,-16.8 z m 231.51,-1199.8 c -119.07,43.2 -236.49,90.5 -352.27,141.8 -305.39,135.5 -549.62,346.5 -732.68,633.1 -3.4,5.4 -10.59,7 -16.05,3.5 -0.13,-0.1 -0.27,-0.2 -0.4,-0.3 -246.94,-173.7 -477.48,-391.5 -691.64,-653.3 -3.84,-4.6 -9.72,-7.2 -15.77,-6.7 -27.59,2 -40.65,12.9 -39.18,32.7 0.68,9.8 6.56,22.1 17.64,36.8 195.5,257.6 427.51,477 696.05,658.2 3.89,2.6 5.02,7.8 2.54,11.9 -73.94,126.2 -132,260.1 -174.18,401.6 -2.92,9.8 -13.29,15.3 -23.16,12.4 -0.48,-0.2 -0.96,-0.3 -1.43,-0.5 -332.99,-130.2 -636.69,-299.3 -911.1,-507.3 -11.02,-8.4 -26.62,-7.1 -36.3,2.9 -21.93,22.9 -22.72,42.2 -2.37,57.8 288.89,221.6 604.01,397.5 945.36,527.7 4.66,1.7 7.28,6.6 6.1,11.5 -35.39,143.5 -58.62,285.3 -69.7,425.5 -0.54,6.4 -6.11,11.1 -12.46,10.5 -0.43,0 -0.86,-0.1 -1.28,-0.1 -270.8,-54.8 -533.74,-132.9 -788.82,-234.6 -0.9,-0.3 -13.17,-6.4 -36.8,-18.1 -36.52,-18 -58.8,-5.6 -66.82,37.1 -0.95,5.1 1.16,10.3 5.42,13.4 25.44,19 53.09,34.3 82.94,45.8 255.64,99.3 521.35,174.7 797.13,226.4 8.89,1.7 15.23,9.5 14.92,18.5 -21.71,767.7 154.62,1488.7 528.99,2162.9 195.27,351.7 438.93,665.8 730.98,942.5 190.18,180.2 400.38,334 630.58,461.2 4.01,2.2 5.47,7.2 3.27,11.1 -0.07,0.1 -0.14,0.3 -0.21,0.4 -155.81,246.6 -305.96,493.5 -450.47,740.8 -238.23,407.6 -450.46,828.4 -636.68,1262.4 -107.42,250.3 -199.45,519.8 -276.11,808.4 -60.04,225.7 -88.31,448 -84.8,666.8 4.74,295.3 90.22,553.6 256.43,774.9 133.76,177.9 306.36,302.5 517.8,373.6 103.68,34.8 214.66,52.7 332.93,53.8 396.98,3.5 718.32,-158.1 964.01,-484.8 75.42,-100.1 141.4,-215.2 197.93,-345.1 55.85,-128.8 105.43,-260 148.74,-393.6 62.87,-194.1 120.81,-431.5 173.84,-712.4 46.25,-244.5 86.22,-528.7 119.91,-852.6 51.9,-498.9 85.42,-1000 100.57,-1503.3 0.11,-4.6 3.92,-8.2 8.51,-8.1 0.45,0 0.89,0 1.33,0.1 364.54,68.2 725.94,72.2 1084.14,12.1 3.8,-0.7 7.5,1.8 8.2,5.6 0,0.4 0.1,0.9 0.1,1.3 -6.5,216.3 -12,432.6 -16.5,648.9 -9.1,429.9 -2.2,859.5 20.9,1289 16.5,310.4 49.5,618.9 99,925.7 46.6,289.2 131.2,556.9 253.9,803.2 75.8,152.1 178.7,283.8 308.9,395.2 87.3,74.6 182.2,135 284.9,181.3 248.4,111.9 504.2,128.6 767.3,50.2 111.7,-33.3 213.2,-81.7 304.6,-145.2 75.8,-52.8 144.6,-113.9 206.2,-183.2 57.5,-64.8 108.8,-140 154.2,-225.7 114.6,-216.1 171.1,-446.3 169.2,-690.6 -1.1,-158.5 -19.8,-332.3 -56.1,-521.4 -42.4,-221.5 -96.4,-440.2 -162,-656 -82.6,-272.5 -175.6,-541.3 -279,-806.5 -192.1,-492.9 -410,-980.1 -653.8,-1461.4 -3.1,-6.3 -0.7,-13.9 5.5,-17.1 86.6,-47.7 171.9,-101.9 255.9,-162.9 441.2,-319.7 795.6,-717 1063.2,-1191.9 387.3,-687 567.2,-1425.9 539.9,-2216.7 -0.1,-4.4 2.8,-8.1 6.9,-8.8 297.9,-54.5 586.2,-141.2 864.8,-260 20.8,-8.9 26.8,-23.7 18,-44.7 -10.6,-25.3 -27.8,-33 -51.4,-23.2 -267,111.2 -544.8,195.8 -833.6,254.1 -4.6,0.9 -9.1,-2.1 -10.1,-6.7 0,-0.2 0,-0.4 -0.1,-0.6 l -67.3,-441.7 c -0.8,-4.9 1.9,-9.6 6.3,-11.2 329.5,-124.7 635.2,-292.1 917.3,-502.3 14.5,-10.9 24.1,-20.1 28.7,-27.7 11.7,-19.2 4.5,-33.9 -21.4,-44.1 -11.6,-4.6 -24.7,-2.9 -34.7,4.5 -286,209.8 -585.7,373.4 -899.1,490.8 -9.9,3.7 -20.9,-1.3 -24.7,-11.2 -0.1,-0.4 -0.3,-0.8 -0.4,-1.2 -41.9,-134.6 -97.7,-263.8 -167.2,-387.9 -4.6,-8.2 -2.3,-18.5 5.2,-24.1 59.6,-43.7 114.9,-84.6 165.9,-122.6 209,-155.7 391.5,-337.3 547.5,-544.7 7,-9.3 6.2,-22.4 -1.9,-30.9 -21.3,-22.4 -39.4,-24.4 -54.2,-5.9 -198,247.1 -429.6,459.7 -694.7,637.8 -7.3,4.9 -17.2,3 -22.1,-4.2 v 0 c -182.1,-268.9 -415.5,-470.9 -699.9,-606 -126.4,-60 -252.8,-109.9 -379.1,-149.6 -8.1,-2.6 -12.6,-11.3 -9.9,-19.4 0.5,-1.6 1.3,-3.2 2.3,-4.5 190.2,-252.7 332.9,-526.8 428.2,-822.2 53.2,-164.9 79.3,-344.4 78.5,-538.5 -0.7,-222.9 -53.2,-428 -157.3,-615.3 -57.6,-103.6 -127,-192.1 -208.3,-265.6 -158.8,-143.5 -351.4,-230.1 -577.8,-259.7 -145.5,-19 -268.1,-31.9 -368.1,-38.7 -5.3,-0.3 -10.3,-2.9 -13.7,-7.1 -94.2,-111.1 -205.8,-187.7 -334.8,-229.8 -110.4,-36 -222.6,-41.2 -336.7,-15.8 -69.3,15.5 -130.5,41 -183.5,76.5 -54.8,36.5 -103.7,83 -146.5,139.4 -3.7,4.8 -9.4,7.7 -15.6,7.7 l -1139.75,3 c -5.42,0 -10.43,-2.5 -13.4,-6.8 -83.55,-117.9 -196.91,-190.9 -340.05,-218.9 -153.89,-30.1 -299.63,-8.4 -437.23,65.1 -85.6,45.7 -162.03,106.6 -229.3,182.7 -4.78,5.4 -11.64,8.6 -19,9 -144.84,5.2 -289.23,22.5 -433.16,52 -315.69,64.6 -550.08,234.1 -703.17,508.5 -80.39,144.3 -130.09,299.6 -149.08,465.9 -11.54,100.8 -10.63,213.6 2.71,338.2 31.43,293.2 122.11,569.2 272.04,828 68.3,117.8 140.04,233.6 215.23,347.3 2.04,3.2 1.21,7.3 -1.84,9.3 -0.44,0.3 -0.9,0.5 -1.38,0.7"
         style="fill:#443b4e;fill-opacity:1;fill-rule:nonzero;stroke:none"
         id="path32" />
      <path
         d="m 11496.9,5790.5 c -4.8,-1 -9.6,1.7 -11.3,6.3 -2.5,6.9 -2,15.1 1.5,24.6 22.5,59.3 34,120.7 34.6,184 0.6,68.1 1.4,136.1 2.5,204.2 0,1.4 -1,7.8 -3,19.3 -1.4,7.7 1.3,13.5 8,17.3 3.2,1.8 7.3,0.3 9.1,-3.2 0.3,-0.6 0.5,-1.2 0.7,-1.9 9.6,-39.8 13.6,-70.6 11.9,-92.6 -2.6,-32.1 -2.6,-80.1 0,-144.1 2.1,-54.9 -8.2,-113 -30.9,-174.4 -1.5,-3.9 -1.9,-9.4 -1.4,-16.2 1.1,-12.5 -6.2,-20.2 -21.7,-23.3"
         style="fill:#443b4e;fill-opacity:1;fill-rule:nonzero;stroke:none"
         id="path34" />
      <path
         d="m 10439.7,6039.9 118.6,-4.9 c 8.6,-0.4 15.3,-7.7 14.9,-16.3 v -1.7 c -0.4,-8.6 -7.7,-15.3 -16.3,-14.9 l -118.6,5 c -8.6,0.3 -15.3,7.6 -14.9,16.2 v 1.7 c 0.4,8.6 7.7,15.3 16.3,14.9"
         style="fill:#443b4e;fill-opacity:1;fill-rule:nonzero;stroke:none"
         id="path36" />
      <path
         d="m 10449.3,8500.9 107.9,0.7 c 5.5,0 10,-4.6 10,-10.2 v 0 c 0.8,-66.3 8.8,-133.9 24.1,-202.7 15.9,-71.4 49.9,-127.9 102.1,-169.6 43.8,-35 91.1,-48.6 141.7,-40.7 44.9,7.1 85.2,28.4 121,64.2 39.8,39.6 63.2,89.3 70.4,149 2.1,18.2 -0.7,32.3 -8.5,42.3 -12.2,15.7 -29.7,17.6 -52.3,5.7 -4.6,-2.5 -8.1,-6.9 -9.6,-12.3 -19,-65 -38.8,-106.8 -59.2,-125.6 -50.2,-45.7 -97,-54.5 -140.5,-26.1 -28.2,18.6 -51.7,51.5 -70.5,98.7 -25.3,64.3 -36.5,135 -33.4,212.2 0.3,6.3 4.8,11.6 11,12.9 35.2,7.3 63.3,24 84.3,50 19.3,23.9 30.4,52.7 33.1,86.4 4.6,59.1 -21.9,104.1 -79.4,135 -24.1,12.8 -61.8,19.3 -113.1,19.3 -67.9,0 -135.7,0 -203.6,0 -54.7,0 -95.6,-20.4 -122.6,-61.1 -25.2,-37.6 -32.1,-77.8 -20.7,-120.6 13.4,-49.8 50,-87.2 109.9,-112.1 4.9,-2 8,-6.8 8,-12.2 -0.2,-85.8 -15,-163 -44.4,-231.6 -26.4,-61.6 -68,-92.1 -125,-91.8 -35.2,0.2 -65.4,12.6 -90.8,37 -25.5,24.7 -41.6,55.8 -48.3,93.1 -9.9,56.1 -34.7,68.4 -74.11,37.1 -4.07,-3.2 -6.39,-8.3 -6.28,-13.9 1.7,-78.8 29.99,-140.5 84.79,-185.2 41.2,-33.5 86,-50.6 134.5,-51.5 53,-1.1 100.9,19.1 143.7,60.3 51.9,50.4 83.1,115.2 93.7,194.6 9,66.8 13.6,120.1 13.8,159.9 0.1,4.9 3.8,8.8 8.3,8.8 z m 2348,365.3 c 0,287.6 -233.2,520.7 -520.7,520.7 v 0 c -287.6,0 -520.7,-233.1 -520.7,-520.7 0,-287.5 233.1,-520.6 520.7,-520.6 287.5,0 520.7,233.1 520.7,520.6 z m -3553.7,-0.1 c 0,287.7 -233.27,521 -521.02,521 v 0 c -287.75,0 -521.02,-233.3 -521.02,-521 v 0 c 0,-287.8 233.27,-521 521.02,-521 287.75,0 521.02,233.2 521.02,521 z m -1455.69,7228.4 c -50.32,-99.4 -76.49,-206.4 -78.53,-321.1 -3.73,-206.5 22.05,-412.4 77.34,-617.6 16.73,-62 44.83,-153.2 84.29,-273.8 32.9,-100.5 65.58,-190.3 98.03,-269.3 200.47,-486.8 442.77,-967.8 726.91,-1443 220.83,-369.4 452.05,-732.2 693.67,-1088.5 4.41,-6.4 6.51,-5.8 6.28,2.1 -14.13,455.3 -36.46,910.8 -66.99,1366.6 -18.55,275 -50.66,596.2 -96.34,963.5 -55.4,446 -149.19,869.3 -281.37,1270.2 -47.94,145.4 -113.63,281.1 -197.07,407.2 -61.06,92.4 -120.08,159.9 -177.07,202.5 -75.19,56.3 -160.89,90.8 -257.11,103.4 -123.25,16.3 -232.13,-5.2 -326.66,-64.6 -83.21,-52.2 -151.68,-131.4 -205.38,-237.6 z m 5095.39,-1204 c 80.1,283 123,554.7 128.7,815.1 3,141.2 -20.5,277.5 -70.6,408.9 -25.9,68.2 -58,125.9 -96.3,173 -80.4,99.2 -179.2,159.8 -296.3,182 -103.3,19.6 -203.9,7 -301.7,-37.7 -97.4,-44.5 -177.5,-114.8 -240.3,-210.8 -75.6,-115.1 -132.7,-238.9 -171.5,-371.4 -84.1,-287.1 -140.7,-579.6 -169.8,-877.5 -39.3,-403.2 -59.6,-807.4 -60.7,-1212.7 -1.6,-584.2 15.8,-1167.9 52.2,-1751.1 1.6,-25 2,-49.9 1,-74.8 -0.1,-3.7 0.5,-6.7 1.7,-9 3.3,-6.2 7.4,-4.6 12.3,4.8 98.7,192.5 192.6,387.4 281.7,584.6 60.1,132.9 106.9,235.7 140.4,308.3 207.8,451.5 397.7,910.4 569.7,1376.7 67.9,184.3 141.1,414.8 219.5,691.6 z M 7863.21,8007.4 c -8.32,12.9 -23.65,19.5 -38.84,16.8 -286.51,-50.9 -547.76,-157.5 -783.73,-319.9 -3.93,-2.7 -9.32,-1.7 -12.03,2.2 -0.19,0.3 -0.36,0.6 -0.52,0.9 -70.44,127.9 -124.54,258.3 -162.31,391.1 -1.95,6.5 1.54,13.5 7.97,15.9 305.4,114.1 617.86,178.1 937.39,192 17.08,0.7 30.35,15.1 29.68,32.2 -1.02,28.8 -15.15,42.6 -42.4,41.2 -320.09,-16.5 -635.84,-78.8 -947.23,-186.9 -4.49,-1.6 -9.44,0.8 -11.06,5.3 -0.12,0.3 -0.22,0.6 -0.3,1 -29.85,128.4 -51.27,264 -64.28,406.5 -0.83,9.6 5.86,18.1 15.27,19.5 305.17,47.4 604.51,67.3 898.04,59.6 21.37,-0.6 37.59,1.3 48.67,5.6 29.51,11.4 29.34,31.4 -0.51,60 -3.95,3.7 -9.24,6 -14.92,6.3 -311.39,17.1 -622.33,-0.3 -932.81,-52.1 -9.89,-1.6 -19.21,5.1 -20.8,14.9 -0.14,0.8 -0.22,1.7 -0.23,2.6 -9.61,666.1 127.37,1292.8 410.94,1880.2 193.92,401.5 448.71,759.6 764.4,1074.3 221.27,220.4 469.4,404.9 744.38,553.4 7.5,4 10.28,13.4 6.23,20.9 -0.15,0.2 -0.3,0.5 -0.46,0.8 -94.98,152.2 -189.39,305 -283.24,458.4 -272.15,444.9 -518.36,903.8 -738.61,1376.7 -117.71,252.9 -219.41,512 -305.12,777.4 -71.23,220.5 -119.57,440.2 -145.01,659.1 -15.82,136.5 -11.87,276.4 11.88,419.9 47.71,287.9 179.77,523.5 396.19,706.9 93.05,78.8 197.58,137.7 313.59,176.6 103.12,34.7 214.38,51 333.78,49 288.55,-4.6 538.48,-110.9 749.81,-318.9 97.01,-95.5 178.64,-209.1 244.9,-340.7 90.12,-179.1 165.7,-374.7 226.76,-586.8 58.34,-203 103.46,-386.7 135.34,-551.2 53.93,-278.2 95.88,-558.1 125.85,-839.7 59.24,-555.3 96.56,-1111.4 111.93,-1668.4 0.17,-5.7 4.94,-10.2 10.65,-10 0.58,0 1.16,0.1 1.73,0.2 419.72,86.1 830.02,89.5 1231.02,10.2 9.5,-1.9 18.8,4.3 20.7,13.9 0.2,1.3 0.3,2.7 0.3,4 -19,493.7 -26,980.1 -21,1459.5 3.7,357.1 24.1,713.4 61.3,1068.6 20.7,196.8 52.3,391.7 94.9,584.8 31.1,140.9 72.3,278.7 123.8,413.3 61.7,161.7 149,308.1 262,439.1 181.7,210.9 405.1,334.4 670.1,370.4 113.7,15.5 226,11.3 336.8,-12.5 201.3,-43.3 373,-138.1 515.3,-284.3 76.2,-78.2 141.1,-170.2 194.7,-275.9 89.4,-175.9 137.3,-365.7 143.6,-569.4 4.1,-130.6 -3.1,-260.5 -21.7,-389.9 -30.1,-209.7 -76.4,-426 -138.9,-648.9 -63.5,-226.5 -129,-433.8 -196.5,-622.1 -185.9,-518.5 -400.1,-1025.2 -642.5,-1519.9 -58.7,-119.8 -115.5,-238 -170.5,-354.7 -4.8,-10.1 -0.4,-22.2 9.7,-27.1 91.6,-44.5 178,-94.5 259.2,-150.1 215.4,-147.8 410.9,-318.4 586.5,-511.7 324,-356.6 574,-759.4 749.9,-1208.4 205.8,-525 301.2,-1070.6 286.1,-1636.9 -0.2,-7.8 -6.8,-14 -14.5,-13.7 -0.7,0 -1.3,0.1 -1.9,0.2 -290.5,48.6 -598.2,68.8 -923.3,60.7 -20.7,-0.6 -36.6,-9.5 -47.7,-26.8 -10.4,-16.4 -7.5,-30.7 8.5,-42.9 8.6,-6.7 20.5,-9.7 35.8,-9 311.9,12.1 621.8,-7.9 929.4,-59.9 4.8,-0.8 8.2,-5 7.8,-9.8 -11.3,-142.9 -34.1,-284 -68.3,-423.2 -1,-4.1 -5.1,-6.6 -9.2,-5.6 -0.3,0 -0.6,0.1 -0.8,0.2 -308.6,111.3 -626.8,176.2 -954.7,194.9 -24.6,1.3 -35.5,-15 -32.8,-49 0.9,-11.6 10.1,-20.9 21.7,-21.7 323.1,-23 637.5,-88.7 943.4,-197.3 4.5,-1.6 7.1,-6.4 5.9,-11 -35,-137.1 -88.2,-268.8 -159.6,-395.4 -2.3,-4 -7.5,-5.4 -11.6,-3.1 0,0 0,0.1 -0.1,0.1 -80.5,48.8 -161.3,95 -242.5,138.6 -163.7,87.6 -337.1,147.7 -520,180.4 -45.1,8 -65.7,-8.1 -61.6,-48.3 0.5,-5.2 3.9,-9.8 8.8,-12.2 22.8,-11.1 46.4,-19.1 71.1,-23.9 47.6,-9.7 71.9,-14.6 72.8,-14.8 223,-61.6 432.1,-155.7 627.1,-282.2 5,-3.3 6.3,-10 3.1,-14.9 -151.3,-232.1 -344.7,-411.4 -580.4,-538.2 -119,-64.1 -242.7,-117.9 -370.9,-161.3 -482.7,-163.9 -978,-268.9 -1486.1,-314.8 -5.1,-0.5 -10.1,2.1 -12.7,6.6 -44,75.2 -104.2,115.3 -180.8,120.1 -45.5,3 -109.9,-12.2 -193.1,-45.4 -119.1,-47.7 -234.9,-108.6 -347.4,-182.5 -12.4,-8.2 -28.3,-9.4 -41.9,-3.1 -160.7,74.9 -318.9,71.1 -474.7,-11.2 -4.4,-2.3 -9.7,-2 -13.7,0.7 -145.7,97.3 -301.98,173 -468.98,227.1 -125.4,40.7 -222.8,6.5 -292.23,-102.8 -4.43,-7.1 -12.63,-11 -21.03,-10 -517.74,62.7 -1015.74,175.6 -1494.02,338.9 -106.06,36.2 -225.4,93.6 -358.03,172.1 -214.04,126.7 -383.7,295.7 -508.97,507 -4.6,7.7 -2.05,17.7 5.68,22.3 0.14,0.1 0.28,0.2 0.42,0.2 67.62,37.2 135.12,74.4 202.51,111.6 163.38,90.3 325.97,149.6 487.77,177.9 34.6,6.1 59.93,12.4 75.98,18.9 5.18,2 9.2,6.1 11.03,11.2 5.88,16 5.54,29.2 -1.02,39.5"
         style="fill:#fefcfd;fill-opacity:1;fill-rule:nonzero;stroke:none"
         id="path38" />
      <path
         d="m 8026.7,4608.7 c -101.19,89.7 -179.55,196.4 -235.06,320.1 -87.97,196.1 -124.1,402 -108.38,617.7 15.38,212 65.24,415.4 149.59,610.4 92.72,214 210.48,418.4 353.28,613.1 4.46,6.1 12.22,8.7 19.34,6.6 402.06,-114.7 804.47,-196.8 1207.22,-246.3 7.81,-1 13.31,-8.2 12.29,-16.1 -0.09,-0.7 -0.23,-1.4 -0.42,-2 -65.35,-224.9 -74.9,-449.6 -28.66,-674.2 24.53,-119.5 92.89,-184.2 205.05,-194.2 40.36,-3.6 84.29,3.3 131.78,20.7 47.71,17.4 88.08,37.8 121.09,61.1 137.5,97.5 275.48,194.5 413.88,290.8 4.3,3.1 9.9,3.9 14.9,2.1 133.9,-46.6 270.4,-45.8 409.7,2.3 5.2,1.8 10.8,0.9 15.3,-2.2 138.3,-98.7 277,-196.4 416,-293 36.3,-25.1 79.7,-45.8 130.3,-62.1 54.7,-17.7 101.5,-22.5 140.2,-14.6 62.3,12.7 107.2,50.9 134.5,114.8 20.5,47.8 33.7,100.9 39.7,159.3 3.8,36.5 6,90.7 6.8,162.6 1.5,145 -17.9,287.6 -58.2,427.8 -1.5,5.2 1.5,10.6 6.7,12.2 0.5,0.1 1.1,0.2 1.7,0.3 425.2,47.8 849.5,131.5 1273,251 8.7,2.4 18,-0.7 23.4,-7.8 181.9,-235.2 320.5,-488.8 415.9,-760.8 64.3,-183.6 96.7,-372.9 97.3,-567.8 0.6,-185.7 -39.3,-361.9 -119.6,-528.5 -95.6,-198.8 -236.9,-345.4 -423.8,-440 -81.3,-41.1 -184.8,-73 -310.5,-95.5 -106,-19.1 -214.3,-32.1 -325,-39.1 -6.8,-0.4 -8.6,2.5 -5.4,8.4 69.5,130.2 97.6,270.7 84.3,421.5 -15.8,177.1 -85.8,322 -210.2,434.7 -71.8,64.9 -154.5,109.4 -248.3,133.5 -91,23.3 -182,23.5 -273,0.7 -103.9,-26.2 -192.5,-77.5 -265.6,-154 -61,-63.8 -111.9,-148.6 -152.8,-254.3 -75,-193.9 -90,-399.8 -45,-617.8 0.9,-3.8 -1.5,-7.5 -5.2,-8.4 -1,-0.2 -2.1,-0.2 -3.1,0 -26.7,5.9 -51.4,8 -74.3,6.2 -33.1,-2.6 -50.2,-3.9 -51.4,-3.9 -305.5,-1.4 -616.4,0.1 -932.78,4.5 -6.18,0.1 -11.09,5.3 -10.98,11.4 0.01,0.5 0.05,1 0.13,1.5 35.73,217.8 16.73,422.2 -56.99,613.1 -33.46,86.9 -74.96,159.4 -124.48,217.6 -57.67,67.8 -125.23,119.7 -202.68,155.9 -114.08,53.1 -238.12,62 -372.1,26.5 -128.9,-34.3 -235.98,-109.5 -321.23,-225.6 -85.93,-117.2 -128.67,-256.8 -128.22,-418.9 0.34,-125.2 32.51,-240.5 96.5,-346 3.17,-5.2 1.76,-7.5 -4.24,-7 -69.65,6.1 -137.43,13.9 -203.35,23.3 -98.14,14 -165.36,25.1 -201.66,33.2 -156.03,35.2 -295.1,106.9 -417.22,215.2"
         style="fill:#fefcfd;fill-opacity:1;fill-rule:nonzero;stroke:none"
         id="path40" />
      <path
         d="m 9056.7,4226.8 c -128,114.3 -199.85,252.4 -215.57,414.2 -10.06,102.2 2.89,198.2 38.84,287.9 38.44,96.4 99.39,176.1 182.83,239.3 62.19,47.2 128.39,78.2 198.61,93.2 76.77,16.1 152.07,13.1 225.91,-9.2 81.52,-24.8 154.45,-72.5 218.78,-143.1 61.06,-67.2 106.06,-145.1 135.01,-233.6 38.89,-119.3 57.43,-242.2 55.62,-368.9 -1.47,-98.8 -18.82,-177.3 -52.06,-235.5 -29.17,-51 -68.92,-93 -119.23,-125.9 -42.86,-28 -95.32,-48.4 -157.39,-61.2 -190.64,-39.1 -361.09,8.5 -511.35,142.8"
         style="fill:#fefcfd;fill-opacity:1;fill-rule:nonzero;stroke:none"
         id="path42" />
      <path
         d="m 11236.1,4184.4 c -77.5,70.8 -121.3,150.4 -131.5,238.8 -17.3,151.4 -2.3,299.3 44.8,443.7 29.6,90.5 76.1,171.3 139.3,242.2 81.6,91.4 177.8,144.1 288.4,157.9 103.7,13 204.3,-7.6 301.6,-61.6 102.9,-57.1 178.4,-143 226.6,-257.8 62.6,-149.5 70.3,-296.2 22.9,-440.3 -36.2,-110.2 -96.3,-204.6 -180.3,-283.1 -140.8,-131.3 -319.8,-176.8 -537,-136.3 -58.1,10.8 -116.4,43 -174.8,96.5"
         style="fill:#fefcfd;fill-opacity:1;fill-rule:nonzero;stroke:none"
         id="path44" />
    </g>
  </g>
</svg>
