<?xml version="1.0" encoding="UTF-8" standalone="no"?>
<!-- Created with Inkscape (http://www.inkscape.org/) -->

<svg
   width="210mm"
   height="297mm"
   viewBox="0 0 1050 1485"
   version="1.1"
   id="svg1"
   inkscape:version="1.3.2 (091e20e, 2023-11-25)"
   sodipodi:docname="rysunek-1.svg"
   xmlns:inkscape="http://www.inkscape.org/namespaces/inkscape"
   xmlns:sodipodi="http://sodipodi.sourceforge.net/DTD/sodipodi-0.dtd"
   xmlns="http://www.w3.org/2000/svg"
   xmlns:svg="http://www.w3.org/2000/svg">
  <sodipodi:namedview
     id="namedview1"
     pagecolor="#ffffff"
     bordercolor="#000000"
     borderopacity="0.25"
     inkscape:showpageshadow="true"
     inkscape:pageopacity="0.0"
     inkscape:pagecheckerboard="false"
     inkscape:deskcolor="#d1d1d1"
     inkscape:document-units="mm"
     inkscape:clip-to-page="false"
     showborder="true"
     inkscape:zoom="0.50719895"
     inkscape:cx="369.67742"
     inkscape:cy="553.03742"
     inkscape:window-width="1440"
     inkscape:window-height="872"
     inkscape:window-x="0"
     inkscape:window-y="28"
     inkscape:window-maximized="0"
     inkscape:current-layer="layer1" />
  <defs
     id="defs1" />
  <g
     inkscape:label="Warstwa 1"
     inkscape:groupmode="layer"
     id="layer1">
    <path
       d="m 438.04274,936.2387 c 14.7988,-22.44422 13.70239,-54.48238 -2.64272,-76.19124 -7.76579,-10.18921 -18.09838,-17.40214 -29.09021,-20.22663 -16.41754,-4.23672 -36.12896,0.44334 -52.68916,12.41843 -16.48891,11.9632 -27.11255,29.13189 -28.50581,46.00884 -0.14347,1.56398 -0.22112,3.12795 -0.22112,4.6919 0,25.94562 17.43689,50.61914 42.20937,58.64897 5.9365,2.00754 12.09282,2.89466 18.25023,2.89466 20.58698,0 40.95991,-10.39934 52.68922,-28.24493 z m 326.31345,2.53269 c 14.79881,-22.45584 13.62528,-54.49404 -2.71518,-76.13291 -7.69796,-10.25921 -18.03057,-17.4605 -29.01314,-20.28497 -16.41754,-4.24837 -36.12895,0.44331 -52.77088,12.47679 -16.40718,11.9049 -27.1079,29.07359 -28.50118,45.95048 -2.26994,27.57958 15.82852,54.8675 42.06436,63.411 5.71221,1.85572 11.7258,2.75442 17.73028,2.75442 20.66402,0 41.62369,-10.49264 53.20574,-28.17481 z M 1026.0337,819.74594 c 0.068,5.64896 0.1495,11.29801 0.1495,16.87689 0,56.34977 -4.1072,109.72324 -11.9421,159.9105 -17.15389,-10.34085 -28.44031,-30.33412 -35.18213,-46.83756 -3.30202,-8.02994 -6.30471,-16.58505 -9.15796,-24.83683 -6.22416,-17.98564 -12.67841,-36.64831 -23.59661,-53.37348 -16.41755,-25.12859 -48.94206,-47.42109 -81.55855,-37.16188 -28.06057,8.76526 -42.64883,36.71836 -54.15378,62.2905 l -47.12189,104.89132 c -5.86066,13.0836 -11.94098,26.5408 -21.03222,36.8 -9.01061,10.1075 -20.58809,15.6865 -30.77106,14.8695 -17.37018,-1.4122 -30.63194,-19.5497 -42.35774,-38.9476 l -55.7668,-91.88935 c -8.86224,-14.56596 -35.68366,-58.64902 -74.81774,-50.92249 -20.07614,4.01492 -33.49087,20.51835 -44.04322,36.13479 -19.63432,29.2136 -36.34406,60.5748 -49.60584,93.21995 -1.17236,2.8944 -2.27336,5.789 -3.44224,8.6251 -5.94122,15.0095 -11.50496,29.2136 -20.30509,41.1069 -8.28245,11.4496 -23.0099,23.3428 -38.90969,22.5258 -24.40317,-1.1204 -41.32803,-29.6687 -53.27367,-54.3421 L 273.38272,903.67534 C 266.19677,888.95762 258.13869,872.30245 245.68114,858.92701 230.73276,842.79703 211.67832,834.4636 193.50392,835.95755 167.856,838.03505 149.09721,858.2617 134.22241,877.8114 99.563824,923.22495 69.147052,972.07001 43.432359,1023.2143 32.583176,965.45234 26.866417,903.08009 26.866417,836.62283 c 0,-5.64897 0.07705,-11.29794 0.14877,-16.94689 0.804221,-39.77634 4.39947,-79.98443 10.476412,-120.35597 64.485201,39.40275 139.160291,57.16671 198.078241,68.24291 89.32433,16.79524 179.53455,25.19866 269.66427,25.19866 173.5267,0 346.39652,-31.06937 510.53739,-92.33276 5.9365,39.99799 9.4571,79.92606 10.2624,119.31716"
       style="fill:#fbc434;fill-opacity:1;fill-rule:nonzero;stroke:none;stroke-width:1.15879"
       id="path428" />
    <path
       d="m 993.86584,593.52998 c 7.32876,28.10481 13.40326,56.2797 18.24696,84.52459 C 765.37552,770.98261 498.34933,794.32552 239.52385,745.63229 180.16987,734.47434 104.47081,716.3486 41.454807,675.45182 46.874794,644.38245 53.687976,613.23135 62.041725,582.38369 224.28438,628.10081 389.52869,651.0702 553.08753,651.0702 c 149.63553,0 297.73746,-19.17619 440.77831,-57.54022"
       style="fill:#f7913b;fill-opacity:1;fill-rule:nonzero;stroke:none;stroke-width:1.15879"
       id="path430" />
    <path
       d="m 263.56337,1113.2479 c 14.80345,-22.456 13.62536,-54.4941 -2.71511,-76.1212 -7.69339,-10.2709 -18.02594,-17.4722 -29.01776,-20.3084 -16.41754,-4.155 -36.12895,0.4552 -52.7617,12.5002 -16.41636,11.8932 -27.11252,29.0618 -28.5058,45.9388 -0.14348,1.5523 -0.22111,3.1162 -0.22111,4.6803 0,26.0273 17.51398,50.7007 42.28065,58.7307 5.93768,1.9374 12.094,2.8945 18.17894,2.8945 20.58811,0 41.03121,-10.481 52.76163,-28.3149 z m 348.95405,18.0557 c 14.80342,-22.4443 13.63107,-54.494 -2.70939,-76.1212 -7.69914,-10.2592 -18.02592,-17.4722 -29.02355,-20.2967 -16.41175,-4.1549 -36.12316,0.4553 -52.68915,12.4885 -16.48428,11.9049 -27.10791,29.0735 -28.50118,45.9504 -0.14348,1.5524 -0.22113,3.1162 -0.22113,4.6803 0,26.0156 17.43806,50.7008 42.20938,58.7307 5.93655,1.9258 12.09397,2.8947 18.25028,2.8947 20.5881,0 40.95985,-10.4811 52.68454,-28.3267 z m 317.73765,-32.2599 c 14.80688,-22.526 13.63343,-54.4941 -2.7036,-76.2029 -7.6968,-10.2475 -18.02829,-17.3904 -29.02697,-20.215 -16.41754,-4.23665 -36.1255,0.4434 -52.69261,12.4068 -16.48663,11.9049 -27.10569,29.1552 -28.49779,46.0205 -0.14942,1.564 -0.2185,3.128 -0.2185,4.6919 0,25.934 17.44144,50.6191 42.2001,58.649 5.93657,1.9375 12.10318,2.9062 18.25831,2.9062 20.58236,0 40.95764,-10.4925 52.68117,-28.2565 z m 28.50931,-140.80431 c 9.0083,22.01228 25.05774,49.28851 51.58812,61.33341 -9.7447,53.0117 -23.96481,102.0668 -42.51071,146.7451 -0.28768,0.082 -0.6559,0.082 -1.01247,0.2216 -277.73616,97.9819 -591.003,97.3866 -882.289658,-1.7039 C 70.908588,1131.7469 59.695854,1096.149 50.901516,1058.4502 78.310896,999.276 112.1699,943.14798 151.5916,891.49023 c 12.60133,-16.50344 26.60053,-31.96817 43.66929,-33.31034 11.36113,-0.88706 24.25927,5.06536 34.44349,16.05991 10.18302,10.93613 17.14467,25.35034 23.89115,39.33275 l 55.83462,114.91715 c 14.65962,30.264 36.05649,65.1266 71.96454,66.8307 0.88016,0.082 1.68431,0.082 2.49426,0.082 20.07498,0 40.51807,-11.6716 55.10176,-31.5947 10.47988,-14.2742 16.85243,-30.4041 23.08238,-46.0905 1.10098,-2.8246 2.20205,-5.649 3.36977,-8.4736 12.68305,-31.22102 28.65419,-61.18166 47.41306,-89.05304 7.99016,-11.9049 17.81077,-24.39334 30.11992,-26.84437 16.26454,-3.26802 33.19287,10.03747 51.80784,40.66329 l 55.76792,91.88932 c 14.80343,24.3817 32.24032,47.2694 59.35396,49.5104 17.00086,1.4006 35.24654,-6.9213 48.87762,-22.1641 11.3565,-12.8503 18.39414,-28.5367 24.69537,-42.4374 l 47.12079,-104.97307 c 9.96323,-22.08233 21.24961,-44.15307 40.66992,-50.25721 20.88147,-6.53603 44.32857,9.2905 56.7194,28.25654 9.44558,14.34421 15.16351,30.91771 21.16911,48.47152 3.01423,8.54351 6.01703,17.39045 9.60661,25.93395"
       style="fill:#f04420;fill-opacity:1;fill-rule:nonzero;stroke:none;stroke-width:1.15879"
       id="path432" />
    <path
       d="m 301.74026,547.36941 c 14.80338,-22.45585 13.63103,-54.49401 -2.71406,-76.20288 -7.69444,-10.17749 -18.02593,-17.39049 -29.01431,-20.21496 -16.41636,-4.24838 -36.12779,0.44331 -52.76508,12.40677 -16.41756,11.97491 -27.11372,29.15523 -28.50691,46.0205 -0.14347,1.56397 -0.21523,3.12792 -0.21523,4.68026 0,25.94558 17.51398,50.70074 42.28063,58.74236 5.93194,1.92577 12.08944,2.81284 18.24568,2.81284 20.51564,0 40.96453,-10.3993 52.68921,-28.24489 z m 294.43671,10.55094 c 14.73206,-22.44412 13.63106,-54.48228 -2.70939,-76.12114 -7.7705,-10.25922 -18.03056,-17.47216 -29.09485,-20.29664 -16.41754,-4.23672 -36.12895,0.44335 -52.68916,12.48845 -16.48891,11.89318 -27.11373,29.07359 -28.50698,45.95048 -0.14348,1.55231 -0.21525,3.11629 -0.21525,4.68024 0,25.93397 17.51281,50.70076 42.28522,58.73075 5.93193,1.92577 12.08479,2.82447 18.16975,2.82447 20.58698,0 41.04046,-10.41094 52.76052,-28.25661 z m 312.60989,-14.42586 c 14.72633,-22.44421 13.63336,-54.48237 -2.71513,-76.12121 -7.69678,-10.25915 -18.02827,-17.46045 -29.08447,-20.29663 -16.41755,-4.22509 -36.05649,0.45524 -52.69262,12.50015 -16.41298,11.89318 -27.10914,29.06188 -28.50235,45.93878 -0.14876,1.55231 -0.21981,3.11627 -0.21981,4.68024 0,25.94566 17.50473,50.70081 42.2749,58.73072 5.93651,1.9375 12.09165,2.8245 18.17779,2.8245 20.59382,0 41.0381,-10.41095 52.76162,-28.25655 z m 42.43024,-79.16744 c 14.2201,35.31782 26.44987,71.28919 36.78127,107.71579 -295.45834,79.17909 -613.20175,75.30417 -919.727867,-11.06455 7.991351,-27.0661 16.924947,-53.9104 27.113704,-80.3696 5.051813,8.84698 12.605953,16.94696 23.814063,20.0749 12.97414,3.48982 27.99384,-1.19044 39.35498,-12.33672 7.8429,-7.73818 12.97061,-16.87689 17.87748,-25.80557 l 1.83393,-3.18631 c 14.06704,-25.0586 31.21635,-48.1797 51.00368,-68.77979 12.45294,-13.00205 22.56462,-18.4292 30.92408,-16.42178 8.35493,2.00751 14.8759,11.75318 20.80785,21.55721 l 40.4514,66.76065 c 14.35815,23.71637 32.16898,49.51031 61.18783,53.96876 2.78536,0.44332 5.56728,0.66526 8.28246,0.66526 29.75063,0 54.8095,-24.82517 69.02962,-49.65032 4.24646,-7.43473 7.98555,-15.17283 11.72006,-22.67757 8.64712,-17.76396 16.92958,-34.50082 30.11994,-46.46409 21.0322,-19.0244 55.10639,-22.30412 79.28516,-7.50472 18.69091,11.36798 31.00007,31.06941 44.04205,51.89124 2.86358,4.68026 5.72139,9.2905 8.72305,13.81902 23.6714,36.20481 49.97979,55.0892 78.26121,55.90619 34.00166,1.1905 60.53096,-24.31162 74.01357,-48.40145 4.98392,-8.91698 8.86688,-18.19578 12.60596,-27.19447 3.37096,-8.11169 6.52099,-15.75644 10.47752,-23.05109 5.0507,-9.51222 16.11844,-26.01567 32.46698,-29.65713 19.99559,-4.38852 39.71504,11.74146 49.67832,21.70885 4.54448,4.52854 9.82522,10.32923 15.38212,16.42171 13.93248,15.39466 29.75183,32.78509 44.48958,42.07558"
       style="fill:#f04420;fill-opacity:1;fill-rule:nonzero;stroke:none;stroke-width:1.15879"
       id="path434" />
    <path
       d="m 440.82459,366.42697 c 14.7988,-22.45587 13.707,-54.49402 -2.63809,-76.1329 -7.76581,-10.25915 -18.0984,-17.46043 -29.09023,-20.28497 -16.41755,-4.16666 -36.12896,0.44334 -52.68916,12.4885 -16.48891,11.8932 -27.1137,29.06189 -28.50692,45.93878 -0.14347,1.55231 -0.21522,3.11629 -0.21522,4.68025 0,26.02731 17.43231,50.70076 42.20471,58.73075 5.93657,1.92578 12.09281,2.89448 18.24569,2.89448 20.59154,0 40.96335,-10.48094 52.68916,-28.31489 z m 301.0291,-8.92864 c 14.73206,-22.52593 13.63099,-54.48237 -2.70945,-76.19122 -7.76582,-10.25922 -18.02131,-17.40215 -29.01893,-20.22663 -16.48421,-4.23674 -36.12316,0.44332 -52.76045,12.41843 -16.41299,11.89319 -27.11836,29.14359 -28.51154,46.02048 -0.14414,1.55234 -0.21526,3.11628 -0.21526,4.68026 0,25.94567 17.514,50.61911 42.28529,58.64903 5.93656,1.93748 12.08936,2.90619 18.16974,2.90619 20.59611,0 41.04041,-10.49266 52.76053,-28.25654 z m 188.1137,57.40014 c -2.41592,-2.61439 -4.76298,-5.20542 -7.04095,-7.73817 -5.78695,-6.31423 -11.20577,-12.26672 -16.11838,-17.25043 -22.71077,-22.67758 -47.49244,-32.48161 -69.83503,-27.56792 -18.4654,4.08502 -35.17171,18.49922 -47.12187,40.73335 -4.46283,8.25171 -7.9868,16.8769 -11.43367,25.11695 -3.58606,8.7769 -7.03293,17.02863 -11.35648,24.83682 -9.89084,17.61222 -30.1142,37.83884 -54.29763,37.17357 -20.66402,-0.66526 -41.11173,-16.14163 -60.59877,-46.02048 -2.85783,-4.38854 -5.72139,-8.91698 -8.50676,-13.3755 -13.77484,-22.08239 -28.06632,-44.98179 -51.29133,-59.10419 -32.60499,-19.92316 -76.86796,-15.75646 -105.22994,9.95569 -16.34502,14.86946 -25.94018,34.34911 -35.17635,53.16348 -3.66197,7.50473 -7.17675,14.56595 -11.06429,21.40543 -11.79716,20.74014 -32.38408,41.7021 -54.88659,38.21229 -19.78277,-3.12793 -34.07418,-24.15989 -45.87133,-43.63952 l -40.4468,-66.76065 c -6.15747,-10.1892 -16.4889,-27.28783 -34.51483,-31.58293 -24.40309,-5.88241 -44.92793,15.53466 -51.66409,22.59587 -21.10924,21.91903 -39.35492,46.6041 -54.37465,73.21502 l -1.83385,3.34967 c -4.39492,7.80824 -8.49873,15.24291 -14.07057,20.6585 -5.71219,5.66061 -12.82224,8.33337 -18.24685,6.83948 -9.30289,-2.52104 -14.28679,-16.19998 -17.65661,-28.16323 25.35575,-60.80826 56.20281,-119.31719 92.18796,-173.72947 35.82638,-54.05047 74.74063,-100.81794 114.53164,-138.72681 56.86435,49.44024 131.53486,78.4321 206.42854,79.76264 1.76139,0 3.5194,0 5.34863,0 76.21106,0 152.79021,-28.39662 210.89937,-78.42046 0.65576,-0.59552 1.17351,-1.19045 1.68547,-1.93744 40.00611,37.99058 79.14136,84.96814 115.11731,139.32207 28.79683,43.55782 54.38383,89.78841 76.4387,137.67637"
       style="fill:#fbc434;fill-opacity:1;fill-rule:nonzero;stroke:none;stroke-width:1.15879"
       id="path436" />
    <path
       d="m 955.61203,1193.9092 c -12.45986,26.0856 -26.44991,50.549 -41.99306,73.2151 -0.36787,0.069 -0.72484,0.069 -1.09298,0.2215 -243.72871,77.3933 -503.87037,86.9056 -752.43573,27.5096 -24.40308,-30.474 -45.57912,-64.7531 -63.389872,-102.5804 142.823462,46.3824 290.558352,69.6437 436.671112,69.6437 144.43645,0 287.26454,-22.7362 422.24053,-68.0097"
       style="fill:#f7913b;fill-opacity:1;fill-rule:nonzero;stroke:none;stroke-width:1.15879"
       id="path438" />
    <path
       d="m 910.09846,1036.4498 c 10.63056,14.0524 11.43589,35.6912 1.90979,50.1754 -9.74466,14.7994 -29.52169,21.9307 -45.93917,16.5852 -16.48663,-5.3572 -28.29071,-23.0511 -26.82954,-40.2899 0.81682,-10.3409 8.21449,-21.7088 19.3513,-29.7388 11.3554,-8.2516 24.33292,-11.6015 34.51478,-8.9987 6.22421,1.6341 12.31035,5.9408 16.99284,12.2668"
       style="fill:#ffffff;fill-opacity:1;fill-rule:nonzero;stroke:none;stroke-width:1.15879"
       id="path440" />
    <path
       d="m 888.63022,480.91221 c 10.63054,14.04069 11.43595,35.67956 1.8293,50.17549 -9.74466,14.78774 -29.45268,21.93068 -45.93924,16.5735 -16.41756,-5.35722 -28.21008,-23.03946 -26.81798,-40.28986 0.87434,-10.25921 8.27201,-21.63885 19.33976,-29.65713 8.87031,-6.39595 18.61504,-9.8857 27.33573,-9.8857 2.56563,0 4.98167,0.29181 7.25967,0.887 6.22414,1.56396 12.22971,5.9524 16.99276,12.1967"
       style="fill:#ffffff;fill-opacity:1;fill-rule:nonzero;stroke:none;stroke-width:1.15879"
       id="path442" />
    <path
       d="m 891.12684,1297.1549 c -1.97885,2.4627 -3.88871,4.9836 -5.93658,7.4463 -87.20517,103.1055 -211.2652,157.5879 -358.63197,157.5879 -138.35151,0 -256.03437,-47.9463 -342.13621,-139.0769 99.72829,21.6272 201.00278,32.4816 302.27391,32.4816 136.37376,0 272.59914,-19.5497 404.43085,-58.4389"
       style="fill:#fbc434;fill-opacity:1;fill-rule:nonzero;stroke:none;stroke-width:1.15879"
       id="path444" />
    <path
       d="m 744.20412,876.17735 c 10.62024,14.1225 11.4336,35.67963 1.8293,50.24558 -9.67109,14.79945 -29.45959,21.86068 -45.87134,16.50345 -16.48891,-5.34554 -28.28606,-23.03941 -26.89743,-40.28983 0.88133,-10.25921 8.28245,-21.62722 19.41922,-29.65714 11.3611,-8.2517 24.33063,-11.60145 34.51482,-8.99869 6.22877,1.63399 12.24121,5.95243 17.00543,12.19663"
       style="fill:#ffffff;fill-opacity:1;fill-rule:nonzero;stroke:none;stroke-width:1.15879"
       id="path446" />
    <path
       d="m 721.70278,294.90433 c 10.62362,14.05242 11.43242,35.69126 1.8327,50.17556 -9.74696,14.79939 -29.45836,21.93062 -45.94727,16.58511 -16.41293,-5.34553 -28.21008,-23.12114 -26.81687,-40.28982 0,0 0,0 0,-0.0701 0.87669,-10.25922 8.2778,-21.63887 19.34783,-29.66886 8.86231,-6.39593 18.60925,-9.81567 27.32773,-9.81567 2.49427,0 4.98508,0.3037 7.25849,0.81698 6.22414,1.64569 12.23781,5.95249 16.99739,12.26671"
       style="fill:#ffffff;fill-opacity:1;fill-rule:nonzero;stroke:none;stroke-width:1.15879"
       id="path448" />
    <path
       d="m 625.11879,56.129844 c 32.02514,15.686451 64.78315,38.282374 97.09595,66.900746 -55.39516,47.65452 -128.67587,74.26544 -201.36866,72.93484 C 451.96023,194.76329 383.22281,168.3858 330.391,123.4041 c 22.93737,-20.29668 46.01973,-37.535405 68.95716,-51.517788 0.4357,0.373838 0.88126,0.665254 1.39327,0.968699 30.11529,15.768168 64.04567,23.494643 98.04391,23.494643 44.33432,0 88.81696,-13.235422 125.01729,-39.111007 0.51656,-0.291819 0.9526,-0.735272 1.31616,-1.108803"
       style="fill:#f7913b;fill-opacity:1;fill-rule:nonzero;stroke:none;stroke-width:1.15879"
       id="path450" />
    <path
       d="m 592.36652,1068.7213 c 10.62826,14.1224 11.42786,35.6795 1.90065,50.2455 -9.73897,14.7878 -29.45495,21.8606 -45.93923,16.5035 -16.48893,-5.3573 -28.29064,-23.0394 -26.82496,-40.2898 0.44548,-5.1354 2.49433,-10.5627 5.79275,-15.6865 3.37096,-5.1354 7.9856,-9.9673 13.55398,-13.9708 8.86223,-6.3959 18.61041,-9.8857 27.33802,-9.8857 2.48507,0 4.90805,0.2919 7.17684,0.8871 6.22877,1.6339 12.30908,5.9407 17.00195,12.1967"
       style="fill:#ffffff;fill-opacity:1;fill-rule:nonzero;stroke:none;stroke-width:1.15879"
       id="path452" />
    <path
       d="m 576.02144,495.32642 c 10.62825,14.13413 11.43248,35.69128 1.83738,50.25721 -9.74701,14.78776 -29.45843,21.84897 -45.94734,16.50345 -16.41292,-5.35716 -28.21927,-23.05112 -26.82598,-40.28981 0.8858,-10.25922 8.28237,-21.63887 19.3524,-29.66886 8.86229,-6.39592 18.60924,-9.88569 27.33227,-9.88569 2.48971,0 4.98398,0.30373 7.25387,0.89872 6.22877,1.56395 12.24245,5.94077 16.9974,12.18498"
       style="fill:#ffffff;fill-opacity:1;fill-rule:nonzero;stroke:none;stroke-width:1.15879"
       id="path454" />
    <path
       d="m 526.55829,30.265919 c 23.74733,0 48.80628,5.275503 74.67509,15.301261 C 548.47175,78.200605 479.59052,83.184299 422.7941,58.732606 458.85058,40.13995 493.9533,30.265919 526.55829,30.265919"
       style="fill:#fbc434;fill-opacity:1;fill-rule:nonzero;stroke:none;stroke-width:1.15879"
       id="path456" />
    <path
       d="m 420.67259,303.83295 c 10.62479,14.12249 11.43357,35.67962 1.90176,50.24563 -9.74356,14.7994 -29.53088,21.93062 -45.94387,16.5851 -16.48886,-5.42723 -28.286,-23.12112 -26.82145,-40.37155 0.80534,-10.25919 8.28357,-21.63884 19.34786,-29.65712 8.86686,-6.39595 18.61497,-9.81567 27.33345,-9.81567 2.49426,0 4.90686,0.22165 7.25267,0.81698 6.15285,1.63397 12.23783,5.95241 16.92958,12.19663"
       style="fill:#ffffff;fill-opacity:1;fill-rule:nonzero;stroke:none;stroke-width:1.15879"
       id="path458" />
    <path
       d="m 417.88605,873.64467 c 10.62943,14.05242 11.43366,35.67964 1.9064,50.18726 -9.74356,14.78775 -29.45496,21.91887 -45.9438,16.57345 -16.48892,-5.35723 -28.21818,-23.05111 -26.82497,-40.28985 0.80878,-10.27086 8.28243,-21.63887 19.34672,-29.73885 11.43242,-8.25173 24.33064,-11.60139 34.58616,-8.92864 6.23339,1.56398 12.23779,5.88242 16.92949,12.19663"
       style="fill:#ffffff;fill-opacity:1;fill-rule:nonzero;stroke:none;stroke-width:1.15879"
       id="path460" />
    <path
       d="m 281.58932,484.77541 c 10.62369,14.04076 11.42791,35.67962 1.83274,50.17556 -9.67564,14.79939 -29.45834,21.93066 -45.8759,16.58516 -16.48891,-5.35723 -28.28606,-23.05111 -26.89742,-40.30153 0.88588,-10.25921 8.28355,-21.62721 19.41919,-29.72721 11.36113,-8.2517 24.3318,-11.60138 34.51478,-8.92862 6.23341,1.56398 12.24244,5.87071 17.00661,12.19664"
       style="fill:#ffffff;fill-opacity:1;fill-rule:nonzero;stroke:none;stroke-width:1.15879"
       id="path462" />
    <path
       d="m 243.40675,1050.6539 c 10.62826,14.1224 11.43358,35.6796 1.83386,50.2455 -9.74348,14.7995 -29.45489,21.9307 -45.87134,16.5034 -16.48428,-5.3572 -28.29064,-23.0394 -26.89736,-40.2898 0.44549,-5.1354 2.49427,-10.5509 5.86404,-15.6863 3.37095,-5.1238 7.99135,-9.9558 13.55974,-13.9708 8.78975,-6.3959 18.53794,-9.8858 27.26097,-9.8858 2.561,0 4.98389,0.2919 7.25385,0.8871 6.22878,1.634 12.23202,5.9525 16.99624,12.1967"
       style="fill:#ffffff;fill-opacity:1;fill-rule:nonzero;stroke:none;stroke-width:1.15879"
       id="path464" />
    <path
       d="m 533.37612,1261.9187 c 144.43183,0 287.25992,-22.736 422.23591,-68.0095 -12.45986,26.0856 -26.44991,50.549 -41.99306,73.2151 -0.36787,0.069 -0.72484,0.069 -1.09298,0.2215 -243.72871,77.3933 -503.87037,86.9056 -752.43573,27.5096 -24.40308,-30.474 -45.57912,-64.7531 -63.389872,-102.592 142.823462,46.394 290.558352,69.6553 436.675732,69.6553 z M 50.901516,1058.4504 C 78.310896,999.2761 112.1699,943.14822 151.5916,891.49036 c 12.60133,-16.50344 26.60053,-31.96817 43.66929,-33.31033 11.36113,-0.88706 24.25927,5.06536 34.44349,16.0599 10.18302,10.93612 17.14467,25.35034 23.89115,39.33275 l 55.83462,114.91712 c 14.65962,30.264 36.05649,65.1266 71.96454,66.8307 0.88016,0.082 1.68431,0.082 2.49426,0.082 20.07498,0 40.51807,-11.6714 55.10176,-31.5946 10.47988,-14.2742 16.85243,-30.4041 23.08238,-46.0906 1.10098,-2.8244 2.20205,-5.649 3.36977,-8.4734 12.68305,-31.22121 28.65419,-61.18184 47.41306,-89.05322 7.99016,-11.90486 17.81077,-24.39331 30.11992,-26.84433 16.26454,-3.26802 33.19751,10.03747 51.80784,40.66336 l 55.76792,91.88939 c 14.80343,24.3815 32.24032,47.2693 59.35396,49.4985 17.00086,1.4123 35.24654,-6.9095 48.87762,-22.1524 11.3565,-12.8503 18.39414,-28.5367 24.69537,-42.4373 l 47.12079,-104.97311 c 9.96323,-22.08232 21.24961,-44.16473 40.66992,-50.25721 20.88147,-6.53603 44.32857,9.29048 56.7194,28.25654 9.44558,14.34421 15.16351,30.91772 21.16911,48.47148 3.01423,8.54351 6.01703,17.39057 9.60661,25.93408 9.0083,22.01228 25.05774,49.28852 51.58812,61.33342 -9.7447,53.0117 -23.96481,102.0668 -42.51071,146.7451 -0.28768,0.082 -0.6559,0.082 -1.01247,0.2216 -277.73616,97.9819 -591.003,97.3981 -882.289658,-1.704 -13.631074,-33.0885 -24.843808,-68.6865 -33.638146,-106.3852 z M 26.866545,836.62283 c 0,-5.64897 0.07705,-11.29794 0.14877,-16.94689 0.804221,-39.77634 4.399483,-79.98443 10.476413,-120.35597 64.485202,39.40275 139.160292,57.16671 198.078222,68.24291 89.32436,16.79524 179.53457,25.19866 269.66429,25.19866 173.5267,0 346.39652,-31.06937 510.53736,-92.33276 5.9366,39.99799 9.4571,79.92606 10.2624,119.32879 0.068,5.63733 0.1495,11.28638 0.1495,16.86526 0,56.34977 -4.1072,109.72324 -11.9421,159.9105 -17.15384,-10.34085 -28.44015,-30.33412 -35.18208,-46.83756 -3.3019,-8.02994 -6.30471,-16.58505 -9.15796,-24.83683 -6.22416,-17.98564 -12.67842,-36.64831 -23.5966,-53.37348 -16.41757,-25.12859 -48.94207,-47.42109 -81.55853,-37.16188 -28.06059,8.76526 -42.64884,36.71836 -54.1538,62.2905 l -47.1219,104.89132 c -5.86065,13.0836 -11.94097,26.5408 -21.02302,36.8 -9.01981,10.1075 -20.59728,15.6865 -30.78026,14.8695 -17.37016,-1.4122 -30.63194,-19.5497 -42.35773,-38.9476 l -55.7668,-91.88935 c -8.86223,-14.56596 -35.68368,-58.64902 -74.81774,-50.92249 -20.07615,4.01492 -33.49089,20.51835 -44.04322,36.13479 -19.63431,29.2136 -36.34407,60.5748 -49.60586,93.21995 -1.17233,2.8944 -2.27335,5.789 -3.44222,8.6251 -5.94121,15.0095 -11.50496,29.2136 -20.30509,41.1069 -8.28246,11.4496 -23.0099,23.3428 -38.9097,22.5258 -24.40315,-1.1204 -41.32805,-29.6687 -53.27363,-54.3421 L 273.38308,903.67534 c -7.18596,-14.71772 -15.24403,-31.37289 -27.70159,-44.74833 -14.94836,-16.12998 -34.00283,-24.46341 -52.1772,-22.96946 -25.64336,2.0775 -44.40672,22.29249 -59.28152,41.85385 C 99.564186,923.22495 69.151982,972.07001 43.432721,1023.2143 32.583549,965.45234 26.866778,903.08009 26.866778,836.62283 Z m 35.17518,-254.23914 c 162.242655,45.71712 327.486965,68.68651 491.045805,68.68651 149.63553,0 297.73746,-19.17619 440.77831,-57.54022 7.32876,28.10481 13.40326,56.2797 18.24696,84.52459 C 765.37552,770.98261 498.34933,794.32552 239.52385,745.63229 180.16987,734.486 104.47081,716.3486 41.454807,675.45182 46.874794,644.38245 53.687976,613.23135 62.041725,582.38369 Z m 33.342482,-101.775 c 5.059893,8.84698 12.605953,16.94696 23.814063,20.0749 12.97414,3.48982 27.99384,-1.19044 39.35498,-12.33672 7.8429,-7.73818 12.97061,-16.87689 17.87748,-25.80557 l 1.83393,-3.18631 c 14.06704,-25.0586 31.21635,-48.1797 51.00368,-68.76814 12.45294,-13.0137 22.56462,-18.42921 30.92408,-16.43343 8.35493,2.00751 14.8759,11.75318 20.80785,21.55721 l 40.4514,66.76065 c 14.36278,23.71637 32.16898,49.51031 61.18783,53.96876 2.78536,0.44332 5.56728,0.66526 8.28246,0.66526 29.75063,0 54.8095,-24.82517 69.02962,-49.66196 4.2511,-7.42309 7.98555,-15.16119 11.72006,-22.66593 8.64712,-17.76396 16.92958,-34.50082 30.11994,-46.46409 21.0322,-19.0244 55.10639,-22.30412 79.28516,-7.50472 18.69091,11.36798 31.00007,31.06941 44.04205,51.89124 2.86358,4.68026 5.72139,9.2905 8.72305,13.81902 23.6714,36.20481 49.97979,55.0892 78.26121,55.90619 34.00166,1.1905 60.53096,-24.31162 74.01357,-48.40145 4.98392,-8.91698 8.86688,-18.19578 12.60596,-27.19447 3.37096,-8.11169 6.52099,-15.75644 10.47752,-23.05109 5.0507,-9.51222 16.11844,-26.01567 32.46698,-29.65713 19.99559,-4.38852 39.71504,11.74146 49.67832,21.70885 4.54448,4.52854 9.82522,10.32923 15.38212,16.43337 13.93248,15.383 29.75183,32.77343 44.48958,42.06392 14.2201,35.31782 26.44987,71.28919 36.78127,107.71579 C 692.54003,651.22193 374.79662,647.34701 68.270503,560.96663 76.261854,533.91219 85.19545,507.06789 95.384207,480.60869 Z M 199.51773,277.2221 c 35.82638,-54.05047 74.74063,-100.81794 114.53164,-138.72681 56.86435,49.44024 131.53486,78.4321 206.42854,79.76264 1.76139,0 3.5194,0 5.34863,0 76.21106,0 152.79021,-28.39662 210.89937,-78.42046 0.65576,-0.59552 1.17351,-1.19045 1.68547,-1.93744 40.00611,37.99058 79.14136,84.96814 115.11731,139.32207 28.80831,43.55782 54.38383,89.78841 76.4387,137.67637 -2.41592,-2.61439 -4.76298,-5.20542 -7.04095,-7.73817 -5.78695,-6.31423 -11.20577,-12.26672 -16.11838,-17.25043 -22.71077,-22.67758 -47.48089,-32.48161 -69.83503,-27.56792 -18.4654,4.08502 -35.17171,18.49922 -47.12187,40.73335 -4.46283,8.25171 -7.9868,16.8769 -11.43367,25.11695 -3.58606,8.7769 -7.03293,17.02863 -11.35648,24.83682 -9.89084,17.62393 -30.1142,37.83884 -54.29763,37.17357 -20.66402,-0.66526 -41.10711,-16.12991 -60.59877,-46.02048 -2.85783,-4.38854 -5.72139,-8.91698 -8.5033,-13.3755 -13.7783,-22.08239 -28.06978,-44.98179 -51.29479,-59.10419 -32.60499,-19.92316 -76.86796,-15.75646 -105.22994,9.95569 -16.34502,14.86946 -25.94018,34.34911 -35.17635,53.16348 -3.66197,7.50473 -7.17675,14.56595 -11.06429,21.40543 -11.79716,20.74014 -32.38408,41.7021 -54.88659,38.21229 -19.78277,-3.12793 -34.07418,-24.15989 -45.87133,-43.63952 l -40.4468,-66.76065 c -6.15747,-10.17751 -16.4889,-27.28783 -34.51483,-31.58293 -24.40309,-5.88241 -44.92793,15.53466 -51.66409,22.59587 -21.10924,21.91903 -39.35492,46.6041 -54.37465,73.21502 l -1.83385,3.34967 c -4.39492,7.80824 -8.49873,15.24291 -14.07057,20.6585 -5.71219,5.66061 -12.82224,8.33337 -18.24685,6.83948 -9.30289,-2.52104 -14.28679,-16.19998 -17.65661,-28.16323 25.35575,-60.80826 56.20281,-119.31719 92.18796,-173.72947 z M 399.34816,71.886312 c 0.4357,0.373838 0.88126,0.665254 1.39327,0.968699 30.11529,15.768168 64.04567,23.494643 98.04391,23.494643 44.33432,0 88.81696,-13.235422 125.01729,-39.111007 0.51656,-0.291819 0.9526,-0.735272 1.31616,-1.108803 32.02514,15.686451 64.78315,38.282374 97.09595,66.900746 -55.39516,47.65452 -128.67587,74.26544 -201.36866,72.93484 C 451.96023,194.76329 383.22281,168.3858 330.391,123.4041 353.32837,103.10742 376.41073,85.868695 399.34816,71.886312 Z M 526.55829,30.265919 c 23.74733,0 48.80628,5.275503 74.67509,15.301261 C 548.47175,78.200605 479.59052,83.184299 422.7941,58.732606 458.85058,40.13995 493.9533,30.265919 526.55829,30.265919 Z M 885.19026,1304.6012 c -87.20517,103.1055 -211.2652,157.5879 -358.63197,157.5879 -138.35151,0 -256.03437,-47.9463 -342.14085,-139.0769 99.73293,21.6272 201.00742,32.4816 302.27855,32.4816 136.37376,0 272.59914,-19.5497 404.43085,-58.4389 -1.97885,2.4627 -3.88871,4.9836 -5.93658,7.4463 z m -358.63197,179.8921 c 153.96485,0 283.81533,-57.1669 375.33717,-165.4078 65.72766,-77.7552 110.21734,-180.8608 131.61644,-303.446 0,-0.082 0,-0.082 0.068,-0.1515 0.2184,-0.8988 0.2993,-1.7041 0.3679,-2.6028 9.3765,-55.00754 14.2084,-113.96005 14.2084,-176.26224 0,-5.71898 -0.068,-11.44966 -0.2184,-17.1687 C 1044.3494,630.26022 980.60065,429.09116 871.77533,264.79222 765.22813,103.92466 636.18758,7.9503361 526.55816,7.9503361 416.86201,7.9503361 287.8134,103.92466 181.27074,264.79222 72.522567,429.09116 8.7691277,630.26022 5.105968,819.37267 c -0.1532349,5.73069 -0.2243738,11.53138 -0.2243738,17.25036 0,202.49967 50.5630938,369.31957 146.2657658,482.46257 91.52638,108.2409 221.38035,165.4078 375.4108,165.4078"
       style="fill:#452720;fill-opacity:1;fill-rule:nonzero;stroke:none;stroke-width:1.15879"
       id="path466" />
    <path
       d="m 858.59084,1033.1817 c 11.3554,-8.2516 24.33292,-11.6015 34.51478,-8.9987 6.22421,1.6341 12.31035,5.9408 16.99284,12.2668 10.63056,14.0524 11.43589,35.6912 1.90979,50.1754 -9.74466,14.7994 -29.52169,21.9307 -45.93917,16.5852 -16.48663,-5.3572 -28.29071,-23.0511 -26.82954,-40.2899 0.81682,-10.3409 8.21449,-21.7088 19.3513,-29.7388 z m 0.73633,91.2123 c 5.92503,1.9375 12.09165,2.9062 18.24679,2.9062 20.58236,0 40.95763,-10.4925 52.68111,-28.2565 14.80688,-22.526 13.63343,-54.4941 -2.7036,-76.2029 -7.6968,-10.2475 -18.02829,-17.3904 -29.02697,-20.215 -16.41754,-4.23665 -36.1255,0.4434 -52.69261,12.4068 -16.48663,11.9049 -27.10569,29.1552 -28.49779,46.0205 -0.14942,1.564 -0.2185,3.128 -0.2185,4.6919 0,25.934 17.44144,50.6191 42.21164,58.649"
       style="fill:#452720;fill-opacity:1;fill-rule:nonzero;stroke:none;stroke-width:1.15879"
       id="path468" />
    <path
       d="m 837.04206,477.71421 c 8.87031,-6.39595 18.61504,-9.8857 27.33573,-9.8857 2.56563,0 4.98167,0.29181 7.25967,0.887 6.22414,1.56396 12.22971,5.9524 16.99276,12.1967 10.63054,14.04069 11.43595,35.67956 1.8293,50.17549 -9.73318,14.78774 -29.45268,21.93068 -45.93924,16.5735 -16.41756,-5.35722 -28.21008,-23.03946 -26.81798,-40.28986 0.87434,-10.25921 8.27201,-21.63885 19.33976,-29.65713 z m 0.80539,91.21233 c 5.93651,1.9375 12.09165,2.8245 18.17779,2.8245 20.59382,0 41.03809,-10.41095 52.76162,-28.25655 14.72633,-22.44421 13.63336,-54.48237 -2.71513,-76.12121 -7.69678,-10.25915 -18.02827,-17.46045 -29.08447,-20.29663 -16.41755,-4.22509 -36.05649,0.45524 -52.69262,12.50015 -16.41298,11.89318 -27.10914,29.06188 -28.50235,45.93878 -0.14876,1.55231 -0.21981,3.11627 -0.21981,4.68024 0,25.94566 17.50473,50.70081 42.2749,58.73072"
       style="fill:#452720;fill-opacity:1;fill-rule:nonzero;stroke:none;stroke-width:1.15879"
       id="path470" />
    <path
       d="m 692.68387,872.97941 c 11.3611,-8.2517 24.33063,-11.60145 34.51482,-8.99869 6.22877,1.63399 12.24121,5.95243 17.00543,12.19663 10.62024,14.1225 11.4336,35.67963 1.8293,50.24558 -9.67109,14.79945 -29.45959,21.86068 -45.87134,16.50345 -16.48891,-5.34554 -28.28606,-23.03941 -26.89743,-40.28983 0.88133,-10.25921 8.28245,-21.62722 19.41922,-29.65714 z m 0.7363,91.21237 c 5.71221,1.85572 11.7258,2.75442 17.73028,2.75442 20.66402,0 41.62369,-10.49264 53.20574,-28.17481 14.79881,-22.45584 13.62528,-54.49404 -2.71518,-76.13291 -7.68878,-10.25921 -18.03057,-17.4605 -29.01314,-20.28497 -16.41754,-4.24837 -36.12895,0.44331 -52.76626,12.47679 -16.4118,11.9049 -27.11252,29.07359 -28.5058,45.95048 -2.26994,27.57958 15.82852,54.8675 42.06436,63.411"
       style="fill:#452720;fill-opacity:1;fill-rule:nonzero;stroke:none;stroke-width:1.15879"
       id="path472" />
    <path
       d="m 650.77134,321.30517 c 0.87669,-10.25922 8.2778,-21.63888 19.34783,-29.66885 8.86231,-6.39594 18.60925,-9.81569 27.32773,-9.81569 2.49427,0 4.98508,0.30372 7.25849,0.81698 6.22414,1.64569 12.23781,5.9525 16.99739,12.26672 10.62362,14.05242 11.43242,35.69126 1.8327,50.17556 -9.74696,14.79939 -29.45836,21.93062 -45.94727,16.58511 -16.41293,-5.34553 -28.21008,-23.12114 -26.81687,-40.28982 z m 20.15208,61.54351 c 5.93656,1.93748 12.08936,2.89456 18.16974,2.89456 20.59611,0 41.04039,-10.48103 52.76053,-28.24491 14.73206,-22.52593 13.63099,-54.48237 -2.70945,-76.19122 -7.76582,-10.25922 -18.02131,-17.40215 -29.01893,-20.22663 -16.48421,-4.23674 -36.12316,0.44332 -52.76045,12.41843 -16.41299,11.89319 -27.11836,29.14359 -28.50235,46.02048 -0.15324,1.55234 -0.22438,3.11628 -0.22438,4.68026 0,25.94567 17.51398,50.61911 42.28529,58.64903"
       style="fill:#452720;fill-opacity:1;fill-rule:nonzero;stroke:none;stroke-width:1.15879"
       id="path474" />
    <path
       d="m 521.50298,1095.1805 c 0.44548,-5.1354 2.49433,-10.5627 5.79275,-15.6865 3.37096,-5.1354 7.9856,-9.9673 13.55398,-13.9708 8.86223,-6.3959 18.61041,-9.8857 27.33802,-9.8857 2.48507,0 4.90805,0.2919 7.17684,0.8871 6.22877,1.6339 12.31373,5.9407 17.00195,12.1967 10.62826,14.1224 11.42786,35.6795 1.90986,50.2455 -9.74818,14.7995 -29.46416,21.8606 -45.94844,16.5035 -16.48893,-5.3573 -28.29064,-23.0394 -26.82496,-40.2898 z m 38.32991,64.4498 c 20.58809,0 40.95984,-10.4811 52.68453,-28.3267 14.80342,-22.4443 13.63107,-54.494 -2.70939,-76.1212 -7.69914,-10.2592 -18.02592,-17.4722 -29.02355,-20.2967 -16.41175,-4.1549 -36.12316,0.4553 -52.68915,12.4885 -16.48428,11.9049 -27.10791,29.0735 -28.50118,45.9504 -0.14348,1.5524 -0.22113,3.1162 -0.22113,4.6803 0,26.0156 17.43806,50.7008 42.214,58.7307 5.93193,1.9258 12.08935,2.8947 18.24566,2.8947"
       style="fill:#452720;fill-opacity:1;fill-rule:nonzero;stroke:none;stroke-width:1.15879"
       id="path476" />
    <path
       d="m 577.85882,545.58363 c -9.74701,14.78776 -29.45843,21.84897 -45.94734,16.50345 -16.41292,-5.35716 -28.21927,-23.05112 -26.82598,-40.28981 0.8858,-10.25922 8.28237,-21.63887 19.3524,-29.66886 8.86229,-6.39592 18.60924,-9.88569 27.33227,-9.88569 2.48971,0 4.98398,0.29182 7.25387,0.89872 6.22877,1.56395 12.24245,5.94077 16.9974,12.18498 10.62825,14.13413 11.43248,35.69128 1.83738,50.25721 z m 18.31815,12.33672 c 14.73206,-22.44412 13.63106,-54.48228 -2.70939,-76.12114 -7.7705,-10.25922 -18.03056,-17.47216 -29.09485,-20.29664 -16.41754,-4.23672 -36.12895,0.44335 -52.68916,12.48845 -16.48891,11.89318 -27.11373,29.07359 -28.50698,45.95048 -0.14348,1.55231 -0.21525,3.11629 -0.21525,4.68024 0,25.93397 17.50935,50.70076 42.28522,58.73075 5.93193,1.92577 12.08479,2.82447 18.16975,2.82447 20.58698,0 41.04046,-10.41094 52.76052,-28.25661"
       style="fill:#452720;fill-opacity:1;fill-rule:nonzero;stroke:none;stroke-width:1.15879"
       id="path478" />
    <path
       d="m 369.15689,300.63501 c 8.86686,-6.39595 18.61497,-9.81567 27.33345,-9.81567 2.49426,0 4.90686,0.22165 7.25267,0.81698 6.15285,1.63397 12.23783,5.95241 16.92958,12.19663 10.62479,14.12249 11.43357,35.67962 1.90176,50.24563 -9.74356,14.7994 -29.53088,21.93062 -45.94387,16.5851 -16.48886,-5.42723 -28.286,-23.12112 -26.82145,-40.37155 0.80997,-10.25919 8.28357,-21.63884 19.34786,-29.65712 z m 0.73285,91.21237 c 5.93658,1.92578 12.09282,2.89448 18.24567,2.89448 20.59157,0 40.96337,-10.48094 52.68918,-28.31489 14.7988,-22.45587 13.707,-54.49402 -2.63809,-76.12117 -7.76581,-10.27088 -18.0984,-17.47216 -29.09023,-20.2967 -16.41755,-4.16666 -36.12896,0.43209 -52.68916,12.4885 -16.48891,11.8932 -27.1137,29.06189 -28.50692,45.93878 -0.14347,1.55231 -0.21522,3.11629 -0.21522,4.68025 0,26.02731 17.43231,50.70076 42.20471,58.73075"
       style="fill:#452720;fill-opacity:1;fill-rule:nonzero;stroke:none;stroke-width:1.15879"
       id="path480" />
    <path
       d="m 366.3704,870.37668 c 11.43242,-8.25173 24.33064,-11.60139 34.58616,-8.92864 6.23339,1.56398 12.24238,5.88242 16.92949,12.19663 10.62943,14.05242 11.43366,35.67964 1.90985,50.18726 -9.74701,14.78775 -29.45841,21.91887 -45.94725,16.57345 -16.48892,-5.35723 -28.21818,-23.05111 -26.82497,-40.28985 0.80878,-10.27086 8.28243,-21.63887 19.34672,-29.73885 z m 0.73744,91.21229 c 5.93195,2.00754 12.08827,2.89466 18.24569,2.89466 20.58697,0 40.9599,-10.39934 52.68921,-28.24493 14.7988,-22.44422 13.70239,-54.48238 -2.64272,-76.19124 -7.76579,-10.18921 -18.09838,-17.40214 -29.09021,-20.22663 -16.41754,-4.23672 -36.12896,0.44334 -52.68916,12.41843 -16.48891,11.9632 -27.11255,29.13189 -28.50581,46.00884 -0.14347,1.56398 -0.22112,3.12795 -0.22112,4.6919 0,25.94562 17.43689,50.61914 42.21393,58.64897"
       style="fill:#452720;fill-opacity:1;fill-rule:nonzero;stroke:none;stroke-width:1.15879"
       id="path482" />
    <path
       d="m 283.42206,534.95097 c -9.67564,14.79939 -29.45834,21.93066 -45.8759,16.58516 -16.48891,-5.35723 -28.28606,-23.05111 -26.89742,-40.30153 0.88588,-10.25921 8.28355,-21.62721 19.41919,-29.72721 11.36113,-8.2517 24.3318,-11.60138 34.51478,-8.92862 6.23341,1.56398 12.24244,5.87071 17.00661,12.19664 10.62369,14.04076 11.42791,35.67962 1.83274,50.17556 z m -13.41017,-83.9994 c -16.41636,-4.24838 -36.12779,0.44331 -52.76508,12.40677 -16.41293,11.97491 -27.11372,29.15523 -28.50691,46.0205 -0.14347,1.56397 -0.21523,3.12792 -0.21523,4.68026 0,25.94558 17.51398,50.70074 42.28063,58.74236 5.93194,1.92577 12.08944,2.81284 18.24568,2.81284 20.51564,0 40.96453,-10.3993 52.68921,-28.24489 14.80338,-22.45585 13.63103,-54.49401 -2.71406,-76.20288 -7.69444,-10.17749 -18.02593,-17.39049 -29.0143,-20.21496"
       style="fill:#452720;fill-opacity:1;fill-rule:nonzero;stroke:none;stroke-width:1.15879"
       id="path484" />
    <path
       d="m 245.24524,1100.8994 c -9.74811,14.7995 -29.45952,21.9307 -45.87597,16.5034 -16.48428,-5.3572 -28.29064,-23.0394 -26.89736,-40.2898 0.44549,-5.1354 2.49427,-10.5509 5.86404,-15.6863 3.37095,-5.1238 7.99135,-9.9558 13.55974,-13.9708 8.78975,-6.3959 18.53794,-9.8858 27.26097,-9.8858 2.561,0 4.98389,0.2919 7.25385,0.8871 6.22878,1.634 12.23202,5.9525 16.99624,12.1967 10.62826,14.1224 11.43358,35.6796 1.83849,50.2455 z M 231.8305,1016.83 c -16.41754,-4.1667 -36.12895,0.4433 -52.7617,12.4885 -16.41636,11.8932 -27.11252,29.0618 -28.5058,45.9388 -0.14348,1.5523 -0.22111,3.1162 -0.22111,4.6803 0,26.0273 17.51857,50.7007 42.28522,58.7307 5.93311,1.9374 12.08943,2.8945 18.17437,2.8945 20.58811,0 41.03121,-10.481 52.76163,-28.3149 14.80344,-22.456 13.62535,-54.4941 -2.71509,-76.1212 -7.69341,-10.2709 -18.02595,-17.4722 -29.01777,-20.2967"
       style="fill:#452720;fill-opacity:1;fill-rule:nonzero;stroke:none;stroke-width:1.15879"
       id="path486" />
  </g>
</svg>
