<?xml version="1.0" encoding="UTF-8" standalone="no"?>
<!-- Created with Inkscape (http://www.inkscape.org/) -->

<svg
   width="210mm"
   height="297mm"
   viewBox="0 0 210 297"
   version="1.1"
   id="svg1"
   inkscape:version="1.3.2 (091e20e, 2023-11-25)"
   sodipodi:docname="rysunek-3.svg"
   xmlns:inkscape="http://www.inkscape.org/namespaces/inkscape"
   xmlns:sodipodi="http://sodipodi.sourceforge.net/DTD/sodipodi-0.dtd"
   xmlns="http://www.w3.org/2000/svg"
   xmlns:svg="http://www.w3.org/2000/svg">
  <sodipodi:namedview
     id="namedview1"
     pagecolor="#ffffff"
     bordercolor="#000000"
     borderopacity="0.25"
     inkscape:showpageshadow="2"
     inkscape:pageopacity="0.0"
     inkscape:pagecheckerboard="0"
     inkscape:deskcolor="#d1d1d1"
     inkscape:document-units="mm"
     inkscape:zoom="0.43923677"
     inkscape:cx="342.6398"
     inkscape:cy="588.52085"
     inkscape:window-width="1440"
     inkscape:window-height="872"
     inkscape:window-x="0"
     inkscape:window-y="28"
     inkscape:window-maximized="0"
     inkscape:current-layer="layer1" />
  <defs
     id="defs1" />
  <g
     inkscape:label="Warstwa 1"
     inkscape:groupmode="layer"
     id="layer1">
    <path
       d="m 206.38935,167.14904 c 0,0.61046 -0.0138,1.20653 -0.0328,1.81685 -71.92511,0.79036 -137.705261,0.49116 -200.9904055,-0.92363 0,-0.31352 -0.01378,-0.59654 -0.01378,-0.89322 0,-2.81536 0.087983,-5.64469 0.2337593,-8.4904 66.3680402,-13.56676 133.8562962,-13.47793 200.5923662,0.2996 0.1345,2.74044 0.20864,5.48097 0.20864,8.19106"
       style="fill:#f14c4a;fill-opacity:1;fill-rule:nonzero;stroke:none;stroke-width:0.232636"
       id="path66" />
    <path
       d="m 64.409181,207.82373 c 3.198633,-5.94395 2.182565,-9.60811 0.766105,-11.64708 -2.284411,-3.2619 -6.545382,-3.75298 -9.771783,-3.14265 -4.115168,0.80433 -7.961856,3.27826 -10.542514,6.80681 -0.277716,0.37184 -0.516129,0.75992 -0.719808,1.13171 -0.502224,-0.49116 -0.988286,-1.10136 -1.504415,-1.74205 -0.782295,-0.9821 -1.592372,-2.01093 -2.640833,-2.89011 -3.314356,-2.78493 -7.119381,-4.28848 -10.746184,-4.18561 -4.538722,0.11933 -8.593707,2.81535 -10.084239,6.718 -1.046154,2.7545 -0.840165,6.07718 0.606411,9.59167 2.034433,4.94547 5.999161,9.42802 11.440526,12.97288 4.730821,3.06787 9.947684,5.10687 14.990964,7.08739 0.252262,0.10542 0.532333,0.14979 0.796186,0.14979 0.590207,0 1.180388,-0.23861 1.606248,-0.69915 5.73532,-6.12164 11.660414,-12.46547 15.80335,-20.15147 z m 72.987479,-0.52163 c 3.03662,-6.47946 3.12456,-11.84117 0.25226,-15.4889 -3.20094,-4.0663 -8.84598,-4.37961 -13.07918,-3.32274 -5.5108,1.40068 -10.53788,5.04841 -13.76892,10.03835 -0.43976,0.67105 -0.74989,1.34215 -1.04615,1.92207 -0.10187,0.20812 -0.21984,0.44672 -0.33794,0.6711 -0.0138,-0.0125 -0.0302,-0.0331 -0.0439,-0.0465 -1.10401,-0.79029 -2.1085,-1.92205 -3.16854,-3.11223 -1.1665,-1.28137 -2.36077,-2.62359 -3.8328,-3.72494 -4.716921,-3.52849 -9.996287,-5.24248 -14.861343,-4.85426 -5.927407,0.49114 -11.218337,4.45206 -12.854679,9.63608 -1.502102,4.74907 0.01377,9.57536 1.562277,12.79284 3.170852,6.62673 8.977911,12.49591 16.777746,16.94797 6.809236,3.88859 14.268839,6.32979 21.492369,8.69852 0.22221,0.0597 0.45597,0.10542 0.67814,0.10542 0.63416,0 1.26836,-0.28302 1.69422,-0.79034 7.54987,-9.05386 15.36127,-18.42341 20.53647,-29.47424 z m 53.18932,0.52163 c 3.19863,-5.94395 2.18027,-9.60811 0.75219,-11.64708 -2.27048,-3.2619 -6.53149,-3.75298 -9.76018,-3.14265 -4.12672,0.80433 -7.95951,3.27826 -10.55408,6.80681 -0.26388,0.37184 -0.50224,0.75992 -0.72444,1.13171 -0.49993,-0.49116 -0.98598,-1.10136 -1.4859,-1.74205 -0.7985,-0.9821 -1.60858,-2.01093 -2.65473,-2.89011 -3.31667,-2.78493 -7.12168,-4.28848 -10.74618,-4.18561 -4.54102,0.11933 -8.57981,2.81535 -10.07035,6.718 -1.04615,2.7545 -0.84016,6.07718 0.60641,9.59167 2.03443,4.94547 5.98528,9.42802 11.43822,12.97288 4.73081,3.06787 9.9361,5.10687 14.97707,7.08739 0.26616,0.10542 0.53005,0.14979 0.79848,0.14979 0.60162,0 1.17577,-0.23861 1.60628,-0.69915 5.73529,-6.13571 11.67429,-12.46547 15.81721,-20.15147 z m 15.71538,-34.38933 c -0.12004,4.51291 -0.36805,8.93693 -0.75219,13.2394 -2.09458,23.28012 -8.00582,43.52041 -17.45359,59.85811 -42.39915,7.40309 -85.3862,9.79979 -128.211224,7.14817 C 48.605831,252.96693 37.329633,251.92405 26.097408,250.52339 13.240412,230.44674 6.1650102,203.83227 5.4428869,172.51076 c 40.3462141,0.90959 81.6992281,1.3562 125.0241931,1.3562 24.57757,0 49.81476,-0.1498 75.83428,-0.43282"
       style="fill:#ffffff;fill-opacity:1;fill-rule:nonzero;stroke:none;stroke-width:0.232636"
       id="path68" />
    <path
       d="m 67.917951,106.9495 c 3.080597,-5.71944 2.09231,-9.278357 0.72212,-11.244816 -2.212659,-3.156708 -6.323187,-3.633737 -9.450068,-3.037472 -3.962398,0.757616 -7.665596,3.140338 -10.139781,6.537838 -0.252262,0.327443 -0.458268,0.654877 -0.636464,0.99616 -0.455969,-0.460658 -0.884128,-1.012527 -1.340082,-1.575994 -0.752215,-0.954073 -1.53451,-1.936113 -2.550578,-2.770934 0,0 0,0 0,-0.01391 -3.182416,-2.679664 -6.853207,-4.108386 -10.348086,-4.02182 -4.379021,0.105425 -8.285883,2.712406 -9.713925,6.481768 -1.018373,2.67966 -0.812386,5.86679 0.574002,9.26197 1.95806,4.73741 5.749195,9.05625 10.982264,12.45143 4.541034,2.94858 9.521813,4.89874 14.342898,6.79276 0.26618,0.10279 0.532346,0.14714 0.812389,0.14714 0.587908,0 1.178075,-0.23861 1.606262,-0.69914 5.483017,-5.86919 11.158162,-11.94404 15.139076,-19.30272 z m 69.478709,-1.35381 c 3.03662,-6.495821 3.12456,-11.841179 0.25226,-15.491285 -3.20094,-4.0663 -8.84598,-4.37729 -13.07918,-3.320354 -5.5108,1.400612 -10.53788,5.04841 -13.76892,10.03828 -0.43976,0.668796 -0.74989,1.339901 -1.04615,1.922129 -0.10187,0.208129 -0.21984,0.444102 -0.33794,0.668719 -0.0138,-0.01394 -0.0302,-0.03314 -0.0439,-0.04647 -1.10401,-0.788034 -2.1085,-1.922053 -3.16854,-3.112287 -1.1665,-1.295423 -2.36077,-2.621209 -3.8328,-3.722555 -4.27717,-3.203495 -9.02419,-4.915112 -13.48884,-4.915112 -0.474484,0 -0.914235,0.02656 -1.372503,0.05967 -5.927407,0.491145 -11.218337,4.452131 -12.854679,9.636147 -1.502102,4.737418 0.01377,9.577678 1.562277,12.792788 3.170852,6.62909 8.977911,12.48184 16.777746,16.95034 6.809236,3.88628 14.268839,6.32978 21.492369,8.68206 0.22221,0.075 0.45597,0.11934 0.67814,0.11934 0.63416,0 1.26836,-0.28302 1.69422,-0.8044 7.54987,-9.03987 15.36127,-18.40709 20.53647,-29.45785 z m 49.63661,2.54405 c 3.1384,-5.80602 2.13854,-9.39528 0.73598,-11.378189 -2.22653,-3.201117 -6.39726,-3.692137 -9.55189,-3.081866 -4.02489,0.773985 -7.76745,3.187125 -10.29025,6.626715 -0.24996,0.34401 -0.46981,0.70154 -0.66193,1.04289 -0.47219,-0.47723 -0.93044,-1.04289 -1.4026,-1.636774 -0.76609,-0.954073 -1.55996,-1.952485 -2.57833,-2.815344 -3.2426,-2.726467 -6.95968,-4.171489 -10.49621,-4.08267 -4.4369,0.105425 -8.38772,2.756885 -9.84817,6.568328 -1.01606,2.69604 -0.82396,5.94394 0.5902,9.36956 1.98815,4.82389 5.83715,9.18713 11.14428,12.64318 4.60121,2.9953 9.66994,4.97589 14.57898,6.89563 0.26617,0.10543 0.53235,0.14979 0.79619,0.14979 0.60641,0 1.18038,-0.23861 1.60626,-0.69921 5.58719,-5.95794 11.35489,-12.12406 15.37749,-19.60191 z m -1.74052,-29.116504 c 11.60251,23.845984 18.78209,49.939004 20.61051,75.332944 C 139.34315,140.77305 72.0609,140.68184 5.8687527,154.05658 7.7272929,128.85672 14.846665,102.97407 26.314969,79.305868 c 0.03018,0 0.06232,0 0.104187,0 52.703283,-8.801383 106.156464,-8.890271 158.873594,-0.283035"
       style="fill:#ffffff;fill-opacity:1;fill-rule:nonzero;stroke:none;stroke-width:0.232636"
       id="path70" />
    <path
       d="m 187.72759,198.75344 c 1.32619,1.90576 -0.0761,5.16765 -1.03457,6.94011 -3.62449,6.73198 -8.90152,12.54031 -14.10683,18.12648 -4.40911,-1.728 -8.87376,-3.58927 -12.81302,-6.13571 -3.2727,-2.13019 -7.62163,-5.74988 -9.74402,-10.9339 -0.70591,-1.69755 -1.36786,-4.16916 -0.5601,-6.28531 0.84249,-2.18864 3.319,-3.781 6.04546,-3.84185 0.0741,0 0.14814,0 0.20601,0 2.49271,0 5.19141,1.11773 7.60773,3.15671 0,0 0,0 0.0138,0 0.69204,0.59654 1.34241,1.40068 2.02056,2.24949 0.81007,1.01246 1.63634,2.0413 2.69869,2.90416 0.39581,0.32744 1.60626,1.31173 3.15465,1.01479 1.5484,-0.2996 2.26823,-1.58072 2.80051,-2.53238 0.16205,-0.2996 0.33788,-0.62638 0.56029,-0.92359 1.93025,-2.63765 4.79099,-4.48255 7.82758,-5.06478 1.9326,-0.37184 4.31882,-0.10278 5.32333,1.32578"
       style="fill:#f14c4a;fill-opacity:1;fill-rule:nonzero;stroke:none;stroke-width:0.232636"
       id="path72" />
    <path
       d="m 184.15866,99.338347 c 1.28224,1.816883 -0.088,4.959523 -1.00222,6.673513 -3.5226,6.52155 -8.62608,12.15218 -13.68093,17.57235 -4.27486,-1.68125 -8.59371,-3.47009 -12.39872,-5.94163 -3.18474,-2.06939 -7.39945,-5.56985 -9.46165,-10.6042 -0.67815,-1.63916 -1.31464,-4.01949 -0.54855,-6.06086 0.79619,-2.069414 3.24492,-3.633738 5.83947,-3.694517 0.0577,0 0.13188,0 0.19209,0 2.40244,0 5.01088,1.073305 7.35314,3.053827 0.69434,0.58196 1.31463,1.35388 1.97657,2.18865 0.7823,0.96806 1.57849,1.98052 2.62463,2.83166 1.04617,0.86285 2.10852,1.19022 3.12457,0.99615 1.52062,-0.29694 2.24043,-1.56433 2.75887,-2.50203 0.16199,-0.28304 0.32174,-0.5939 0.5439,-0.87685 1.87241,-2.56276 4.62898,-4.349194 7.56373,-4.901063 1.85624,-0.35792 4.15684,-0.105427 5.11503,1.265"
       style="fill:#f14c4a;fill-opacity:1;fill-rule:nonzero;stroke:none;stroke-width:0.232636"
       id="path74" />
    <path
       d="m 184.98263,251.56625 c -2.15253,3.29233 -4.46703,6.41868 -6.94115,9.33921 -1.74051,2.02493 -3.5528,3.94707 -5.42752,5.77792 -0.0577,0.0139 -0.10188,0.0266 -0.15968,0.0465 -9.37832,3.42562 -19.56209,4.52696 -29.61855,4.91511 -3.36064,0.11934 -6.70507,0.17763 -10.00785,0.19155 -31.01651,0.19421 -62.345461,-1.37025 -93.183742,-4.64389 -2.050638,-1.98283 -4.041098,-4.0686 -5.925093,-6.28529 -1.490533,-1.7584 -2.904693,-3.60569 -4.277184,-5.49734 10.040256,1.17611 20.094409,2.0857 30.162452,2.69605 11.380358,0.72956 22.776906,1.0873 34.171154,1.0873 30.514243,0 61.000723,-2.56275 91.207163,-7.62522"
       style="fill:#f14c4a;fill-opacity:1;fill-rule:nonzero;stroke:none;stroke-width:0.232636"
       id="path76" />
    <path
       d="m 178.08544,65.486827 c 1.65022,2.843394 3.25649,5.719445 4.77479,8.651728 -51.16647,-8.02741 -102.985618,-7.938522 -154.126616,0.283022 1.430358,-2.784925 2.950978,-5.525369 4.510944,-8.235466 47.338284,-9.844272 97.414622,-10.096806 144.840882,-0.699145"
       style="fill:#f14c4a;fill-opacity:1;fill-rule:nonzero;stroke:none;stroke-width:0.232636"
       id="path78" />
    <path
       d="m 125.20624,30.559673 c 3.12457,-5.80832 2.12239,-9.397655 0.73601,-11.378176 -2.22653,-3.201111 -6.39725,-3.694518 -9.56812,-3.08187 -4.00869,0.77398 -7.76742,3.18706 -10.29022,6.626723 -0.24996,0.344012 -0.45597,0.699148 -0.66193,1.042893 -0.45598,-0.477237 -0.91424,-1.042893 -1.3864,-1.639169 -0.76609,-0.951685 -1.56227,-1.950098 -2.58064,-2.812963 -3.242604,-2.710092 -6.97357,-4.171488 -10.493918,-4.080349 -4.439195,0.116663 -8.403906,2.754567 -9.848147,6.565941 -1.032271,2.696103 -0.82628,5.943952 0.590208,9.369563 1.976573,4.826294 5.834826,9.189537 11.141959,12.643174 4.601202,2.993062 9.672248,4.975961 14.565088,6.898025 0.26846,0.102783 0.54855,0.147151 0.81239,0.147151 0.59021,0 1.18039,-0.238626 1.60626,-0.699159 5.57328,-5.957932 11.35258,-12.124059 15.37747,-19.601909 z m 46.44953,24.517035 c 1.16649,1.742034 2.27283,3.514486 3.37681,5.300944 -45.5237,-8.490392 -93.299431,-8.265897 -138.751406,0.668713 1.238247,-2.010938 2.50659,-4.005451 3.818905,-5.969657 C 60.400485,24.557276 85.593715,5.600683 105.87792,5.600683 c 20.27032,0 45.47975,18.956593 65.77785,49.476025"
       style="fill:#ffffff;fill-opacity:1;fill-rule:nonzero;stroke:none;stroke-width:0.232636"
       id="path80" />
    <path
       d="m 142.99772,276.08104 c 7.26983,-0.25519 14.6114,-0.90966 21.74465,-2.50203 -15.50709,12.01885 -34.78911,18.48194 -56.72586,18.88414 -0.70823,0.0139 -1.43035,0.0139 -2.13859,0.0139 -23.630955,0 -44.255375,-6.95409 -60.544773,-20.22391 27.213787,2.69605 54.765493,4.0663 82.099633,4.0663 1.81225,0 3.61061,-0.014 5.42517,-0.014 3.34445,-0.0331 6.73516,-0.075 10.13977,-0.2247"
       style="fill:#ffffff;fill-opacity:1;fill-rule:nonzero;stroke:none;stroke-width:0.232636"
       id="path82" />
    <path
       d="m 134.18415,92.875282 c 2.21033,2.815341 0.79619,7.431118 -0.78229,10.812318 -4.71693,10.06871 -11.89649,18.87009 -18.97189,27.34644 -6.55926,-2.16062 -13.26898,-4.44047 -19.27045,-7.88014 -7.001337,-4.00782 -12.174231,-9.18946 -14.96088,-14.9978 -1.194279,-2.48798 -2.388543,-6.15206 -1.328518,-9.472489 1.106336,-3.514426 4.80952,-6.196483 9.008004,-6.554206 0.337946,-0.02656 0.694339,-0.04645 1.046149,-0.04645 3.511083,0 7.311474,1.414659 10.82257,4.035867 1.117885,0.834766 2.106175,1.952477 3.168525,3.128673 1.18039,1.325775 2.38856,2.681985 3.87678,3.752975 0.50223,0.37185 2.02055,1.45908 3.79113,1.02651 1.73819,-0.4441 2.51817,-2.03905 3.13846,-3.32041 0.23606,-0.49116 0.48602,-0.996102 0.78229,-1.428716 2.62463,-4.0663 6.6912,-7.028931 11.14196,-8.162962 2.75887,-0.685153 6.64954,-0.65486 8.53816,1.758349"
       style="fill:#f14c4a;fill-opacity:1;fill-rule:nonzero;stroke:none;stroke-width:0.232636"
       id="path84" />
    <path
       d="m 134.18415,194.58428 c 2.21033,2.81296 0.79619,7.43113 -0.78229,10.81232 -4.71693,10.06632 -11.89649,18.87003 -18.97189,27.34404 -6.55926,-2.14423 -13.26898,-4.43806 -19.27045,-7.86368 -4.876634,-2.79897 -11.438219,-7.6696 -14.96088,-15.01424 -1.194279,-2.4856 -2.388543,-6.13571 -1.328518,-9.47011 1.106336,-3.51682 4.80952,-6.19649 9.008004,-6.55428 0.337946,-0.0139 0.694339,-0.0331 1.046149,-0.0331 3.511083,0 7.311474,1.40062 10.82257,4.0219 1.117885,0.83476 2.106175,1.95011 3.168525,3.14265 1.18039,1.3118 2.38856,2.66568 3.87678,3.73894 0.50223,0.37183 2.03675,1.47312 3.79113,1.0265 1.73819,-0.43017 2.51817,-2.02493 3.13846,-3.30637 0.23606,-0.49115 0.48602,-1.01246 0.78229,-1.4427 2.62463,-4.0663 6.6912,-7.03124 11.14196,-8.16303 2.75887,-0.68509 6.64954,-0.64094 8.53816,1.75843"
       style="fill:#f14c4a;fill-opacity:1;fill-rule:nonzero;stroke:none;stroke-width:0.232636"
       id="path86" />
    <path
       d="m 122.33164,21.758296 c 1.26835,1.81687 -0.088,4.959516 -1.01837,6.673511 -3.50646,6.521541 -8.6238,12.152098 -13.68096,17.572292 -4.26097,-1.683578 -8.593708,-3.470021 -12.396412,-5.941562 -3.168539,-2.069409 -7.387866,-5.569847 -9.450068,-10.60421 -0.67815,-1.639168 -1.328518,-4.019568 -0.546251,-6.060867 0.796186,-2.069406 3.244917,-3.633737 5.823262,-3.694518 0.07406,0 0.134226,0 0.206006,0 2.40476,0 4.999295,1.073244 7.357757,3.053832 0.675837,0.581964 1.296125,1.353891 1.960386,2.188642 0.77998,0.968063 1.59237,1.980521 2.62463,2.831656 1.06004,0.862874 2.10618,1.190165 3.12456,0.996102 1.53451,-0.296957 2.24043,-1.564272 2.77045,-2.501973 0.14813,-0.28302 0.32403,-0.593885 0.53003,-0.879174 1.87475,-2.560421 4.629,-4.33288 7.56377,-4.898733 1.87243,-0.357926 4.17303,-0.105384 5.13122,1.265002"
       style="fill:#f14c4a;fill-opacity:1;fill-rule:nonzero;stroke:none;stroke-width:0.232636"
       id="path88" />
    <path
       d="m 65.013265,98.281486 c 1.254453,1.786434 -0.08797,4.854264 -0.988286,6.537824 -3.448596,6.40461 -8.475673,11.94642 -13.442561,17.27772 -4.186919,-1.65315 -8.434014,-3.41156 -12.176543,-5.83875 -3.112989,-2.02732 -7.253617,-5.48097 -9.288057,-10.42643 -0.664256,-1.60875 -1.296111,-3.93069 -0.530043,-5.927652 0.7661,-2.0413 3.168539,-3.558826 5.705219,-3.617296 0.05774,0 0.131941,0 0.192098,0 2.356154,0 4.909042,1.05688 7.223534,2.99299 0.661932,0.566043 1.268343,1.325838 1.916399,2.144238 0.779982,0.96805 1.576168,1.96653 2.592222,2.79897 1.048461,0.85114 2.094623,1.17612 3.11299,0.98443 1.515993,-0.29694 2.22655,-1.54796 2.740366,-2.47161 0.148144,-0.285 0.324028,-0.58195 0.532332,-0.86518 1.826131,-2.51834 4.538715,-4.258054 7.41332,-4.809853 1.828444,-0.357931 4.06887,-0.105425 4.996983,1.220599"
       style="fill:#f14c4a;fill-opacity:1;fill-rule:nonzero;stroke:none;stroke-width:0.232636"
       id="path90" />
    <path
       d="m 61.56467,198.75344 c 1.326205,1.90576 -0.08797,5.16765 -1.029945,6.94011 -3.64301,6.73198 -8.906158,12.54031 -14.125336,18.12648 -4.390598,-1.74204 -8.859874,-3.58927 -12.794509,-6.13571 -3.272692,-2.13019 -7.621625,-5.74988 -9.76021,-10.9339 -0.692035,-1.69755 -1.356293,-4.16916 -0.543887,-6.28531 0.82396,-2.18864 3.314353,-3.781 6.043137,-3.84185 0.07407,0 0.131941,0 0.206008,0 2.49271,0 5.175203,1.11773 7.607739,3.15671 0.705917,0.59654 1.356285,1.40068 2.034435,2.24949 0.793873,1.01246 1.620139,2.0413 2.68249,2.90416 0.398107,0.32744 1.606262,1.31173 3.168539,1.01479 1.548401,-0.2996 2.270521,-1.58072 2.800541,-2.53238 0.161979,-0.2996 0.337946,-0.62638 0.560086,-0.92359 1.932602,-2.63765 4.779426,-4.48255 7.813726,-5.06478 1.932602,-0.37184 4.335049,-0.10278 5.337213,1.32578"
       style="fill:#f14c4a;fill-opacity:1;fill-rule:nonzero;stroke:none;stroke-width:0.232636"
       id="path92" />
    <path
       d="m 59.6043,258.10417 c 11.380357,0.72958 22.776905,1.0873 34.171153,1.0873 30.514237,0 61.000717,-2.56275 91.209477,-7.62522 -2.15483,3.29233 -4.46933,6.41868 -6.94345,9.33921 -1.74051,2.02493 -3.5528,3.94467 -5.42752,5.77792 -0.0577,0.0139 -0.10188,0.0266 -0.15968,0.0465 -9.37832,3.42562 -19.56209,4.52696 -29.61855,4.91511 -3.36064,0.11934 -6.70507,0.17763 -10.00785,0.19155 -31.01651,0.19421 -62.345461,-1.37025 -93.183742,-4.64389 -2.050638,-1.98283 -4.041098,-4.0686 -5.925093,-6.28529 -1.490533,-1.7584 -2.904693,-3.60569 -4.277184,-5.49734 10.040256,1.17611 20.094409,2.0857 30.162452,2.69605 z M 5.4428869,172.51076 c 40.3462141,0.90959 81.6992281,1.3562 125.0241931,1.3562 24.57757,0 49.81476,-0.1498 75.83428,-0.43282 -0.12004,4.51291 -0.36805,8.93693 -0.75219,13.23939 -2.09458,23.28013 -8.00582,43.52041 -17.45359,59.85811 -42.39915,7.4031 -85.3862,9.7998 -128.211224,7.14817 C 48.605831,252.96667 37.329633,251.92378 26.097408,250.5231 13.240412,230.44647 6.1626947,203.83201 5.4428869,172.51049 Z m -0.087983,-5.36172 c 0,-2.81536 0.087983,-5.64469 0.2337592,-8.4904 66.3680499,-13.56676 133.8562869,-13.47793 200.5923769,0.2996 0.1345,2.74044 0.20864,5.48097 0.20864,8.19106 0,0.61046 -0.0138,1.20653 -0.0328,1.81686 -71.92514,0.79035 -137.705302,0.49116 -200.9904448,-0.92364 0,-0.31352 -0.013781,-0.59654 -0.013781,-0.89322 z M 26.314936,79.306201 c 0.03018,0 0.06232,0 0.104187,0 C 79.122411,70.504805 132.57558,70.41593 185.29275,79.023166 196.89526,102.86916 204.07484,128.96217 205.90326,154.35611 139.34315,140.77298 72.0609,140.6841 5.8687527,154.05653 7.7272929,128.85666 14.846665,102.974 26.314969,79.305798 Z m 6.929589,-13.12023 C 80.582814,56.3417 130.65915,56.089166 178.08544,65.486827 c 1.65022,2.843394 3.25649,5.719445 4.77479,8.651728 -51.1665,-8.02741 -102.985646,-7.938522 -154.126649,0.283022 1.430358,-2.784925 2.950978,-5.525369 4.510944,-8.235466 z M 40.100051,55.076708 C 60.400458,24.557276 85.593687,5.600683 105.87789,5.600683 c 20.27031,0 45.47975,18.956593 65.77783,49.476025 1.16654,1.742034 2.27288,3.514486 3.37686,5.300944 -45.52374,-8.490392 -93.299458,-8.265897 -138.751439,0.671105 1.238252,-2.01333 2.506596,-4.007843 3.81891,-5.972049 z M 108.01648,292.46315 c -0.70823,0.0139 -1.43036,0.0139 -2.13859,0.0139 -23.630952,0 -44.255386,-6.95409 -60.544771,-20.22391 27.213788,2.69605 54.765491,4.0663 82.099631,4.0663 1.81225,0 3.6106,-0.014 5.42517,-0.014 3.34444,-0.0331 6.73516,-0.075 10.13977,-0.2247 7.26983,-0.25518 14.61139,-0.90967 21.74465,-2.50203 -15.50709,12.01887 -34.78911,18.48194 -56.72586,18.88414 z M 36.531107,270.37557 c 0.208303,0.38842 0.532346,0.71551 0.930425,0.92358 17.77761,16.81474 41.216461,25.64648 68.416358,25.64648 0.73832,0 1.46044,0 2.18257,-0.0331 30.02821,-0.51899 55.3418,-11.92766 73.32543,-33.10802 15.99546,-18.83967 25.72553,-45.09642 28.55618,-76.73126 0.57406,-6.4186 0.86791,-13.07575 0.86791,-19.92695 0,-38.88827 -12.9287,-80.647954 -35.48341,-114.562636 C 153.892,20.354937 127.93267,1.1271217 105.87789,1.1271217 83.809215,1.1271217 57.84988,20.354937 36.429263,52.583665 13.87455,86.498305 0.93191051,128.25799 0.93191051,167.14626 c 0,40.56943 10.16987749,73.99078 29.42412749,96.65821 1.974265,2.31027 4.041108,4.48486 6.175069,6.56832"
       style="fill:#452720;fill-opacity:1;fill-rule:nonzero;stroke:none;stroke-width:0.232636"
       id="path94" />
    <path
       d="m 149.46904,200.46511 c 0.84248,-2.18864 3.319,-3.781 6.04777,-3.84185 0.0717,0 0.14586,0 0.20365,0 2.49272,0 5.19141,1.11773 7.60774,3.15671 0,0 0,0 0.0138,0 0.69204,0.59654 1.34241,1.40068 2.02055,2.24949 0.81007,1.01246 1.63635,2.0413 2.6987,2.90416 0.39581,0.32744 1.60625,1.31173 3.15465,1.01479 1.54839,-0.2996 2.26824,-1.58072 2.8005,-2.53238 0.16206,-0.2996 0.33789,-0.62638 0.56029,-0.92359 1.93025,-2.63765 4.79101,-4.48255 7.82759,-5.06478 1.93261,-0.37184 4.31882,-0.10278 5.32334,1.32578 1.32619,1.90576 -0.0761,5.16765 -1.03457,6.94011 -3.62449,6.73198 -8.90152,12.54031 -14.10683,18.12648 -4.40912,-1.728 -8.87377,-3.58927 -12.81302,-6.13571 -3.27039,-2.13019 -7.62163,-5.74988 -9.74402,-10.9339 -0.70592,-1.69755 -1.36786,-4.16916 -0.5601,-6.28531 z m 7.91789,20.97219 c 4.73081,3.06787 9.9361,5.10687 14.97706,7.08739 0.26617,0.10542 0.53005,0.14979 0.7985,0.14979 0.60162,0 1.17577,-0.23861 1.60628,-0.69915 5.73529,-6.13571 11.67429,-12.46547 15.81721,-20.15147 3.19863,-5.94394 2.18027,-9.6081 0.75219,-11.64708 -2.27048,-3.26189 -6.53149,-3.75298 -9.76018,-3.14266 -4.12672,0.80435 -7.95951,3.27827 -10.55408,6.80682 -0.26388,0.37185 -0.50224,0.75993 -0.72444,1.13171 -0.49993,-0.49115 -0.98598,-1.10135 -1.4859,-1.74204 -0.7985,-0.98443 -1.60858,-2.01094 -2.65473,-2.89011 -3.31667,-2.78493 -7.12168,-4.28848 -10.74618,-4.18561 -4.54102,0.11934 -8.57981,2.81535 -10.07035,6.718 -1.04615,2.75449 -0.84016,6.07484 0.60641,9.59167 2.03443,4.94546 5.98528,9.42802 11.43822,12.97287"
       style="fill:#452720;fill-opacity:1;fill-rule:nonzero;stroke:none;stroke-width:0.232636"
       id="path96" />
    <path
       d="m 147.06661,100.97752 c 0.79618,-2.069414 3.24491,-3.633738 5.83946,-3.694517 0.0577,0 0.13189,0 0.19209,0 2.40245,0 5.01089,1.073305 7.35314,3.053827 0.69434,0.58196 1.31463,1.35388 1.97658,2.18865 0.78229,0.96806 1.57848,1.98052 2.62463,2.83166 1.04616,0.86285 2.10851,1.19022 3.12457,0.99615 1.52061,-0.29694 2.24273,-1.56433 2.75886,-2.50203 0.162,-0.28304 0.32175,-0.59587 0.5439,-0.87685 1.87246,-2.56276 4.62902,-4.349194 7.56379,-4.901063 1.85624,-0.35792 4.15684,-0.105427 5.11503,1.265 1.28224,1.816883 -0.088,4.959523 -1.00222,6.673513 -3.5226,6.52155 -8.62608,12.15218 -13.68095,17.57235 -4.27487,-1.68125 -8.59371,-3.47009 -12.39873,-5.94163 -3.18474,-2.06939 -7.39943,-5.56985 -9.46165,-10.6042 -0.67815,-1.63916 -1.31462,-4.01949 -0.54855,-6.06086 z m 7.60773,20.41805 c 4.6012,2.9953 9.66994,4.97589 14.57898,6.89563 0.26618,0.10543 0.53234,0.14979 0.79618,0.14979 0.60641,0 1.18039,-0.23861 1.60627,-0.69921 5.5872,-5.95794 11.3549,-12.12406 15.3775,-19.60191 3.1384,-5.806 2.13854,-9.395278 0.73598,-11.378179 -2.22653,-3.201118 -6.39726,-3.692137 -9.55189,-3.081881 -4.02489,0.773985 -7.76745,3.187138 -10.29025,6.62672 -0.24996,0.34402 -0.46981,0.70155 -0.66193,1.0429 -0.47219,-0.47724 -0.93044,-1.0429 -1.4026,-1.636782 -0.76609,-0.954064 -1.55996,-1.952477 -2.57833,-2.815352 -3.2426,-2.726466 -6.95968,-4.171487 -10.49621,-4.082669 -4.4369,0.105425 -8.38772,2.756885 -9.84817,6.568324 -1.01606,2.696049 -0.82396,5.943959 0.5902,9.369569 1.98815,4.8239 5.83715,9.18947 11.14428,12.64317"
       style="fill:#452720;fill-opacity:1;fill-rule:nonzero;stroke:none;stroke-width:0.232636"
       id="path98" />
    <path
       d="m 95.15952,123.1539 c -7.001337,-4.00782 -12.174231,-9.18946 -14.96088,-14.9978 -1.194279,-2.48798 -2.388543,-6.15206 -1.328518,-9.472489 1.106336,-3.514426 4.80952,-6.196483 9.008004,-6.554206 0.337946,-0.02656 0.694339,-0.04645 1.046149,-0.04645 3.511083,0 7.3138,1.414659 10.82257,4.035867 1.120195,0.834766 2.106175,1.952477 3.168525,3.128673 1.18039,1.325775 2.38856,2.681985 3.87678,3.752975 0.50223,0.37185 2.02055,1.45908 3.79113,1.02651 1.73819,-0.4441 2.51817,-2.03905 3.13846,-3.32041 0.23606,-0.49116 0.48602,-0.996102 0.78229,-1.428716 2.62463,-4.0663 6.6912,-7.028931 11.14196,-8.162962 2.75887,-0.685153 6.64954,-0.65486 8.53816,1.758349 2.21033,2.815341 0.79619,7.431109 -0.78229,10.812319 -4.71693,10.06871 -11.89649,18.87009 -18.97189,27.34643 -6.55926,-2.16061 -13.26898,-4.44046 -19.27045,-7.88013 z m 20.00646,12.70404 c 0.63416,0 1.26834,-0.28303 1.6942,-0.8044 7.54988,-9.03987 15.36129,-18.40944 20.53648,-29.45785 3.03662,-6.495821 3.12456,-11.841179 0.25226,-15.491285 -3.20094,-4.0663 -8.84598,-4.37729 -13.07918,-3.320354 -5.5108,1.400612 -10.53788,5.04841 -13.76661,10.03828 -0.44206,0.668796 -0.7522,1.339901 -1.04846,1.922129 -0.10187,0.208129 -0.21984,0.444102 -0.33794,0.668719 -0.0138,-0.01394 -0.0302,-0.03314 -0.0439,-0.04647 -1.10401,-0.788034 -2.1085,-1.922053 -3.16854,-3.112287 -1.1665,-1.295423 -2.36077,-2.621209 -3.8328,-3.722555 -4.27717,-3.203495 -9.02419,-4.915112 -13.48884,-4.915112 -0.474484,0 -0.914235,0.02656 -1.372503,0.05967 -5.927407,0.491145 -11.218337,4.452131 -12.854679,9.636147 -1.502102,4.737408 0.01377,9.577678 1.562277,12.792778 3.170852,6.6291 8.977911,12.48185 16.777746,16.95034 6.809236,3.88629 14.268839,6.32978 21.492369,8.68207 0.22221,0.075 0.45597,0.11934 0.67814,0.11934"
       style="fill:#452720;fill-opacity:1;fill-rule:nonzero;stroke:none;stroke-width:0.232636"
       id="path100" />
    <path
       d="m 78.870122,200.39261 c 1.106336,-3.51682 4.80952,-6.19649 9.008004,-6.55428 0.337946,-0.0139 0.694339,-0.0331 1.046149,-0.0331 3.511083,0 7.3138,1.40062 10.82257,4.0219 1.120195,0.83476 2.106175,1.95011 3.168525,3.14265 1.18039,1.30948 2.38856,2.66568 3.87678,3.73894 0.50223,0.37183 2.03675,1.47312 3.79113,1.0265 1.73819,-0.43017 2.51817,-2.02493 3.13846,-3.30637 0.23606,-0.49115 0.48602,-1.01246 0.78229,-1.4427 2.62463,-4.0663 6.6912,-7.03124 11.14196,-8.16303 2.75887,-0.68509 6.64954,-0.64094 8.53816,1.75843 2.21033,2.81296 0.79619,7.43112 -0.78229,10.81231 -4.71693,10.06632 -11.89649,18.87005 -18.97189,27.34405 -6.55926,-2.14424 -13.26898,-4.43807 -19.27045,-7.86368 -4.876634,-2.79897 -11.438219,-7.66962 -14.96088,-15.01426 -1.194279,-2.48558 -2.388543,-6.13569 -1.328518,-9.47009 z m 14.125349,28.37057 c 6.809222,3.88859 14.268839,6.32977 21.492359,8.6985 0.22221,0.0597 0.45597,0.10542 0.67815,0.10542 0.63416,0 1.26834,-0.28303 1.6942,-0.79035 7.54988,-9.05385 15.36129,-18.42341 20.53648,-29.47423 3.03662,-6.47944 3.12456,-11.84116 0.25226,-15.48889 -3.20094,-4.06629 -8.84598,-4.37962 -13.07918,-3.32273 -5.5108,1.40068 -10.53788,5.04839 -13.76661,10.03834 -0.44206,0.67103 -0.7522,1.34216 -1.04846,1.92205 -0.10187,0.20814 -0.21984,0.44675 -0.33794,0.67112 -0.0138,-0.0139 -0.0302,-0.0331 -0.0439,-0.0465 -1.10401,-0.79029 -2.1085,-1.92207 -3.16854,-3.11224 -1.1665,-1.28137 -2.36077,-2.6236 -3.8328,-3.72494 -4.716921,-3.52848 -9.996287,-5.24248 -14.861343,-4.85427 -5.927407,0.49117 -11.218337,4.45207 -12.854679,9.63608 -1.502102,4.74908 0.01377,9.57537 1.562277,12.79286 3.170852,6.62673 8.977911,12.49591 16.777746,16.94798"
       style="fill:#452720;fill-opacity:1;fill-rule:nonzero;stroke:none;stroke-width:0.232636"
       id="path102" />
    <path
       d="m 85.78583,29.458327 c -0.67815,-1.639168 -1.328518,-4.019568 -0.546251,-6.060867 0.796186,-2.069406 3.244917,-3.633737 5.823262,-3.694518 0.07406,0 0.134226,0 0.208305,0 2.402447,0 4.996982,1.073244 7.355445,3.053832 0.675836,0.581964 1.296124,1.353891 1.960379,2.188642 0.77999,0.968063 1.59238,1.980521 2.62463,2.831656 1.06004,0.862874 2.10619,1.190165 3.12457,0.996102 1.53451,-0.296957 2.24043,-1.564272 2.77045,-2.501973 0.14814,-0.28302 0.32403,-0.593885 0.53003,-0.879174 1.87474,-2.560421 4.629,-4.33288 7.56376,-4.898733 1.87243,-0.357926 4.17303,-0.105384 5.13123,1.265002 1.26835,1.81687 -0.088,4.959516 -1.01837,6.673511 -3.50646,6.521541 -8.6238,12.152098 -13.68096,17.572292 -4.26097,-1.683578 -8.593708,-3.470021 -12.396412,-5.941562 -3.168539,-2.071801 -7.387866,-5.569847 -9.450068,-10.60421 z m 22.43667,21.402414 c 0.59021,0 1.18039,-0.238613 1.60627,-0.699145 5.57328,-5.957933 11.35257,-12.124059 15.37747,-19.601923 3.12457,-5.80832 2.12239,-9.397655 0.73601,-11.378176 -2.22653,-3.201111 -6.39725,-3.694518 -9.56812,-3.08187 -4.00869,0.77398 -7.76742,3.18706 -10.29022,6.626723 -0.24766,0.344012 -0.45597,0.699148 -0.66193,1.042893 -0.45598,-0.477237 -0.91424,-1.042893 -1.3864,-1.639169 -0.76609,-0.951685 -1.56227,-1.950098 -2.58064,-2.812963 -3.242604,-2.710092 -6.97357,-4.171488 -10.493918,-4.080349 -4.439195,0.116663 -8.403906,2.754567 -9.848147,6.565941 -1.032271,2.696103 -0.82628,5.943952 0.590208,9.369563 1.976573,4.826294 5.834826,9.189537 11.141959,12.643174 4.601202,2.993062 9.672248,4.975961 14.565088,6.898025 0.26846,0.102783 0.54855,0.147151 0.81239,0.147151"
       style="fill:#452720;fill-opacity:1;fill-rule:nonzero;stroke:none;stroke-width:0.232636"
       id="path104" />
    <path
       d="m 64.024979,104.81931 c -3.448596,6.40461 -8.475673,11.94642 -13.442561,17.27772 -4.186919,-1.65315 -8.434014,-3.41156 -12.176543,-5.83875 -3.112989,-2.02732 -7.253617,-5.48097 -9.288057,-10.42643 -0.664256,-1.60643 -1.296111,-3.93069 -0.530043,-5.927652 0.7661,-2.038978 3.168539,-3.558826 5.705219,-3.617296 0.05774,0 0.131941,0 0.192098,0 2.356154,0 4.909042,1.05688 7.223534,2.99299 0.661932,0.566043 1.268343,1.325838 1.916399,2.144238 0.779982,0.96805 1.576168,1.96653 2.592222,2.80129 1.048461,0.84882 2.094623,1.1738 3.11299,0.98211 1.515993,-0.29694 2.22655,-1.54796 2.740366,-2.47161 0.148144,-0.285 0.324028,-0.58195 0.532332,-0.86518 1.826131,-2.51834 4.538715,-4.258054 7.41332,-4.809853 1.828444,-0.357931 4.06887,-0.105425 4.996983,1.220599 1.254453,1.786434 -0.08797,4.854264 -0.988287,6.537824 z M 59.190003,92.667212 c -3.962398,0.757616 -7.665596,3.140338 -10.139781,6.537838 -0.252262,0.327443 -0.458268,0.654877 -0.636464,0.99616 -0.455969,-0.460658 -0.884128,-1.012527 -1.340082,-1.575994 -0.752215,-0.954073 -1.53451,-1.936113 -2.550578,-2.770934 0,0 0,0 0,-0.01391 -3.182416,-2.679664 -6.853207,-4.108386 -10.348086,-4.02182 -4.379021,0.105425 -8.285883,2.712406 -9.713925,6.481768 -1.018373,2.67966 -0.812386,5.86679 0.574002,9.26429 1.95806,4.73509 5.749195,9.05393 10.982264,12.44911 4.541034,2.94858 9.521813,4.89874 14.342898,6.79276 0.26618,0.10279 0.532346,0.14714 0.812389,0.14714 0.587908,0 1.178075,-0.23861 1.606262,-0.69914 5.483017,-5.86919 11.158162,-11.94404 15.139076,-19.30272 3.080598,-5.71944 2.092311,-9.278351 0.722135,-11.244824 -2.212659,-3.156694 -6.323201,-3.633736 -9.450082,-3.037458"
       style="fill:#452720;fill-opacity:1;fill-rule:nonzero;stroke:none;stroke-width:0.232636"
       id="path106" />
    <path
       d="m 60.534725,205.69355 c -3.64301,6.73198 -8.906158,12.54031 -14.125336,18.12648 -4.390598,-1.74204 -8.859874,-3.58927 -12.794509,-6.13571 -3.272692,-2.13019 -7.621625,-5.74988 -9.76021,-10.9339 -0.692035,-1.69755 -1.356293,-4.16916 -0.543887,-6.28531 0.82396,-2.18864 3.314353,-3.781 6.043137,-3.84185 0.07407,0 0.131941,0 0.206008,0 2.49271,0 5.175203,1.11773 7.607739,3.15671 0.705917,0.59654 1.356285,1.40068 2.034435,2.24949 0.793873,1.01246 1.620139,2.0413 2.68249,2.90416 0.398107,0.32744 1.606262,1.31173 3.168539,1.01479 1.548401,-0.2996 2.270521,-1.58072 2.800541,-2.53238 0.161979,-0.2996 0.337946,-0.62638 0.560086,-0.92359 1.932602,-2.63765 4.779426,-4.48255 7.813726,-5.06478 1.932602,-0.37184 4.335049,-0.10278 5.337213,1.32578 1.326205,1.90576 -0.08797,5.16765 -1.029945,6.94011 z m 4.640561,-9.5169 c -2.284411,-3.2619 -6.545382,-3.75298 -9.771783,-3.14265 -4.115168,0.80433 -7.961856,3.27826 -10.542514,6.80681 -0.277716,0.37184 -0.516129,0.75992 -0.719808,1.13171 -0.502224,-0.49116 -0.988286,-1.10136 -1.504415,-1.74205 -0.782295,-0.98442 -1.592372,-2.01093 -2.640833,-2.89011 -3.314356,-2.78493 -7.119381,-4.28848 -10.746184,-4.18561 -4.538722,0.11933 -8.593707,2.81535 -10.084239,6.718 -1.046154,2.7545 -0.840165,6.07486 0.606411,9.59167 2.034433,4.94547 5.999161,9.42802 11.440526,12.97288 4.730821,3.06787 9.947684,5.10687 14.990964,7.08739 0.252262,0.10542 0.532333,0.14979 0.796186,0.14979 0.590207,0 1.180388,-0.23861 1.606248,-0.69915 5.73532,-6.12164 11.660414,-12.46547 15.80335,-20.15147 3.198633,-5.94394 2.182565,-9.6081 0.766105,-11.64708"
       style="fill:#452720;fill-opacity:1;fill-rule:nonzero;stroke:none;stroke-width:0.232636"
       id="path108" />
  </g>
</svg>
