<?xml version="1.0" encoding="UTF-8" standalone="no"?>
<!-- Created with Inkscape (http://www.inkscape.org/) -->

<svg
   width="210mm"
   height="297mm"
   viewBox="0 0 210 297"
   version="1.1"
   id="svg1"
   inkscape:version="1.3.2 (091e20e, 2023-11-25)"
   sodipodi:docname="rysunek-2.svg"
   xmlns:inkscape="http://www.inkscape.org/namespaces/inkscape"
   xmlns:sodipodi="http://sodipodi.sourceforge.net/DTD/sodipodi-0.dtd"
   xmlns="http://www.w3.org/2000/svg"
   xmlns:svg="http://www.w3.org/2000/svg">
  <sodipodi:namedview
     id="namedview1"
     pagecolor="#ffffff"
     bordercolor="#000000"
     borderopacity="0.25"
     inkscape:showpageshadow="2"
     inkscape:pageopacity="0.0"
     inkscape:pagecheckerboard="0"
     inkscape:deskcolor="#d1d1d1"
     inkscape:document-units="mm"
     inkscape:zoom="0.377817"
     inkscape:cx="358.63924"
     inkscape:cy="615.37729"
     inkscape:window-width="1440"
     inkscape:window-height="872"
     inkscape:window-x="0"
     inkscape:window-y="28"
     inkscape:window-maximized="0"
     inkscape:current-layer="layer1" />
  <defs
     id="defs1" />
  <g
     inkscape:label="Warstwa 1"
     inkscape:groupmode="layer"
     id="layer1">
    <path
       d="m 205.50219,167.29675 c 0,1.58321 -0.0127,3.15242 -0.0458,4.70751 -0.22166,10.91863 -1.2203,21.27435 -2.92503,30.9686 -8.08078,-1.40265 -15.51565,-6.96169 -19.16042,-14.41586 -3.79009,-7.79904 -3.46484,-17.6903 0.82351,-25.20317 3.92394,-6.85843 11.16735,-11.7724 18.89515,-12.96866 0.51462,-0.075 1.04271,-0.13369 1.55943,-0.17819 0.54208,5.73722 0.85124,11.44401 0.85124,17.08982"
       style="fill:#ffffff;fill-opacity:1;fill-rule:nonzero;stroke:none;stroke-width:0.232611"
       id="path280" />
    <path
       d="m 204.20805,145.75265 c -0.55844,0.0466 -1.10038,0.12165 -1.64476,0.21142 -9.16731,1.32765 -17.51338,6.9617 -22.17316,15.13368 -5.09579,8.92016 -5.46485,20.1977 -0.96888,29.44626 4.3045,8.81466 12.75441,15.16411 22.26084,16.83651 -2.99657,14.65746 -7.73017,27.75977 -14.13389,39.0232 -2.67589,-13.29698 -7.56871,-26.16012 -14.28154,-38.0076 -13.37262,-23.73948 -33.98641,-43.42821 -58.39023,-54.52981 -1.32415,-0.5984 -2.6759,-1.19619 -4.02771,-1.792 -10.02085,-4.40732 -20.392293,-8.98121 -24.27238,-18.40802 -2.968869,-7.18448 -1.660903,-16.31343 3.880087,-27.12887 2.966558,-5.8264 6.655197,-11.608172 10.209993,-17.197662 8.50753,-13.355701 17.30806,-27.159391 17.79247,-43.33911 0.47082,-15.762251 -8.23995,-31.597172 -21.494918,-39.7409574 2.851205,-0.6708697 5.642448,-1.0132854 8.346078,-1.0132854 0.76356,0 1.54326,0.026589 2.33677,0.072467 5.47872,0.3896225 11.28269,2.1063569 17.20429,5.0054588 0.0876,0.194812 0.17525,0.373001 0.3093,0.537227 7.40491,9.279081 12.35763,23.769998 12.32769,36.051366 -0.0458,11.547272 -3.32182,23.753575 -9.49257,35.317268 -1.33565,2.495656 -2.82126,5.005397 -4.2446,7.423709 -2.49824,4.198557 -5.08423,8.561352 -7.08425,13.207889 -2.65746,6.22986 -5.19956,15.53706 -2.12916,24.4408 2.20299,6.37998 7.31722,12.04221 14.01625,15.53945 5.46714,2.85222 12.13844,4.42136 19.8363,4.67467 0.73362,0.0129 1.46946,0.0333 2.1892,0.0333 18.64601,0 37.11443,-7.76852 50.3371,-21.11013 1.41178,6.43856 2.52831,12.87718 3.29188,19.31574"
       style="fill:#95d3f3;fill-opacity:1;fill-rule:nonzero;stroke:none;stroke-width:0.232611"
       id="path282" />
    <path
       d="m 199.72817,121.2673 v 0.0129 c -12.97583,14.25402 -32.10631,22.36502 -51.19065,21.75287 -7.03806,-0.22275 -13.09116,-1.64427 -17.97013,-4.18221 -5.70013,-2.97416 -10.03464,-7.7239 -11.87315,-13.04366 -2.59979,-7.52929 -0.33676,-15.65673 2.01382,-21.15472 1.88003,-4.37682 4.39447,-8.605899 6.81666,-12.698928 1.45559,-2.448774 2.96884,-5.003062 4.33453,-7.590276 6.526,-12.203967 9.99082,-25.158534 10.03463,-37.43758 0.0327,-10.548019 -3.18566,-22.228989 -8.50523,-31.672226 12.38529,8.216522 24.97827,21.185188 36.17326,37.676877 -11.53411,6.694271 -20.84907,17.643338 -25.63798,30.239068 -2.71977,7.170385 -3.248,13.447174 -1.52949,18.675445 3.2342,9.87481 13.57795,14.56598 22.99675,14.56598 1.27799,0 2.52597,-0.0891 3.74627,-0.26994 9.71169,-1.3581 18.14545,-6.78104 25.63799,-11.95066 1.89619,5.64575 3.54094,11.33843 4.95272,17.07573"
       style="fill:#ffffff;fill-opacity:1;fill-rule:nonzero;stroke:none;stroke-width:0.232611"
       id="path284" />
    <path
       d="m 172.01633,56.667935 c 8.65524,13.416669 15.81095,28.010835 21.24586,43.146751 -7.34724,5.094634 -15.60334,10.620764 -24.72913,11.892084 -8.57906,1.2103 -19.14428,-2.69039 -21.96554,-11.28224 -1.36561,-4.196223 -0.8812,-9.469044 1.46944,-15.640247 4.46831,-11.727852 13.17888,-21.933382 23.97937,-28.116348"
       style="fill:#95d3f3;fill-opacity:1;fill-rule:nonzero;stroke:none;stroke-width:0.232611"
       id="path286" />
    <path
       d="m 184.09259,252.05152 c 0,0.0129 0.0127,0.0129 0.0127,0.0266 -2.14539,3.25794 -4.42221,6.36582 -6.87663,9.26498 -0.26287,0.31184 -0.5447,0.59574 -0.80744,0.91011 -0.0127,-0.0129 -0.0327,-0.0129 -0.0458,-0.0129 -14.25381,-3.33075 -21.74641,-19.16567 -24.31847,-25.82941 -1.8939,-4.9304 -3.39335,-10.17508 -4.84664,-15.23918 -2.11767,-7.4097 -4.30687,-15.07496 -7.83166,-22.13984 -2.73357,-5.5121 -5.67247,-9.24855 -9.24343,-11.7724 -4.81892,-3.39172 -10.69671,-4.13991 -15.32419,-1.9281 -6.62749,3.1384 -9.02202,11.2212 -9.05196,17.73251 -0.0127,2.81 0.27922,5.58949 0.56039,8.27755 0.36685,3.49491 0.71976,6.79747 0.42438,10.08592 -0.73353,8.54492 -5.81776,17.07572 -15.51565,26.09916 -2.159181,2.01719 -4.452162,4.00387 -6.671331,5.91556 -5.979281,5.18371 -12.150023,10.53392 -16.823635,17.2563 -2.922747,4.19624 -5.361054,8.15556 -5.478705,13.04141 -10.800529,-5.18372 -20.33462,-12.49014 -28.357743,-21.82786 20.348473,-12.60745 33.866435,-25.97955 42.433971,-41.98103 11.017371,-20.55653 11.769396,-44.32654 1.953882,-62.0145 -4.159213,-7.49877 -10.02314,-13.74504 -15.707159,-19.78021 -2.101505,-2.24 -4.290673,-4.5574 -6.31838,-6.88656 -9.169613,-10.47301 -13.575625,-19.94437 -13.487976,-28.9537 0.10146,-9.591055 5.245716,-19.346247 15.690996,-29.835691 2.306819,-2.300964 4.761275,-4.585579 7.125771,-6.79745 6.452179,-5.990566 13.107348,-12.175854 17.912462,-19.899769 6.728994,-10.801329 7.34722,-21.469031 4.745126,-29.446328 -0.705889,-2.16726 -1.644768,-4.123487 -2.777407,-5.842748 1.923881,-0.9547085 3.836234,-1.7756423 5.730142,-2.4792915 0.177596,0.2107689 0.412939,0.4035842 0.675902,0.5392219 13.517934,6.7059756 22.627574,22.0506716 22.173174,37.3344006 -0.44073,14.9225 -8.52374,27.60738 -17.075082,41.038076 -3.628651,5.678654 -7.361086,11.549599 -10.445309,17.570669 -6.156905,12.05624 -7.522547,22.45411 -4.025399,30.92636 4.567502,11.0992 16.265411,16.2524 26.593,20.79343 1.33795,0.58377 2.67361,1.16575 3.96775,1.76388 23.55263,10.71223 43.46282,29.71601 56.40635,52.61814 7.25962,12.86313 12.32769,26.95293 14.61836,41.47436"
       style="fill:#ffffff;fill-opacity:1;fill-rule:nonzero;stroke:none;stroke-width:0.232611"
       id="path288" />
    <path
       d="m 147.96314,238.05082 c 5.54097,14.40416 14.59064,24.41268 25.08204,27.87946 -4.99653,5.15319 -10.50525,9.59104 -16.47067,13.31109 -2.6298,-8.44174 -7.05194,-16.31345 -12.88592,-22.85759 -4.82122,-5.42293 -9.55024,-8.29158 -14.47294,-8.80055 -5.31957,-0.5512 -11.07735,1.79439 -16.1778,6.6192 -10.23997,9.69422 -14.163835,25.2477 -10.02077,38.76755 -13.105067,-0.25332 -25.271239,-2.70209 -36.233257,-7.21494 -0.629767,-4.54103 1.573254,-8.20249 4.555975,-12.47611 4.34835,-6.25796 10.048504,-11.18837 16.087758,-16.41895 2.249156,-1.93981 4.569813,-3.95701 6.788982,-6.01875 10.549062,-9.81624 16.090102,-19.31812 16.925132,-29.01467 0.32498,-3.73414 -0.0589,-7.4097 -0.43812,-10.96557 -0.28117,-2.68801 -0.54469,-5.21417 -0.53031,-7.76853 0.0327,-5.13917 1.7486,-11.444 6.50986,-13.71452 3.17423,-1.49415 7.46487,-0.88198 10.94586,1.56919 2.93889,2.07583 5.43719,5.27281 7.81785,10.10001 3.33333,6.70596 5.481,14.16253 7.53635,21.37754 1.48331,5.15553 3.01272,10.50339 4.98044,15.62614"
       style="fill:#95d3f3;fill-opacity:1;fill-rule:nonzero;stroke:none;stroke-width:0.232611"
       id="path290" />
    <path
       d="m 140.4268,259.38614 c 5.6263,6.31894 9.84317,13.97019 12.23764,22.14216 -13.1212,7.215 -28.26778,11.09927 -44.9876,11.44168 -4.24689,-12.03981 -0.85354,-26.77234 8.37373,-35.49552 2.39453,-2.27284 7.24341,-6.00696 12.72441,-5.43936 3.77629,0.38962 7.58258,2.79359 11.65182,7.35104"
       style="fill:#ffffff;fill-opacity:1;fill-rule:nonzero;stroke:none;stroke-width:0.232611"
       id="path292" />
    <path
       d="m 84.108046,17.778442 c 2.703596,8.380681 0.08765,18.494781 -4.320674,25.592508 -4.495987,7.200847 -10.932017,13.191471 -17.160437,18.989738 -2.394482,2.239997 -4.878925,4.540975 -7.243407,6.900642 -11.328808,11.35493 -16.89746,22.139838 -17.015111,32.98811 -0.101459,10.17268 4.671315,20.63161 14.590628,31.9701 2.099207,2.39014 4.304539,4.73565 6.436044,7.00616 5.49484,5.84283 11.165008,11.87799 15.058918,18.88422 9.065801,16.36032 8.302249,38.45561 -1.997706,57.68456 -8.258423,15.41744 -21.423448,28.33917 -41.388982,40.62059 -5.628639,-7.24545 -10.389912,-15.55114 -14.223849,-24.79969 8.286097,-1.58563 16.265394,-5.96243 22.715263,-12.56522 6.362204,-6.49959 11.284969,-15.19463 14.251527,-25.14219 3.144211,-10.53392 3.277996,-20.63393 0.528293,-28.95371 -0.998853,-3.06326 -2.394482,-5.87327 -4.170739,-8.38068 -3.644772,-5.17202 -8.669024,-8.8616 -13.531801,-12.41509 -3.102668,-2.28695 -6.304542,-4.63253 -9.024286,-7.3065 -9.079641,-8.90607 -13.515658,-22.81295 -11.296499,-35.4392 0.04381,-0.2367 0.04381,-0.4621 0.01367,-0.67081 C 22.119001,85.889065 30.008337,69.636601 39.75004,54.87594 52.548275,35.513266 67.298081,20.797152 81.521946,12.594722 c 1.130342,1.613743 1.983855,3.361191 2.585945,5.18372"
       style="fill:#95d3f3;fill-opacity:1;fill-rule:nonzero;stroke:none;stroke-width:0.232611"
       id="path294" />
    <path
       d="m 50.211624,168.47658 c 2.408321,7.42605 2.246846,16.53856 -0.618197,26.12962 -2.761258,9.24855 -7.317233,17.30092 -13.165025,23.29147 -6.053092,6.1853 -13.531814,10.17508 -21.259653,11.42999 -2.087672,-5.61763 -3.863925,-11.5496 -5.3056874,-17.79348 C 21.500972,206.62021 29.332618,193.8298 28.273792,180.99719 27.173437,167.56649 17.930013,156.70411 5.6323497,154.14982 c 0.9111922,-12.25092 3.0265516,-24.65197 6.2745533,-36.8864 1.497129,9.33766 5.875472,18.18283 12.650602,24.81374 2.938883,2.88507 6.272244,5.33385 9.506416,7.70989 4.775113,3.51131 9.301101,6.82797 12.532947,11.39946 1.540956,2.16732 2.74742,4.61609 3.614785,7.29007"
       style="fill:#ffffff;fill-opacity:1;fill-rule:nonzero;stroke:none;stroke-width:0.232611"
       id="path296" />
    <path
       d="m 23.881575,181.37018 c 0.867378,10.48937 -5.598645,21.33525 -14.9874064,25.72617 -2.4821392,-12.25093 -3.7624263,-25.56201 -3.7624263,-39.7996 0,-2.86865 0.087692,-5.7373 0.2352743,-8.63408 9.9331674,2.39013 17.6171924,11.6833 18.5145304,22.70751"
       style="fill:#95d3f3;fill-opacity:1;fill-rule:nonzero;stroke:none;stroke-width:0.232611"
       id="path298" />
    <path
       d="M 9.8630362,211.53418 C 21.500944,206.62021 29.33259,193.8298 28.273763,180.99719 27.173409,167.56649 17.929987,156.70411 5.6323229,154.14982 6.5435165,141.8989 8.658876,129.49785 11.906878,117.26342 c 1.497127,9.33766 5.87547,18.18283 12.650599,24.81374 2.938896,2.88507 6.272244,5.33385 9.506415,7.70989 4.775114,3.51131 9.301102,6.82797 12.532948,11.39946 1.540956,2.16732 2.747434,4.61609 3.614784,7.29007 2.408321,7.42605 2.246846,16.53856 -0.618197,26.12962 -2.761258,9.24855 -7.317233,17.30092 -13.165025,23.29147 -6.053092,6.1853 -13.531814,10.17508 -21.259653,11.42999 -2.087672,-5.61763 -3.863925,-11.5496 -5.3056874,-17.79348 z M 5.1317423,167.29675 c 0,-2.86865 0.087692,-5.7373 0.2352743,-8.63408 9.9331674,2.39013 17.6171924,11.6833 18.5145304,22.70751 0.867378,10.48937 -5.598643,21.33525 -14.9874038,25.72617 C 6.4120041,194.84542 5.1317155,181.53434 5.1317155,167.29675 Z M 16.315208,103.41279 c 0.04381,-0.2367 0.04381,-0.4621 0.01367,-0.67081 C 22.118988,85.889065 30.00831,69.636601 39.750013,54.87594 52.548262,35.513266 67.298068,20.797152 81.521919,12.594722 c 1.130356,1.613743 1.983868,3.361191 2.585959,5.18372 2.703595,8.380681 0.08765,18.494781 -4.320674,25.592508 -4.495987,7.200847 -10.932017,13.191471 -17.160437,18.989738 -2.394468,2.239997 -4.878925,4.540975 -7.243407,6.900642 -11.328808,11.35493 -16.89746,22.139838 -17.015111,32.98811 -0.101459,10.17268 4.671315,20.63161 14.590627,31.9701 2.099208,2.39014 4.304539,4.73565 6.436045,7.00616 5.49484,5.84283 11.165008,11.87799 15.058918,18.88422 9.0658,16.36032 8.302249,38.45561 -1.997706,57.68456 -8.258423,15.41744 -21.423448,28.34156 -41.388968,40.62059 -5.628654,-7.24545 -10.389931,-15.55114 -14.223868,-24.79969 8.286102,-1.58563 16.265399,-5.96243 22.715268,-12.56522 6.362204,-6.49959 11.284969,-15.19463 14.251541,-25.14219 3.144197,-10.53392 3.277996,-20.63393 0.528279,-28.95371 -0.998853,-3.06326 -2.394482,-5.87327 -4.170739,-8.38068 -3.644772,-5.17202 -8.669024,-8.8616 -13.531801,-12.41748 -3.102668,-2.28456 -6.304542,-4.63014 -9.024286,-7.30411 -9.079646,-8.90607 -13.515664,-22.81295 -11.296505,-35.4392 z M 91.20383,7.9927141 c 0.177596,0.2107689 0.41294,0.4035863 0.675902,0.539223 13.517938,6.7082929 22.627578,22.0506679 22.173178,37.3343969 -0.44073,14.922499 -8.52374,27.60738 -17.075086,41.038076 -3.62865,5.678654 -7.361086,11.549598 -10.445308,17.57067 -6.156905,12.05623 -7.522548,22.45413 -4.025399,30.92397 4.567501,11.1016 16.26541,16.25479 26.593013,20.79815 1.33794,0.58177 2.67361,1.16341 3.96774,1.76155 23.55262,10.71224 43.46282,29.71601 56.40635,52.61813 7.25963,12.86315 12.32769,26.95294 14.61837,41.47437 0,0.0129 0.0127,0.0129 0.0127,0.0266 -2.14539,3.25795 -4.42221,6.36583 -6.87663,9.265 -0.26287,0.31183 -0.5447,0.59573 -0.80744,0.91008 -0.0127,-0.0129 -0.0327,-0.0129 -0.0458,-0.0129 -14.25381,-3.33074 -21.74641,-19.16566 -24.31847,-25.82941 -1.8939,-4.93039 -3.39335,-10.17509 -4.84664,-15.23918 -2.11767,-7.40969 -4.30687,-15.07495 -7.83166,-22.13983 -2.73357,-5.5121 -5.67247,-9.24856 -9.24343,-11.77239 -4.81892,-3.39172 -10.69671,-4.13992 -15.32419,-1.92813 -6.62749,3.1384 -9.02202,11.22123 -9.05196,17.73251 -0.0127,2.81001 0.27922,5.5895 0.56039,8.27756 0.36685,3.49492 0.71976,6.79746 0.42438,10.08592 -0.73353,8.54491 -5.81776,17.07574 -15.51565,26.09916 -2.159181,2.0172 -4.452162,4.00388 -6.671331,5.91555 -5.979281,5.18372 -12.150023,10.53392 -16.823635,17.25632 -2.922747,4.19623 -5.361054,8.15555 -5.478705,13.0414 C 51.45399,278.55582 41.919899,271.24939 33.896776,261.914 54.245249,249.30425 67.763211,235.93212 76.330747,219.93065 87.348118,199.37411 88.097832,175.60412 78.284629,157.91616 74.125416,150.41737 68.261489,144.1711 62.57747,138.13595 60.475965,135.89594 58.286797,133.57855 56.25909,131.2494 47.089477,120.77638 42.683465,111.30502 42.771114,102.29568 42.874828,92.704638 48.01683,82.949431 58.46211,72.46 60.768929,70.159022 63.223385,67.874408 65.587881,65.662538 72.04006,59.671985 78.695229,53.486683 83.500343,45.762768 90.229337,34.96144 90.847563,24.293751 88.245469,16.316454 87.53958,14.149186 86.600701,12.192959 85.468062,10.473698 87.391943,9.5189891 89.304296,8.6980543 91.198204,7.9944061 Z m 14.10622,-2.7466414 c 0.76356,0 1.54326,0.026589 2.33677,0.072467 5.47872,0.3896235 11.28269,2.1063569 17.20429,5.0054593 0.0876,0.194811 0.17525,0.373001 0.3093,0.537227 7.40491,9.279084 12.35763,23.77 12.32769,36.051368 -0.0458,11.547273 -3.32182,23.753574 -9.49257,35.317268 -1.33565,2.495642 -2.82126,5.005397 -4.2446,7.42371 -2.49824,4.198557 -5.08423,8.561336 -7.08425,13.207898 -2.65746,6.22985 -5.19956,15.53704 -2.12916,24.44079 2.20299,6.37999 7.31722,12.04222 14.01625,15.53945 5.46714,2.85222 12.13844,4.42135 19.8363,4.67468 0.73362,0.0129 1.46946,0.0333 2.1892,0.0333 18.64601,0 37.11443,-7.76852 50.3371,-21.11012 1.41178,6.43855 2.52831,12.87718 3.29188,19.31573 -0.55844,0.0466 -1.10039,0.12165 -1.64476,0.21143 -9.16731,1.32765 -17.51339,6.96169 -22.17316,15.13367 -5.0958,8.92015 -5.46485,20.19769 -0.96888,29.44627 4.3045,8.81465 12.75441,15.1641 22.26084,16.8365 -2.99657,14.65746 -7.73017,27.75976 -14.13389,39.02319 -2.67591,-13.29697 -7.56873,-26.16012 -14.28154,-38.00759 -13.37263,-23.73947 -33.98643,-43.4282 -58.39023,-54.52981 -1.32416,-0.5984 -2.6759,-1.19619 -4.02771,-1.79199 -10.02085,-4.40734 -20.392296,-8.98121 -24.272382,-18.40802 -2.968869,-7.18451 -1.660904,-16.31345 3.880086,-27.12888 2.966559,-5.82639 6.655197,-11.608173 10.209996,-17.197678 8.50753,-13.355687 17.30806,-27.159377 17.79482,-43.33911 0.4682,-15.762237 -8.2423,-31.59716 -21.49727,-39.7409457 2.851204,-0.6708707 5.64245,-1.0132874 8.34607,-1.0132874 z m 64.25186,47.6854063 c -11.53411,6.694271 -20.84907,17.643338 -25.63798,30.239068 -2.71977,7.170386 -3.248,13.447173 -1.52949,18.675443 3.2342,9.8748 13.57795,14.56598 22.99675,14.56598 1.27799,0 2.52597,-0.0892 3.74627,-0.26994 9.71169,-1.3581 18.14545,-6.78104 25.63799,-11.95065 1.89619,5.64574 3.54094,11.33842 4.95272,17.07572 v 0.0129 c -12.97583,14.25402 -32.10631,22.36502 -51.19065,21.75287 -7.03806,-0.22274 -13.09116,-1.64426 -17.97013,-4.1822 -5.70013,-2.97416 -10.03464,-7.7239 -11.87315,-13.04366 -2.59979,-7.5293 -0.33676,-15.65672 2.01382,-21.15473 1.88003,-4.37681 4.39447,-8.605889 6.81666,-12.698919 1.45559,-2.448774 2.96884,-5.003061 4.33453,-7.587882 6.526,-12.20636 9.99082,-25.160927 10.03693,-37.439974 0.0327,-10.548018 -3.18796,-22.228988 -8.50753,-31.672225 12.38529,8.216521 24.97827,21.185187 36.17326,37.676876 z m 23.70028,46.883207 c -7.34724,5.094634 -15.60334,10.620764 -24.72913,11.892084 -8.57906,1.20798 -19.14428,-2.69039 -21.96554,-11.28224 -1.36561,-4.196223 -0.8812,-9.469044 1.46944,-15.640247 4.46831,-11.727852 13.17888,-21.933382 23.97937,-28.116348 8.65524,13.416669 15.81095,28.010835 21.24586,43.146751 z m 12.24,67.482064 c 0,1.58321 -0.0127,3.15242 -0.0458,4.70751 -0.22166,10.91863 -1.2203,21.27435 -2.92503,30.9686 -8.08078,-1.40265 -15.51565,-6.96169 -19.16042,-14.41586 -3.79009,-7.79904 -3.46484,-17.6903 0.82351,-25.20317 3.92394,-6.85843 11.16735,-11.7724 18.89515,-12.96866 0.51462,-0.075 1.04271,-0.13369 1.55943,-0.17819 0.54208,5.73722 0.85124,11.44401 0.85124,17.08982 z m -48.92768,111.94462 c -2.6298,-8.44174 -7.05194,-16.31345 -12.88592,-22.85759 -4.82122,-5.42293 -9.55024,-8.29158 -14.47294,-8.80055 -5.31957,-0.5512 -11.07971,1.79439 -16.1778,6.6192 -10.23997,9.69422 -14.163835,25.2477 -10.02077,38.76755 -13.105067,-0.25332 -25.271239,-2.70209 -36.233257,-7.21494 -0.629767,-4.54103 1.573254,-8.20249 4.555975,-12.47611 4.34835,-6.25796 10.048504,-11.18837 16.087758,-16.41895 2.249156,-1.93981 4.569813,-3.95701 6.788982,-6.01875 10.549062,-9.81624 16.090102,-19.31812 16.925132,-29.01467 0.32498,-3.73414 -0.0589,-7.4097 -0.43812,-10.96557 -0.28117,-2.68801 -0.54469,-5.21417 -0.53031,-7.76853 0.0327,-5.13917 1.7486,-11.444 6.50986,-13.71452 3.17423,-1.49415 7.46487,-0.88198 10.94586,1.56919 2.93889,2.07583 5.43719,5.27281 7.81785,10.10001 3.33333,6.70596 5.481,14.16253 7.53635,21.37754 1.48331,5.15553 3.01272,10.50339 4.98044,15.62614 5.54096,14.40416 14.59064,24.41268 25.08203,27.87946 -4.99652,5.15319 -10.50525,9.59104 -16.47067,13.31109 z m -48.89767,13.72861 c -4.24689,-12.03981 -0.85354,-26.77234 8.37373,-35.49552 2.39453,-2.27284 7.24341,-6.00696 12.72441,-5.43936 3.77629,0.38962 7.58258,2.79359 11.65182,7.35104 5.6263,6.31894 9.84317,13.97019 12.23764,22.14216 -13.1212,7.215 -28.26778,11.09927 -44.9876,11.44168 z M 11.450128,231.94065 c 0,0.0466 -0.01367,0.0891 0,0.11965 0.04381,0.41954 0.221476,0.77871 0.45675,1.09301 4.643624,11.84514 10.71057,22.28763 18.145453,31.10221 18.350753,21.75288 44.37169,33.24143 75.257719,33.24143 30.88371,0 56.92078,-11.48855 75.27154,-33.24143 18.42689,-21.84189 28.50536,-53.61731 29.26891,-92.14797 0.0458,-1.5833 0.0589,-3.19704 0.0589,-4.81079 0,-39.00917 -12.89979,-80.898697 -35.36819,-114.91884 C 154.04513,21.350753 129.37596,2.3305046 107.98251,0.86689261 107.08746,0.79175514 106.19011,0.76117862 105.3089,0.76117862 83.327204,0.76117862 57.453904,20.048786 36.090444,52.377719 13.610485,86.397862 0.7245842,128.28739 0.7245842,167.29655 c 0,23.93418 3.538662,45.35866 10.3437788,63.5837 0.115354,0.35904 0.249136,0.71774 0.380636,1.06024"
       style="fill:#452720;fill-opacity:1;fill-rule:nonzero;stroke:none;stroke-width:0.232611"
       id="path300" />
  </g>
</svg>
