<?xml version="1.0" encoding="UTF-8" standalone="no"?>
<!-- Created with Inkscape (http://www.inkscape.org/) -->

<svg
   width="1000"
   height="100"
   viewBox="0 0 264.58333 26.458333"
   version="1.1"
   id="svg1"
   inkscape:version="1.3.2 (091e20e, 2023-11-25)"
   sodipodi:docname="trawa.svg"
   xmlns:inkscape="http://www.inkscape.org/namespaces/inkscape"
   xmlns:sodipodi="http://sodipodi.sourceforge.net/DTD/sodipodi-0.dtd"
   xmlns="http://www.w3.org/2000/svg"
   xmlns:svg="http://www.w3.org/2000/svg">
  <sodipodi:namedview
     id="namedview1"
     pagecolor="#ffffff"
     bordercolor="#000000"
     borderopacity="0.25"
     inkscape:showpageshadow="2"
     inkscape:pageopacity="0.0"
     inkscape:pagecheckerboard="0"
     inkscape:deskcolor="#d1d1d1"
     inkscape:document-units="mm"
     inkscape:zoom="0.78131999"
     inkscape:cx="359.00784"
     inkscape:cy="47.9957"
     inkscape:window-width="1440"
     inkscape:window-height="872"
     inkscape:window-x="0"
     inkscape:window-y="28"
     inkscape:window-maximized="0"
     inkscape:current-layer="layer1" />
  <defs
     id="defs1" />
  <g
     inkscape:label="Warstwa 1"
     inkscape:groupmode="layer"
     id="layer1">
    <path
       d="m -4.5393665,18.345902 c 0,0 1.2470825,2.303928 2.6428286,4.589601 0.7590512,1.251643 1.56096307,2.49428 2.13271126,3.364978 H 264.79831 c 0.57162,-0.870698 1.37354,-2.113335 2.13241,-3.364978 1.3961,-2.285673 2.643,-4.589601 2.643,-4.589601 0,0 1.25675,-2.303685 2.36436,-4.622706 1.11701,-2.318534 2.08488,-4.6494821 2.08488,-4.6494821 0,0 -1.87261,2.1291561 -3.86655,4.2059781 -1.98778,2.080717 -4.09315,4.107152 -4.09315,4.107152 0,0 -0.99737,0.964656 -2.34182,2.210458 l -0.28602,-2.517648 -0.99203,-8.7342396 -2.86386,8.5872156 -0.8433,2.528359 c -0.54048,-0.96344 -0.89739,-1.660825 -0.89739,-1.660825 0,0 -1.01253,-1.954384 -1.82305,-3.960859 -0.8224,-2.002336 -1.4354,-4.0504361 -1.4354,-4.0504361 0,0 -0.35364,2.0670851 -0.48723,4.1624071 -0.14711,2.092157 -0.0713,4.205005 -0.0713,4.205005 0,0 0.0382,1.271846 0.18973,2.832627 -0.24258,-0.396768 -0.48925,-0.806922 -0.73061,-1.219269 -1.3715,-2.322184 -2.57334,-4.691592 -2.57334,-4.691592 0,0 -1.21169,-2.365756 -2.25002,-4.774597 -1.04818,-2.4051902 -1.91894,-4.8493264 -1.91894,-4.8493264 0,0 -0.0921,2.4959838 0.004,5.0053554 0.0856,2.507668 0.36101,5.024342 0.36101,5.024342 0,0 0.26389,2.515213 0.71914,5.034321 0.0971,0.551337 0.20364,1.10097 0.31059,1.625773 -0.25077,-0.748746 -0.53351,-1.591451 -0.81665,-2.43659 -0.88592,-2.496714 -1.77143,-4.993428 -1.77143,-4.993428 0,0 -0.9318,-2.487708 -1.8632,-4.9754151 -0.97688,-2.4782144 -1.95335,-4.9564288 -1.95335,-4.9564288 0,0 0.0169,2.5419893 0.0335,5.084222 -0.0307,2.5390689 -0.0614,5.0778929 -0.0614,5.0778929 0,0 -0.0784,2.535417 -0.15652,5.070834 -0.0537,1.078332 -0.10741,2.154716 -0.15121,3.037341 h -0.032 c 0.009,-0.476608 0.0158,-0.97707 0.0131,-1.478263 -0.002,-2.228227 -0.1635,-4.441605 -0.1635,-4.441605 0,0 -0.15202,-2.215325 -0.4614,-4.411665 -0.29994,-2.198773 -0.75559,-4.3749089 -0.75559,-4.3749089 0,0 -0.511,2.1737019 -1.17442,4.3194099 -0.65398,2.148386 -1.45752,4.265616 -1.45752,4.265616 0,0 -0.79536,2.120393 -1.7366,4.205735 -0.014,0.0314 -0.0279,0.06232 -0.0422,0.09347 0.0525,-0.512633 0.0918,-1.04547 0.11318,-1.578063 0.0226,-1.306656 -0.0566,-2.601627 -0.19831,-3.56677 -0.0499,-0.482205 -0.14875,-0.882624 -0.19176,-1.162066 -0.0508,-0.279197 -0.08,-0.438878 -0.08,-0.438878 0,0 -0.0385,-0.158951 -0.10568,-0.437417 -0.0755,-0.277494 -0.14506,-0.674749 -0.29708,-1.146732 -0.26265,-0.945913 -0.72036,-2.192201 -1.26823,-3.4131733 -0.57818,-1.2190256 -1.24528,-2.4107884 -1.82142,-3.2848939 -0.26756,-0.4403389 -0.5462,-0.7962125 -0.71421,-1.0491214 -0.17619,-0.2512049 -0.27699,-0.3948201 -0.27699,-0.3948201 0,0 0.0426,0.1535953 0.11755,0.4225695 0.0664,0.2697046 0.19873,0.6482159 0.28888,1.1107055 0.22168,0.9193808 0.40691,2.1496034 0.49705,3.3715497 0.0603,1.225598 0.0262,2.441216 -0.0779,3.347695 -0.0311,0.452753 -0.11343,0.82956 -0.14424,1.091962 -0.0394,0.262402 -0.0614,0.412347 -0.0614,0.412347 0,0 -0.0315,0.149456 -0.0861,0.411129 -0.0631,0.261428 -0.11477,0.634341 -0.24422,1.078331 -0.14465,0.592717 -0.37166,1.314444 -0.64498,2.067572 -0.92566,-1.456599 -1.56079,-2.599679 -1.56079,-2.599679 0,0 -1.32068,-2.340928 -2.33281,-4.759992 -1.03014,-2.4129792 -1.73987,-4.8916806 -1.73987,-4.8916806 0,0 -0.25732,2.5062073 -0.17579,5.0408946 0.0614,2.531278 0.46511,5.076676 0.46511,5.076676 0,0 0.30035,1.994548 0.87564,4.215471 -0.0315,-0.02799 -0.0635,-0.05452 -0.095,-0.08251 -0.85601,-0.794509 -1.65505,-1.626261 -2.19225,-2.272286 -0.54171,-0.644564 -0.8724,-1.089041 -0.8724,-1.089041 0,0 -0.32821,-0.441556 -0.772,-1.12385 -0.33396,-0.507521 -0.70234,-1.154034 -1.04734,-1.84655 0.0122,-0.15749 0.0238,-0.321796 0.0352,-0.500221 0.0737,-1.079061 0.0663,-2.51643 -0.0343,-3.942115 -0.12989,-1.4276326 -0.35281,-2.8421208 -0.59784,-3.8948933 -0.10257,-0.5269948 -0.2434,-0.9627088 -0.31593,-1.2681954 -0.0803,-0.3047564 -0.12622,-0.4790419 -0.12622,-0.4790419 0,0 -0.0144,0.1764763 -0.0393,0.4848838 -0.0333,0.3084076 -0.0429,0.747286 -0.12213,1.2733072 -0.11719,1.0520423 -0.37863,2.446327 -0.72816,3.8235725 -0.37862,1.3770021 -0.8437,2.7352611 -1.26657,3.7415421 -0.41756,1.006523 -0.7339,1.667883 -0.7339,1.667883 0,0 -0.31757,0.663795 -0.84945,1.642325 -0.0508,0.09445 -0.11513,0.203496 -0.17086,0.303297 -0.0952,-0.340296 -0.15859,-0.542088 -0.15859,-0.542088 0,0 -0.61423,-2.01402 -1.59851,-3.938464 -0.96335,-1.932963 -2.2787,-3.7541991 -2.2787,-3.7541991 0,0 0.37903,1.9733701 0.36797,3.9236161 0.009,1.59851 -0.23111,3.16489 -0.31963,3.683365 -0.42942,-1.397449 -0.71708,-2.429531 -0.71708,-2.429531 0,0 -0.71626,-2.537851 -1.28216,-5.1000439 -0.5749,-2.5597587 -0.99778,-5.1411814 -0.99778,-5.1411814 0,0 -0.13562,0.6428606 -0.32042,1.6097076 0.23766,-1.3563119 0.44294,-2.3126918 0.44294,-2.3126918 0,0 -1.55547,2.7269852 -2.8532,5.5189623 -1.31331,2.7868652 -2.36312,5.6311772 -2.36312,5.6311772 0,0 -1.02483,2.732584 -1.81485,5.56302 0.18316,-2.798792 0.10611,-5.266297 0.10611,-5.266297 0,0 -0.0653,-3.262743 -0.53476,-6.4916508 -0.43352,-3.2330463 -1.26576,-6.4174094 -1.26576,-6.4174094 0,0 -0.13318,3.2237965 -0.66627,6.4105938 -0.49745,3.1911784 -1.38666,6.3309974 -1.38666,6.3309974 0,0 -0.37902,1.391363 -0.9949,3.225743 -0.31757,-0.659413 -0.59253,-1.284261 -0.79496,-1.817097 -0.21185,-0.494621 -0.32616,-0.913052 -0.43639,-1.204664 -0.1008,-0.292342 -0.15817,-0.459326 -0.15817,-0.459326 0,0 -0.0479,-0.1682 -0.13113,-0.462245 -0.0742,-0.294534 -0.22333,-0.714912 -0.32658,-1.224138 -0.25283,-1.016747 -0.4741,-2.3852296 -0.5913,-3.7685606 -0.0837,-1.3811403 -0.0619,-2.7754249 0.0475,-3.8213818 0.0309,-0.5248041 0.1217,-0.9578405 0.15531,-1.2645441 0.0429,-0.3062169 0.0672,-0.4809893 0.0672,-0.4809893 0,0 -0.0837,0.1679567 -0.23029,0.4622462 -0.13769,0.2955066 -0.37739,0.7141814 -0.58842,1.2268148 -0.46919,1.0206416 -0.9769,2.402999 -1.37969,3.8079939 -0.3692,1.4052384 -0.63268,2.8311669 -0.7384,3.9073079 -0.0761,0.538191 -0.0759,0.987051 -0.10491,1.302759 -0.02,0.315711 -0.0311,0.496082 -0.0311,0.496082 0,0 -0.001,0.180127 -0.002,0.495838 0.007,0.315223 -0.0242,0.769437 0.015,1.311524 0.002,0.106128 0.008,0.218586 0.0144,0.331531 -0.0333,-0.107103 -0.0681,-0.219074 -0.10729,-0.340782 -0.2344,-0.712964 -0.59664,-1.653522 -1.03262,-2.57485 -0.43108,-0.922302 -0.9396,-1.823914 -1.36042,-2.488195 -0.41183,-0.6654979 -0.71915,-1.0985342 -0.71915,-1.0985342 0,0 0.29339,1.8786822 0.16228,3.7279102 -0.0505,0.924493 -0.17662,1.839492 -0.30693,2.520081 -0.0713,0.359525 -0.13727,0.651381 -0.18439,0.849521 -0.26757,-1.09537 -0.4487,-1.837057 -0.4487,-1.837057 l -2.69674,-11.0410895 -0.95353,9.1210265 c -0.134,-0.383622 -0.277,-0.778931 -0.42697,-1.173263 -0.80643,-2.1904972 -1.81404,-4.3362059 -1.81404,-4.3362059 0,0 0.0508,2.2287134 -0.10979,4.4401449 -0.13604,2.213134 -0.47573,4.403388 -0.47573,4.403388 0,0 -0.0684,0.470035 -0.19258,1.185434 -0.79045,-1.456599 -1.30715,-2.681954 -1.30715,-2.681954 0,0 -0.88184,-2.039335 -1.39896,-4.15413 -0.53924,-2.1082228 -0.6962,-4.2721878 -0.6962,-4.2721878 0,0 -0.80846,2.1077359 -1.23543,4.2863058 -0.37207,1.793973 -0.47698,3.617643 -0.50238,4.200137 -0.003,-0.181832 -0.009,-0.357578 -0.0208,-0.517745 -0.0459,-0.715643 -0.11476,-1.186408 -0.11476,-1.186408 0,0 -0.25938,-1.898399 -1.03835,-3.6921285 -0.39295,-0.8977168 -0.8601,-1.7703617 -1.27314,-2.4081107 -0.40853,-0.6384792 -0.71299,-1.0508252 -0.71299,-1.0508252 0,0 0.29545,1.8068741 0.0623,3.5633613 -0.11962,0.8797041 -0.3143,1.7426121 -0.52204,2.3806051 -0.20368,0.637992 -0.37125,1.054233 -0.37125,1.054233 0,0 -0.62081,1.567596 -1.65628,3.060707 -0.73594,-1.335864 -1.30512,-2.560975 -1.30512,-2.560975 0,0 -0.73715,-1.565163 -1.32107,-3.170975 -0.59334,-1.6019186 -1.02852,-3.2401057 -1.02852,-3.2401057 0,0 -0.53187,1.6255296 -0.90189,3.2848937 -0.38027,1.655956 -0.59539,3.340393 -0.59539,3.340393 0,0 -0.011,0.07959 -0.0274,0.215666 -0.26676,-0.520422 -0.41961,-0.847573 -0.41961,-0.847573 0,0 -1.06498,-2.229201 -1.71855,-4.5467606 -0.67777,-2.3107445 -0.92198,-4.6862376 -0.92198,-4.6862376 0,0 -0.72363,2.3365466 -1.00762,4.7393022 -0.3106,2.396914 -0.17292,4.833991 -0.17292,4.833991 0,0 0.007,0.151405 0.0258,0.415997 -0.29096,-0.818607 -0.76053,-2.080717 -1.30676,-3.329682 -0.90353,-2.0987297 -2.01317,-4.1431775 -2.01317,-4.1431775 0,0 0.15856,2.1483863 0.0948,4.2797335 -0.0499,2.133781 -0.31797,4.243707 -0.31797,4.243707 0,0 -0.25529,2.112848 -0.72322,4.193809 -0.0152,0.06913 -0.0311,0.138016 -0.0464,0.206903 -0.27494,-0.558152 -0.55685,-1.159876 -0.81625,-1.768658 -1.0076,-2.313909 -1.67716,-4.698651 -1.67716,-4.698651 0,0 -0.68923,-2.379145 -1.02688,-4.8111105 -0.35896,-2.4273405 -0.35485,-4.8916804 -0.35485,-4.8916804 0,0 -0.96541,2.3930191 -1.57596,4.8534642 -0.63227,2.4548467 -0.90191,4.9605667 -0.90191,4.9605667 0,0 -0.16513,1.4196 -0.21224,3.202619 -0.16227,-0.388734 -0.25571,-0.626065 -0.25571,-0.626065 0,0 -0.86009,-2.148386 -1.46942,-4.348133 -0.62447,-2.1951218 -0.99081,-4.4325981 -0.99081,-4.4325981 0,0 -0.60071,2.2165427 -0.94001,4.4739791 -0.35484,2.253542 -0.44377,4.537997 -0.44377,4.537997 0,0 -0.0155,0.343703 -0.0254,0.895526 -0.15817,-0.389465 -0.31716,-0.759456 -0.47082,-1.076627 -0.38929,-0.813252 -0.68474,-1.344385 -0.68474,-1.344385 0,0 -0.29624,-0.533809 -0.79248,-1.315904 -0.49213,-0.783311 -1.23625,-1.803466 -2.05045,-2.791247 -0.83921,-0.9836426 -1.74685,-1.9334504 -2.48648,-2.6208561 -0.73594,-0.6886227 -1.25511,-1.130909 -1.25511,-1.130909 0,0 1.23832,2.0417703 1.91526,4.1254081 0.33518,1.043523 0.58596,2.084612 0.7056,2.867192 0.12416,0.782094 0.16965,1.30057 0.16965,1.30057 0,0 0.0357,0.411373 0.0533,1.045471 l -4.741,-6.4349362 1.10595,7.1525252 0.57941,3.748113 c -0.0761,-0.103938 -0.15448,-0.205686 -0.22948,-0.310598 -0.75558,-1.107055 -1.42802,-2.247457 -1.85089,-3.120589 -0.23397,-0.434009 -0.3692,-0.803757 -0.49255,-1.060318 -0.11476,-0.25802 -0.1807,-0.405287 -0.1807,-0.405287 0,0 -0.0558,-0.148483 -0.15367,-0.408451 -0.0893,-0.260699 -0.25856,-0.631907 -0.38845,-1.083687 -0.30529,-0.901124 -0.60072,-2.118689 -0.79618,-3.354754 -0.16269,-1.2341168 -0.22334,-2.4847863 -0.17825,-3.4253443 -4.1e-4,-0.4717394 0.0627,-0.8616913 0.0779,-1.137968 0.0238,-0.2755465 0.0377,-0.4332798 0.0377,-0.4332798 0,0 -0.0735,0.1514045 -0.2016,0.4164841 -0.11889,0.2662967 -0.3319,0.6435909 -0.51179,1.1060806 -0.4065,0.9205979 -0.83225,2.1690766 -1.15513,3.4394624 -0.0429,0.189378 -0.079,0.378025 -0.11756,0.567159 -0.17743,-0.711748 -0.40198,-1.4760726 -0.69538,-2.2345556 -0.54295,-1.3677524 -1.20388,-2.7089726 -1.90869,-3.6665696 -0.2983,-0.4878049 -0.65726,-0.8699674 -0.86625,-1.1435665 -0.21962,-0.2706782 -0.345,-0.4254906 -0.345,-0.4254906 0,0 0.0688,0.1672266 0.1897,0.4598122 0.10895,0.294046 0.32168,0.7007935 0.44215,1.210019 0.34789,0.9997079 0.51836,2.3594276 0.56998,3.7023516 0.0382,1.3475485 -0.13848,2.6902295 -0.30037,3.6894515 -0.19176,1.001168 -0.34706,1.662528 -0.34706,1.662528 0,0 -0.045,0.165766 -0.12292,0.455674 -0.0868,0.289421 -0.17129,0.702254 -0.34134,1.195901 -0.30117,0.987781 -0.77897,2.296383 -1.33543,3.590136 -0.16063,0.375104 -0.32986,0.747286 -0.50115,1.111436 l 0.64047,-4.14415 1.10597,-7.1525252 -4.74059,6.4349362 c 0.0173,-0.634098 0.0529,-1.045471 0.0529,-1.045471 0,0 0.0456,-0.518476 0.16964,-1.30057 0.11961,-0.78258 0.37043,-1.823669 0.70561,-2.867192 0.67694,-2.0836378 1.91567,-4.1254081 1.91567,-4.1254081 0,0 -0.5196,0.4422863 -1.25554,1.130909 -0.73962,0.6874057 -1.64724,1.6372135 -2.48647,2.6208561 -0.81419,0.987781 -1.55833,2.007936 -2.05045,2.791247 -0.49624,0.782095 -0.79248,1.315904 -0.79248,1.315904 0,0 -0.29546,0.531133 -0.68474,1.344385 -0.15323,0.317171 -0.31266,0.687162 -0.47081,1.076627 -0.009,-0.551823 -0.0254,-0.895526 -0.0254,-0.895526 0,0 -0.0889,-2.284455 -0.44378,-4.537997 -0.33929,-2.2574364 -0.94001,-4.4739791 -0.94001,-4.4739791 0,0 -0.36632,2.2374763 -0.9908,4.4325981 -0.60933,2.199747 -1.46943,4.348133 -1.46943,4.348133 0,0 -0.0934,0.237331 -0.25569,0.626065 -0.0472,-1.783019 -0.21226,-3.202619 -0.21226,-3.202619 0,0 -0.26963,-2.50572 -0.90189,-4.9605667 -0.61055,-2.4604451 -1.57597,-4.8534642 -1.57597,-4.8534642 0,0 0.004,2.4643399 -0.35485,4.8916804 -0.33764,2.4319655 -1.02687,4.8111105 -1.02687,4.8111105 0,0 -0.66957,2.384742 -1.67716,4.698651 -0.2594,0.608782 -0.54131,1.210506 -0.81626,1.768658 -0.0152,-0.06889 -0.0311,-0.137774 -0.0464,-0.206903 -0.46793,-2.080961 -0.72322,-4.193809 -0.72322,-4.193809 0,0 -0.26799,-2.109926 -0.31798,-4.243707 -0.0635,-2.1313472 0.095,-4.2797335 0.095,-4.2797335 0,0 -1.10963,2.0444478 -2.01317,4.1431775 -0.54622,1.248965 -1.01581,2.511318 -1.30674,3.329682 0.0188,-0.264592 0.0257,-0.415997 0.0257,-0.415997 0,0 0.1377,-2.437077 -0.17291,-4.833991 -0.28396,-2.4027556 -1.00762,-4.7393022 -1.00762,-4.7393022 0,0 -0.24421,2.3754931 -0.92197,4.6862376 -0.65316,2.3175596 -1.718557,4.5467606 -1.718557,4.5467606 0,0 -0.152837,0.327151 -0.4196,0.847573 -0.01689,-0.13607 -0.02752,-0.215666 -0.02752,-0.215666 0,0 -0.215133,-1.684437 -0.595393,-3.340393 -0.369804,-1.6593641 -0.901672,-3.2848937 -0.901672,-3.2848937 0,0 -0.435174,1.6381871 -1.028512,3.2401057 -0.583916,1.605812 -1.321086,3.170975 -1.321086,3.170975 0,0 -0.569165,1.225111 -1.305105,2.560975 -1.035486,-1.493111 -1.656281,-3.060707 -1.656281,-3.060707 0,0 -0.16759,-0.416241 -0.371245,-1.054233 -0.207749,-0.637993 -0.402389,-1.500901 -0.522043,-2.3806051 -0.233155,-1.7564872 0.06227,-3.5633613 0.06227,-3.5633613 0,0 -0.304455,0.412346 -0.712993,1.0508252 -0.413044,0.637749 -0.880177,1.5103939 -1.273142,2.4081107 -0.778968,1.7937295 -1.038349,3.6921285 -1.038349,3.6921285 0,0 -0.06841,0.470765 -0.114738,1.186408 -0.01106,0.160167 -0.01722,0.335913 -0.02089,0.517745 -0.02552,-0.582498 -0.130413,-2.406167 -0.502481,-4.200141 -0.426976,-2.1785695 -1.235445,-4.2863054 -1.235445,-4.2863054 0,0 -0.156941,2.163965 -0.696193,4.2721874 -0.517124,2.114796 -1.39894,4.154131 -1.39894,4.154131 0,0 -0.516718,1.225354 -1.307156,2.681954 -0.124159,-0.715399 -0.19259,-1.185435 -0.19259,-1.185435 0,0 -0.339697,-2.190254 -0.475738,-4.403388 C 82.730779,9.4919039 82.7816,7.2631905 82.7816,7.2631905 c 0,0 -1.007616,2.1457087 -1.814035,4.3362055 -0.149973,0.394333 -0.292983,0.789641 -0.426976,1.173021 L 79.587683,3.6516309 76.890602,14.69272 c 0,0 -0.181118,0.741687 -0.448695,1.836815 -0.04712,-0.197898 -0.113099,-0.489753 -0.184396,-0.849278 -0.130304,-0.68059 -0.256513,-1.595589 -0.306913,-2.520081 -0.131125,-1.849229 0.162267,-3.7279109 0.162267,-3.7279109 0,0 -0.307324,0.4330364 -0.719139,1.0985349 -0.42083,0.664281 -0.929349,1.565893 -1.360426,2.488195 -0.435989,0.921327 -0.798224,1.861886 -1.03261,2.57485 -0.03934,0.121707 -0.07417,0.233436 -0.107367,0.340538 0.0057,-0.112945 0.01154,-0.225159 0.01434,-0.331288 0.03933,-0.542087 0.0077,-0.996301 0.01516,-1.311524 -0.0017,-0.31571 -0.0029,-0.495838 -0.0029,-0.495838 0,0 -0.01106,-0.180371 -0.03114,-0.496081 -0.02909,-0.315709 -0.02868,-0.764569 -0.1049,-1.302759 C 72.678189,10.920752 72.414705,9.4948229 72.045505,8.0895845 71.642706,6.6845895 71.135005,5.3022322 70.665823,4.2815906 70.454792,3.7689572 70.21508,3.3502824 70.077398,3.0547758 69.930702,2.7604862 69.847109,2.5925296 69.847109,2.5925296 c 0,0 0.02459,0.1747723 0.0672,0.4809892 0.03361,0.3067037 0.124571,0.7397401 0.155302,1.2645441 0.109407,1.045957 0.131126,2.4402416 0.04753,3.8213819 -0.117193,1.383331 -0.338467,2.7518132 -0.591293,3.7685602 -0.103261,0.509227 -0.252416,0.929604 -0.326582,1.224138 -0.08317,0.294046 -0.130716,0.462246 -0.130716,0.462246 0,0 -0.05778,0.166983 -0.158581,0.459325 -0.110232,0.291612 -0.224551,0.710044 -0.436401,1.204664 -0.202424,0.532837 -0.477378,1.157684 -0.794946,1.816854 -0.615878,-1.83438 -0.994913,-3.2255 -0.994913,-3.2255 0,0 -0.88919,-3.139818 -1.386648,-6.330997 C 64.763964,4.3519376 64.63079,1.1281411 64.63079,1.1281411 c 0,0 -0.832235,3.1843632 -1.26577,6.4174095 -0.46959,3.2289084 -0.534744,6.4916504 -0.534744,6.4916504 0,0 -0.07702,2.467261 0.106129,5.266054 -0.790028,-2.830193 -1.814855,-5.562776 -1.814855,-5.562776 0,0 -1.049821,-2.844312 -2.362712,-5.6311779 -1.298138,-2.7919771 -2.85361,-5.5189623 -2.85361,-5.5189623 0,0 0.205293,0.957597 0.443365,2.3153694 -0.184804,-0.9683073 -0.320847,-1.6123851 -0.320847,-1.6123851 0,0 -0.422878,2.5814226 -0.99778,5.1411814 -0.565888,2.5621925 -1.282157,5.1000435 -1.282157,5.1000435 0,0 -0.287657,1.03184 -0.717092,2.429289 -0.0885,-0.518476 -0.329452,-2.084612 -0.319617,-3.683123 -0.01106,-1.950245 0.367969,-3.9236158 0.367969,-3.9236158 0,0 -1.31535,1.8212358 -2.278708,3.7541988 -0.98426,1.924444 -1.598091,3.938465 -1.598091,3.938465 0,0 -0.06391,0.201792 -0.158987,0.542087 -0.05573,-0.0998 -0.120058,-0.20885 -0.170872,-0.303296 -0.531877,-0.978531 -0.849447,-1.642326 -0.849447,-1.642326 0,0 -0.316341,-0.66136 -0.73389,-1.667883 C 46.866214,11.972063 46.40113,10.613804 46.022505,9.2368023 45.672975,7.8595568 45.411545,6.4652721 45.29435,5.4132298 45.21526,4.8872086 45.20543,4.4483302 45.172241,4.1399226 c -0.025,-0.3084076 -0.03934,-0.4848839 -0.03934,-0.4848839 0,0 -0.04589,0.1742856 -0.126209,0.4790419 -0.07252,0.3054866 -0.213487,0.7412006 -0.315929,1.2681954 -0.245039,1.0527726 -0.467952,2.4672608 -0.597849,3.8948934 -0.1008,1.4256856 -0.108171,2.8630536 -0.03442,3.9421156 0.01154,0.178425 0.02336,0.34273 0.03524,0.499976 -0.345024,0.692518 -0.713404,1.339273 -1.047363,1.846795 -0.443777,0.682293 -0.772,1.123849 -0.772,1.123849 0,0 -0.330681,0.444477 -0.872392,1.089042 -0.537204,0.646024 -1.336247,1.477776 -2.192248,2.272285 -0.03155,0.02775 -0.06351,0.05452 -0.09506,0.08228 0.575313,-2.220681 0.875673,-4.215228 0.875673,-4.215228 0,0 0.403619,-2.545398 0.465081,-5.076677 0.08196,-2.5346866 -0.175787,-5.0408939 -0.175787,-5.0408939 0,0 -0.709715,2.4787014 -1.739868,4.8916799 -1.012122,2.419065 -2.332799,4.759993 -2.332799,4.759993 0,0 -0.635136,1.14308 -1.560799,2.599679 -0.272905,-0.753129 -0.500325,-1.474855 -0.644971,-2.067572 -0.129486,-0.44399 -0.181118,-0.816904 -0.244223,-1.078331 -0.0549,-0.261673 -0.08604,-0.411129 -0.08604,-0.411129 0,0 -0.02212,-0.149945 -0.06148,-0.412347 -0.03073,-0.262402 -0.113098,-0.639209 -0.144238,-1.091962 -0.104085,-0.90648 -0.138091,-2.122098 -0.07785,-3.3476953 0.09015,-1.2219464 0.275362,-2.452169 0.497045,-3.3715498 0.09015,-0.4624896 0.222504,-0.8410009 0.288885,-1.1107055 0.07499,-0.2689742 0.117605,-0.4225695 0.117605,-0.4225695 0,0 -0.100801,0.1436152 -0.277002,0.3948201 -0.168003,0.252909 -0.446645,0.6087825 -0.714222,1.0491215 -0.576132,0.8741054 -1.243232,2.0658682 -1.821411,3.2848938 -0.547858,1.2209727 -1.005568,2.4672597 -1.268226,3.4131737 -0.152024,0.471983 -0.221684,0.869237 -0.297081,1.146731 -0.0672,0.278467 -0.105726,0.437417 -0.105726,0.437417 0,0 -0.02909,0.159682 -0.0799,0.438879 -0.04303,0.279441 -0.141779,0.679861 -0.191771,1.162066 -0.141778,0.965143 -0.220864,2.260114 -0.198326,3.566769 0.0213,0.532593 0.06066,1.065431 0.113099,1.578064 -0.01434,-0.03116 -0.02828,-0.06207 -0.04222,-0.09347 -0.941233,-2.085341 -1.736589,-4.205735 -1.736589,-4.205735 0,0 -0.803553,-2.117229 -1.457948,-4.265616 -0.663017,-2.145708 -1.173997,-4.3194093 -1.173997,-4.3194093 0,0 -0.455659,2.1761353 -0.755608,4.3749093 -0.309375,2.196339 -0.461395,4.411664 -0.461395,4.411664 0,0 -0.16145,2.213378 -0.163498,4.441605 -0.0024,0.501193 0.0032,1.001655 0.01311,1.478264 H 23.516491 L 23.229653,15.497699 22.886679,6.2410899 19.385637,15.263533 17.081931,21.21894 c 0.04385,-0.232462 0.08728,-0.466141 0.128667,-0.700794 0.455249,-2.519108 0.719138,-5.034322 0.719138,-5.034322 0,0 0.275365,-2.516674 0.361006,-5.024341 0.09711,-2.509372 0.0049,-5.0053558 0.0049,-5.0053558 0,0 -0.870754,2.4441363 -1.918936,4.8493258 -1.038347,2.408841 -2.250027,4.774598 -2.250027,4.774598 0,0 -1.201843,2.369407 -2.573331,4.691592 -0.241351,0.412346 -0.48803,0.822501 -0.730613,1.219269 0.151614,-1.560781 0.189721,-2.832627 0.189721,-2.832627 0,0 0.0758,-2.112848 -0.0713,-4.205005 -0.133585,-2.095322 -0.487213,-4.1624074 -0.487213,-4.1624074 0,0 -0.6130114,2.0480994 -1.4355348,4.0504354 -0.8103939,2.006475 -1.8231296,3.96086 -1.8231296,3.96086 0,0 -0.3569486,0.697142 -0.8971848,1.660824 L 5.4549121,16.932634 2.5908913,8.345418 1.5989705,17.079658 1.3130776,19.597305 c -1.34452577,-1.245801 -2.34206,-2.210458 -2.34206,-2.210458 0,0 -2.1055021,-2.026435 -4.0930315,-4.107151 -1.9939243,-2.076822 -3.8665149,-4.2059785 -3.8665149,-4.2059785 0,0 0.9677449,2.3309475 2.0848494,4.6494825 1.1076391,2.31902 2.3643099,4.622706 2.3643099,4.622706"
       style="fill:#7fcc29;fill-opacity:1;fill-rule:nonzero;stroke:none;stroke-width:0.0315822"
       id="path94" />
  </g>
</svg>
